<svg xmlns="http://www.w3.org/2000/svg" viewBox="0 0 150 150"><defs><style>.cls-1{fill:#fff;}.cls-2{fill:#fab3c3;}.cls-3{fill:#a3cff2;}</style></defs><title>load-view_bg</title><g id="レイヤー_2" data-name="レイヤー 2"><g id="レイヤー_1-2" data-name="レイヤー 1"><polygon class="cls-1" points="100.01 150 75 150 0 75 0 49.99 100.01 150"/><polygon class="cls-2" points="124.99 150 100.01 150 0 49.99 0 25.01 124.99 150"/><polygon class="cls-3" points="150 150 124.99 150 0 25.01 0 0 150 150"/><polygon class="cls-1" points="25.01 150 0 150 0 124.99 25.01 150"/><polygon class="cls-2" points="49.99 150 25.01 150 0 124.99 0 100.01 49.99 150"/><polygon class="cls-3" points="75 150 49.99 150 0 100.01 0 75 75 150"/><polygon class="cls-1" points="150 49.99 150 75 75 0 100.01 0 150 49.99"/><polygon class="cls-2" points="150 25.01 150 49.99 100.01 0 124.99 0 150 25.01"/><polygon class="cls-3" points="150 0 150 25.01 124.99 0 150 0"/><polygon class="cls-1" points="150 124.99 150 150 0 0 25.01 0 150 124.99"/><polygon class="cls-2" points="150 100.01 150 124.99 25.01 0 49.99 0 150 100.01"/><polygon class="cls-3" points="150 75 150 100.01 49.99 0 75 0 150 75"/></g></g></svg>