<svg xmlns="http://www.w3.org/2000/svg" viewBox="0 0 400 95"><defs><style>.cls-1{fill:#917050;}</style></defs><title>load-view_title</title><g id="レイヤー_2" data-name="レイヤー 2"><g id="レイヤー_1-2" data-name="レイヤー 1"><path class="cls-1" d="M0,72.25V0H15.51V65.56h31v6.69Z"/><path class="cls-1" d="M82.22,72.25H66.71q-14,0-14-13.38V40.14q0-13.38,14-13.38H82.22q14,0,14,13.38V58.87Q96.19,72.25,82.22,72.25ZM80.67,58.87V40.14q0-6.69-6.2-6.69t-6.21,6.69V58.87q0,6.69,6.21,6.69T80.67,58.87Z"/><path class="cls-1" d="M116.35,72.25q-13.95,0-14-13.38V56.2q0-13.38,14-13.38h14V40.14q0-6.69-9.31-6.69H103.94V26.76h27.93q14,0,14,13.38V72.25Zm7.76-22.74q-6.21,0-6.2,6.69v2.67q0,6.69,6.2,6.69h6.21V49.51Z"/><path class="cls-1" d="M166,72.25q-14,0-14-13.38V40.14q0-13.38,14-13.38h14V0h15.52V72.25Zm7.76-38.8q-6.21,0-6.21,6.69V58.87q0,6.69,6.21,6.69H180V33.45Z"/><path class="cls-1" d="M211.77,0l9.82,8.47L211.77,17l-9.83-8.48Zm-8,26.76h15.51V72.25H203.75Z"/><path class="cls-1" d="M228.06,26.76h29.47q14,0,14,13.38V72.25H256V40.14q0-6.69-9.31-6.69h-3.1v38.8H228.06Z"/><path class="cls-1" d="M291.66,26.76h29.48V81.62q0,13.38-14,13.38H279.25V88.31h17.07q9.3,0,9.31-6.69V72.25h-14q-14,0-14-13.38V40.14Q277.7,26.76,291.66,26.76Zm7.76,38.8h6.21V33.45h-6.21q-6.21,0-6.21,6.69V58.87Q293.21,65.56,299.42,65.56Z"/><path class="cls-1" d="M337.43,72l-9.83-8.47,9.83-8.48,9.82,8.48Z"/><path class="cls-1" d="M363.8,72,354,63.56l9.82-8.48,9.83,8.48Z"/><path class="cls-1" d="M390.17,72l-9.82-8.47,9.82-8.48L400,63.56Z"/></g></g></svg>