<svg xmlns="http://www.w3.org/2000/svg" viewBox="0 0 1632.47 100"><defs><style>.cls-1{fill:#fff;}</style></defs><title>アセット 66</title><g id="レイヤー_2" data-name="レイヤー 2"><g id="レイヤー_1-2" data-name="レイヤー 1"><path class="cls-1" d="M21.55,77.54a.56.56,0,0,1-.63-.64V11.55H.64A.56.56,0,0,1,0,10.91V.64A.56.56,0,0,1,.64,0H54a.56.56,0,0,1,.64.64V10.91a.56.56,0,0,1-.64.64H33.74V76.9a.56.56,0,0,1-.64.64Z"/><path class="cls-1" d="M62.16,77.54a.57.57,0,0,1-.64-.64V1.17a.57.57,0,0,1,.64-.64H73a.57.57,0,0,1,.64.64V27.3q5.1-5.58,13.62-5.59a17.13,17.13,0,0,1,6.39,1.23,24.64,24.64,0,0,1,6.17,3.67q6.07,5,6.07,14.42V76.9a.57.57,0,0,1-.64.64H94.41a.57.57,0,0,1-.64-.64V44.76q0-5.26-2.82-8.09a10.55,10.55,0,0,0-14.47,0q-2.82,2.82-2.82,8.09V76.9a.57.57,0,0,1-.64.64Z"/><path class="cls-1" d="M162.8,54a.57.57,0,0,1-.64.64H129.22q.15,5.85,3.35,8.88a12.7,12.7,0,0,0,8.89,3.2,15.69,15.69,0,0,0,11.39-5,.49.49,0,0,1,.37-.18.68.68,0,0,1,.48.13l7.88,6.71a.5.5,0,0,1,.21.42.75.75,0,0,1-.16.48,24,24,0,0,1-9.29,6.84,28,28,0,0,1-27.17-3.43q-8.08-5.53-8.09-22.57,0-16.07,7.4-22.24Q132,21.71,140,21.71a22.7,22.7,0,0,1,16,6.34q6.87,6.37,6.87,17Zm-12.13-9.53q-.37-5.54-3.3-8.41a10.17,10.17,0,0,0-7.4-2.87,10.28,10.28,0,0,0-7.61,3,9.66,9.66,0,0,0-2.18,3.51,16,16,0,0,0-1,4.79Z"/><path class="cls-1" d="M201,77.54c-.39,0-.59-.21-.59-.64v-54c0-.43.2-.64.59-.64h10.91c.39,0,.58.21.58.64V27.3q5.12-5.58,13.63-5.59A18.81,18.81,0,0,1,237.73,26a.58.58,0,0,1,.24.43.64.64,0,0,1-.13.48L230,36.24a.53.53,0,0,1-.85.11,11.52,11.52,0,0,0-6.82-2.55,10.49,10.49,0,0,0-6.86,2.55c-2,1.7-3,4.42-3,8.14V76.9c0,.43-.19.64-.58.64Z"/><path class="cls-1" d="M285.53,54a.57.57,0,0,1-.64.64H251.94q.17,5.85,3.36,8.88a12.69,12.69,0,0,0,8.88,3.2,15.67,15.67,0,0,0,11.39-5,.51.51,0,0,1,.38-.18.66.66,0,0,1,.47.13l7.88,6.71a.5.5,0,0,1,.21.42.75.75,0,0,1-.16.48,24,24,0,0,1-9.28,6.84A28,28,0,0,1,247.9,72.7q-8.09-5.53-8.09-22.57,0-16.07,7.4-22.24t15.48-6.18a22.71,22.71,0,0,1,16,6.34q6.87,6.37,6.87,17Zm-12.14-9.53q-.37-5.54-3.3-8.41a10.15,10.15,0,0,0-7.4-2.87,10.31,10.31,0,0,0-7.61,3,9.66,9.66,0,0,0-2.18,3.51,16.62,16.62,0,0,0-1,4.79Z"/><path class="cls-1" d="M326.19,77.75a.56.56,0,0,1-.64-.63v-3A9,9,0,0,1,321.71,77,17.68,17.68,0,0,1,317.86,78a29,29,0,0,1-4.82.37q-9.15-.21-13.94-5v0a15.69,15.69,0,0,1-5.22-12.18,16.62,16.62,0,0,1,4.47-11.77q4.57-4.79,13.2-4.89h14V39.54q.1-6.6-10.12-6.33a30.71,30.71,0,0,0-3.35.16,12,12,0,0,0-2.71.58h.05a8.29,8.29,0,0,0-1.91,1.31,7,7,0,0,0-1.44,1.83c-.25.43-.57.48-1,.16l-8.3-6.54a.72.72,0,0,1-.27-.4.53.53,0,0,1,.11-.45q6.17-8.35,18.25-8.09a37,37,0,0,1,9.05.9,22.08,22.08,0,0,1,7.13,3q6.18,4.35,6.23,14.42v37a.56.56,0,0,1-.64.63Zm-.64-22.93h-12q-8.56.26-8.52,5.9A5.49,5.49,0,0,0,307.19,65c1.49,1.31,3.86,2,7.13,2,4.36,0,7.38-.48,9-1.54h-.05q2.24-1.5,2.24-7.24Z"/><path class="cls-1" d="M349.23,1.17c0-.43.19-.64.59-.64h10.9c.4,0,.59.21.59.64V63q0,3.13,3.46,3.14h3.67a.56.56,0,0,1,.64.64V76.9a.56.56,0,0,1-.64.64h-4.79a17.21,17.21,0,0,1-10.22-3q-4.2-3.09-4.2-10.7Z"/><path class="cls-1" d="M378.23,12.67a.56.56,0,0,1-.63-.64V1.17a.56.56,0,0,1,.63-.64h10.86c.39,0,.59.21.59.64V12c0,.42-.2.64-.59.64Zm0,64.87a.56.56,0,0,1-.63-.64v-54a.56.56,0,0,1,.63-.64h10.86c.39,0,.59.21.59.64v54c0,.43-.2.64-.59.64Z"/><path class="cls-1" d="M404.69,77.59a.56.56,0,0,1-.64-.63V31.88h-4.79a.56.56,0,0,1-.64-.64v-8.3a.56.56,0,0,1,.64-.64h4.79V14.21l11-11.76a.62.62,0,0,1,.72-.16.58.58,0,0,1,.4.58V22.3h7.24a.57.57,0,0,1,.64.64v8.3a.57.57,0,0,1-.64.64h-7.24V77a.56.56,0,0,1-.64.63Z"/><path class="cls-1" d="M445.4,74.83Q440.56,61.9,435.77,49t-9.64-25.84a.65.65,0,0,1,.06-.58.5.5,0,0,1,.47-.27h11.45a.58.58,0,0,1,.34.13.58.58,0,0,1,.24.29L451,59.18q3.09-9.21,6.15-18.25t6.14-18.21a.7.7,0,0,1,.24-.29.61.61,0,0,1,.35-.13h11.49a.58.58,0,0,1,.54.27.69.69,0,0,1,.05.58L452.8,88.29q-2.3,6.49-6.55,8.78v0a15.77,15.77,0,0,1-4.39,1.78,20.31,20.31,0,0,1-4.87.56h-3.62c-.43,0-.64-.19-.64-.58V88.5a.56.56,0,0,1,.64-.63h3.19a5.86,5.86,0,0,0,6-4.26Z"/><path class="cls-1" d="M509.05,77.54a.56.56,0,0,1-.64-.64V1.17a.56.56,0,0,1,.64-.64h10.86a.56.56,0,0,1,.63.64V46.83q5-6.12,9.93-12.16t9.93-12.16a.66.66,0,0,1,.47-.21h13a.59.59,0,0,1,.59.37.63.63,0,0,1-.11.69L536,44.17q5.26,8.2,10.46,16.21T557,76.58a.66.66,0,0,1,0,.67.61.61,0,0,1-.58.29H542.79a.63.63,0,0,1-.53-.32L528.37,52.79c-1.28,1.49-2.58,3-3.91,4.42s-2.64,2.93-3.92,4.42V76.9a.56.56,0,0,1-.63.64Z"/><path class="cls-1" d="M607.67,54a.57.57,0,0,1-.64.64H574.08q.17,5.85,3.36,8.88a12.69,12.69,0,0,0,8.88,3.2,15.67,15.67,0,0,0,11.39-5,.51.51,0,0,1,.38-.18.7.7,0,0,1,.48.13l7.87,6.71a.5.5,0,0,1,.21.42.75.75,0,0,1-.16.48,24,24,0,0,1-9.28,6.84A28,28,0,0,1,570,72.7Q562,67.17,562,50.13q0-16.07,7.4-22.24,7.56-6.18,15.48-6.18a22.71,22.71,0,0,1,16,6.34q6.87,6.37,6.87,17Zm-12.14-9.53q-.37-5.54-3.3-8.41a10.15,10.15,0,0,0-7.4-2.87,10.31,10.31,0,0,0-7.61,3A9.66,9.66,0,0,0,575,39.7a16.62,16.62,0,0,0-1,4.79Z"/><path class="cls-1" d="M661.9,54a.57.57,0,0,1-.64.64h-33q.16,5.85,3.36,8.88a12.7,12.7,0,0,0,8.89,3.2,15.67,15.67,0,0,0,11.38-5,.53.53,0,0,1,.38-.18.7.7,0,0,1,.48.13l7.87,6.71a.51.51,0,0,1,.22.42.81.81,0,0,1-.16.48,24.08,24.08,0,0,1-9.29,6.84,28,28,0,0,1-27.17-3.43q-8.09-5.53-8.09-22.57,0-16.07,7.4-22.24,7.56-6.18,15.49-6.18a22.7,22.7,0,0,1,16,6.34q6.87,6.37,6.87,17Zm-12.14-9.53q-.37-5.54-3.3-8.41a10.13,10.13,0,0,0-7.39-2.87,10.32,10.32,0,0,0-7.62,3,9.8,9.8,0,0,0-2.18,3.51,16.62,16.62,0,0,0-1,4.79Z"/><path class="cls-1" d="M674,99.36c-.43,0-.64-.19-.64-.58V22.94a.56.56,0,0,1,.64-.64h10.86a.56.56,0,0,1,.63.64V27a18.52,18.52,0,0,1,13.31-5.33,17.85,17.85,0,0,1,4.63.59,19.7,19.7,0,0,1,7.53,3.86A20.43,20.43,0,0,1,713.73,29a15.58,15.58,0,0,1,2,3.3A17.63,17.63,0,0,1,716.87,36V36q.86,3.72.85,14,0,5.06-.21,8.55a37,37,0,0,1-.64,5.45v0a15.45,15.45,0,0,1-3.14,7h.06a19.48,19.48,0,0,1-6.15,5.22,18.21,18.21,0,0,1-8.86,2,17,17,0,0,1-7.21-1.49,24.94,24.94,0,0,1-6.1-4V98.78c0,.39-.21.58-.63.58ZM695.53,66.1c4.76,0,7.59-1.6,8.52-4.79A40.11,40.11,0,0,0,705.59,50a41.16,41.16,0,0,0-1.54-11.33c-.93-3.23-3.76-4.84-8.52-4.84s-7.64,1.66-8.57,5a41,41,0,0,0-1.11,5.51,42.48,42.48,0,0,0-.38,5.66,41.82,41.82,0,0,0,.4,5.64A49.37,49.37,0,0,0,687,61.15a6.34,6.34,0,0,0,2.88,3.67A11,11,0,0,0,695.53,66.1Z"/><path class="cls-1" d="M731.67,60c.28-.28.55-.3.8-.05a22.92,22.92,0,0,0,16.6,6.76,15,15,0,0,0,7.35-1.65,6,6,0,0,0,2-2,5,5,0,0,0,.72-2.66c0-2.8-2-4.37-6.07-4.69l-9.58-.9a23.6,23.6,0,0,1-6.28-1.44A16.71,16.71,0,0,1,732,50.29q-4.57-4-4.58-11.33,0-8.52,6-12.94t14.69-4.31a38.46,38.46,0,0,1,6.68.54,33,33,0,0,1,5.7,1.49,27.57,27.57,0,0,1,4.89,2.34,38.35,38.35,0,0,1,4.34,3.08.52.52,0,0,1,.21.43.75.75,0,0,1-.16.48L763.07,38a.65.65,0,0,1-.85.1,34.64,34.64,0,0,0-6.5-3.48,20,20,0,0,0-7.61-1.36q-5,0-6.81,1.7a5.38,5.38,0,0,0-1.81,4.15,4,4,0,0,0,1.33,2.88q1.27,1.28,5.22,1.59l4.49.32,4.45.32a21.8,21.8,0,0,1,7.37,1.68,13,13,0,0,1,5.08,3.75,17.74,17.74,0,0,1,3.78,11.34,14.52,14.52,0,0,1-6.76,12.82,26,26,0,0,1-7.37,3.3,32.8,32.8,0,0,1-8.86,1.12q-13.62,0-24.16-9.79a.6.6,0,0,1,0-1Z"/><path class="cls-1" d="M838.64,72.86a18.74,18.74,0,0,1-13.3,5.32A18.19,18.19,0,0,1,816.13,76a28.62,28.62,0,0,1-3.22-2.26,14.7,14.7,0,0,1-2.37-2.37,20.61,20.61,0,0,1-2-3.22,15.89,15.89,0,0,1-1.28-3.38q-.86-3.25-.85-14.8t.85-14.74a17.77,17.77,0,0,1,3.3-6.65A19.65,19.65,0,0,1,816.13,24a17,17,0,0,1,9.21-2.29,19.08,19.08,0,0,1,13.3,5.48V22.94c0-.43.2-.64.59-.64h10.91c.39,0,.58.21.58.64V75.68q0,12.41-7.29,18.41A25.79,25.79,0,0,1,826.72,100a22.66,22.66,0,0,1-10.43-2.55,29,29,0,0,1-8.84-6.71.68.68,0,0,1-.13-.48.43.43,0,0,1,.24-.37L816,83.18a.59.59,0,0,1,.75,0,18.48,18.48,0,0,0,4.52,3.3,11.89,11.89,0,0,0,5.64,1.39,12.24,12.24,0,0,0,8.41-2.82q3.3-2.88,3.3-8.2ZM818.52,50c0,2.1,0,3.86.06,5.3a26.51,26.51,0,0,0,.21,3.22,10.26,10.26,0,0,0,.61,2,6.55,6.55,0,0,0,1.09,1.73,7.88,7.88,0,0,0,1.25,1.39,9.63,9.63,0,0,0,1.79,1.25,10.23,10.23,0,0,0,2.28.9,10.91,10.91,0,0,0,2.83.35,10.33,10.33,0,0,0,2.74-.35,10.66,10.66,0,0,0,2.26-.9,9.55,9.55,0,0,0,1.78-1.25,9.77,9.77,0,0,0,1.3-1.39,10.34,10.34,0,0,0,1-1.78,8.14,8.14,0,0,0,.56-1.94,21.8,21.8,0,0,0,.29-3.19c.05-1.42.08-3.2.08-5.33s0-3.9-.08-5.32a21.66,21.66,0,0,0-.29-3.19,8.65,8.65,0,0,0-1.6-3.73h.05c-.39-.42-.84-.88-1.35-1.35a8.87,8.87,0,0,0-1.79-1.28,11.84,11.84,0,0,0-2.23-.93,9.25,9.25,0,0,0-2.71-.37,10.1,10.1,0,0,0-2.83.37,11.3,11.3,0,0,0-2.28.93,9.63,9.63,0,0,0-1.79,1.25,8.21,8.21,0,0,0-1.25,1.38,8.56,8.56,0,0,0-1.7,3.73,26.51,26.51,0,0,0-.21,3.22C818.54,46.12,818.52,47.88,818.52,50Z"/><path class="cls-1" d="M907.61,54a.57.57,0,0,1-.64.64H874q.16,5.85,3.35,8.88a12.73,12.73,0,0,0,8.89,3.2,15.67,15.67,0,0,0,11.39-5,.51.51,0,0,1,.37-.18.68.68,0,0,1,.48.13l7.88,6.71a.5.5,0,0,1,.21.42.75.75,0,0,1-.16.48,24,24,0,0,1-9.28,6.84A28,28,0,0,1,870,72.7q-8.1-5.53-8.09-22.57,0-16.07,7.4-22.24t15.48-6.18a22.72,22.72,0,0,1,16,6.34q6.86,6.37,6.86,17Zm-12.13-9.53q-.37-5.54-3.3-8.41a10.15,10.15,0,0,0-7.4-2.87,10.31,10.31,0,0,0-7.61,3A9.66,9.66,0,0,0,875,39.7a16.62,16.62,0,0,0-1,4.79Z"/><path class="cls-1" d="M920.17,77.59a.56.56,0,0,1-.64-.63V31.88h-4.79a.56.56,0,0,1-.63-.64v-8.3a.56.56,0,0,1,.63-.64h4.79V14.21l11-11.76a.62.62,0,0,1,.72-.16.58.58,0,0,1,.4.58V22.3h7.24a.57.57,0,0,1,.64.64v8.3a.57.57,0,0,1-.64.64h-7.24V77a.56.56,0,0,1-.64.63Z"/><path class="cls-1" d="M950.46,77.59a.56.56,0,0,1-.64-.63V31.88H945a.56.56,0,0,1-.64-.64v-8.3a.56.56,0,0,1,.64-.64h4.79V14.21l11-11.76a.62.62,0,0,1,.72-.16.58.58,0,0,1,.4.58V22.3h7.24a.57.57,0,0,1,.64.64v8.3a.57.57,0,0,1-.64.64H962V77a.56.56,0,0,1-.64.63Z"/><path class="cls-1" d="M980.42,12.67a.57.57,0,0,1-.64-.64V1.17a.56.56,0,0,1,.64-.64h10.86c.39,0,.58.21.58.64V12c0,.42-.19.64-.58.64Zm0,64.87a.56.56,0,0,1-.64-.64v-54a.56.56,0,0,1,.64-.64h10.86c.39,0,.58.21.58.64v54c0,.43-.19.64-.58.64Z"/><path class="cls-1" d="M1006.39,77.54a.56.56,0,0,1-.64-.64v-54a.56.56,0,0,1,.64-.64h10.86a.57.57,0,0,1,.64.64V27.3q5.1-5.58,13.62-5.59a17.13,17.13,0,0,1,6.39,1.23,24.64,24.64,0,0,1,6.17,3.67q6.06,5,6.07,14.42V76.9a.57.57,0,0,1-.64.64h-10.86a.57.57,0,0,1-.64-.64V44.76q0-5.26-2.82-8.09a10.55,10.55,0,0,0-14.47,0c-1.89,1.88-2.82,4.58-2.82,8.09V76.9a.57.57,0,0,1-.64.64Z"/><path class="cls-1" d="M1094.58,72.86a18.76,18.76,0,0,1-13.31,5.32,18.19,18.19,0,0,1-9.21-2.18,29.56,29.56,0,0,1-3.22-2.26,15,15,0,0,1-2.36-2.37,20.67,20.67,0,0,1-2-3.22,15.85,15.85,0,0,1-1.27-3.38q-.86-3.25-.86-14.8t.86-14.74a17.77,17.77,0,0,1,3.3-6.65,19.45,19.45,0,0,1,5.58-4.58,17,17,0,0,1,9.21-2.29,19.1,19.1,0,0,1,13.31,5.48V22.94c0-.43.19-.64.58-.64h10.91c.39,0,.59.21.59.64V75.68q0,12.41-7.29,18.41a25.84,25.84,0,0,1-16.72,5.91,22.72,22.72,0,0,1-10.43-2.55,28.94,28.94,0,0,1-8.83-6.71.63.63,0,0,1-.13-.48.4.4,0,0,1,.24-.37l8.46-6.71a.57.57,0,0,1,.74,0,18.73,18.73,0,0,0,4.53,3.3,11.83,11.83,0,0,0,5.64,1.39,12.25,12.25,0,0,0,8.41-2.82q3.3-2.88,3.3-8.2ZM1074.46,50c0,2.1,0,3.86,0,5.3a31.43,31.43,0,0,0,.21,3.22,10.27,10.27,0,0,0,.62,2,6.3,6.3,0,0,0,1.09,1.73,7.51,7.51,0,0,0,1.25,1.39,9.55,9.55,0,0,0,1.78,1.25,10.31,10.31,0,0,0,2.29.9,10.78,10.78,0,0,0,2.82.35,10.27,10.27,0,0,0,2.74-.35,10.45,10.45,0,0,0,2.26-.9,9.63,9.63,0,0,0,1.79-1.25,10.38,10.38,0,0,0,1.3-1.39,9.66,9.66,0,0,0,1-1.78,7.7,7.7,0,0,0,.56-1.94,23,23,0,0,0,.3-3.19c0-1.42.08-3.2.08-5.33s0-3.9-.08-5.32a22.82,22.82,0,0,0-.3-3.19,8.63,8.63,0,0,0-1.59-3.73h.05c-.39-.42-.84-.88-1.36-1.35a8.8,8.8,0,0,0-1.78-1.28,11.67,11.67,0,0,0-2.24-.93,9.2,9.2,0,0,0-2.71-.37,10,10,0,0,0-2.82.37,11.4,11.4,0,0,0-2.29.93,9.55,9.55,0,0,0-1.78,1.25,7.8,7.8,0,0,0-1.25,1.38,8.69,8.69,0,0,0-1.71,3.73,31.43,31.43,0,0,0-.21,3.22C1074.48,46.12,1074.46,47.88,1074.46,50Z"/><path class="cls-1" d="M1187.66,67.75a.51.51,0,0,1,.21.42.75.75,0,0,1-.16.48,31,31,0,0,1-4,3.81,27.92,27.92,0,0,1-4.66,3,25.67,25.67,0,0,1-5.32,2,24,24,0,0,1-6,.72,26.64,26.64,0,0,1-17.35-6.49q-7.77-6.6-7.77-21.72t7.77-21.66a26,26,0,0,1,17.35-6.6,24,24,0,0,1,6,.72,25.7,25.7,0,0,1,5.32,2,27.25,27.25,0,0,1,4.66,3,32.42,32.42,0,0,1,4,3.81.75.75,0,0,1,.16.48.49.49,0,0,1-.21.42l-8,7.14a.56.56,0,0,1-.48.18.42.42,0,0,1-.37-.24q-4.47-5.43-10.54-5.42-13.41,0-13.41,16.17t13.41,16.13a12.92,12.92,0,0,0,10.54-5.43.51.51,0,0,1,.37-.21.58.58,0,0,1,.48.1Z"/><path class="cls-1" d="M1195.16,1.17c0-.43.2-.64.59-.64h10.91c.39,0,.58.21.58.64V63q0,3.13,3.46,3.14h3.67a.56.56,0,0,1,.64.64V76.9a.56.56,0,0,1-.64.64h-4.79a17.16,17.16,0,0,1-10.21-3q-4.21-3.09-4.21-10.7Z"/><path class="cls-1" d="M1220.71,49.87q0-8.68,1.43-13.15a20.6,20.6,0,0,1,4.58-7.93,27.33,27.33,0,0,1,6.28-4.74q4.05-2.34,10.59-2.34t10.49,2.34a36.63,36.63,0,0,1,3.64,2.35,22,22,0,0,1,2.74,2.39,21.53,21.53,0,0,1,4.58,7.93q1.38,4.58,1.38,13.15,0,8.84-1.38,13.3a22.62,22.62,0,0,1-4.58,7.93,27.09,27.09,0,0,1-6.38,4.85,21.54,21.54,0,0,1-10.49,2.23A22,22,0,0,1,1233,76a33.31,33.31,0,0,1-6.28-4.85,20.66,20.66,0,0,1-4.58-7.93Q1220.72,58.8,1220.71,49.87Zm33.63.1a39.63,39.63,0,0,0-.58-8.09,12.73,12.73,0,0,0-2-4.36,9.17,9.17,0,0,0-3.44-2.77,11.08,11.08,0,0,0-4.76-1q-5.64,0-8.19,3.72a15.76,15.76,0,0,0-1.26,2.1,10.55,10.55,0,0,0-.77,2.26,41,41,0,0,0-.53,8c0,1.91,0,3.56.13,5a23.18,23.18,0,0,0,.4,3.3,10.71,10.71,0,0,0,2,4.31c1.66,2.44,4.39,3.67,8.19,3.67,3.62,0,6.35-1.23,8.2-3.67a14.39,14.39,0,0,0,2-4.31A41,41,0,0,0,1254.34,50Z"/><path class="cls-1" d="M1279.67,60c.29-.28.55-.3.8-.05a22.94,22.94,0,0,0,16.61,6.76,15,15,0,0,0,7.34-1.65,6.08,6.08,0,0,0,2-2,5,5,0,0,0,.72-2.66c0-2.8-2-4.37-6.07-4.69l-9.58-.9a23.51,23.51,0,0,1-6.28-1.44,16.87,16.87,0,0,1-5.22-3.14q-4.58-4-4.57-11.33,0-8.52,6-12.94t14.69-4.31a38.54,38.54,0,0,1,6.68.54,32.62,32.62,0,0,1,5.69,1.49,27.33,27.33,0,0,1,4.9,2.34,39.27,39.27,0,0,1,4.34,3.08.52.52,0,0,1,.21.43.75.75,0,0,1-.16.48L1311.07,38a.65.65,0,0,1-.85.1,34.56,34.56,0,0,0-6.49-3.48,20,20,0,0,0-7.61-1.36q-4.95,0-6.81,1.7a5.38,5.38,0,0,0-1.81,4.15,4,4,0,0,0,1.33,2.88q1.28,1.28,5.21,1.59l4.5.32,4.44.32a21.86,21.86,0,0,1,7.38,1.68,13,13,0,0,1,5.08,3.75,17.74,17.74,0,0,1,3.78,11.34,14.55,14.55,0,0,1-6.76,12.82,26.12,26.12,0,0,1-7.37,3.3,32.86,32.86,0,0,1-8.86,1.12q-13.63,0-24.17-9.79a.6.6,0,0,1,0-1Z"/><path class="cls-1" d="M1373,54a.57.57,0,0,1-.64.64h-32.94q.15,5.85,3.35,8.88a12.7,12.7,0,0,0,8.89,3.2,15.69,15.69,0,0,0,11.39-5,.49.49,0,0,1,.37-.18.68.68,0,0,1,.48.13l7.87,6.71a.48.48,0,0,1,.22.42.81.81,0,0,1-.16.48,24.08,24.08,0,0,1-9.29,6.84,28,28,0,0,1-27.17-3.43q-8.08-5.53-8.09-22.57,0-16.07,7.4-22.24,7.56-6.18,15.49-6.18a22.7,22.7,0,0,1,16,6.34q6.87,6.37,6.87,17Zm-12.14-9.53q-.36-5.54-3.29-8.41a10.17,10.17,0,0,0-7.4-2.87,10.28,10.28,0,0,0-7.61,3,9.68,9.68,0,0,0-2.19,3.51,16.29,16.29,0,0,0-.95,4.79Z"/><path class="cls-1" d="M1385,77.54c-.39,0-.59-.21-.59-.64v-54c0-.43.2-.64.59-.64h10.91c.39,0,.58.21.58.64V27.3q5.12-5.58,13.63-5.59A18.81,18.81,0,0,1,1421.77,26a.61.61,0,0,1,.24.43.69.69,0,0,1-.13.48l-7.83,9.36a.53.53,0,0,1-.85.11,11.47,11.47,0,0,0-6.81-2.55,10.49,10.49,0,0,0-6.86,2.55c-2,1.7-3,4.42-3,8.14V76.9c0,.43-.19.64-.58.64Z"/><path class="cls-1" d="M1454,77.59a.56.56,0,0,1-.64-.63V31.88h-4.79a.56.56,0,0,1-.63-.64v-8.3a.56.56,0,0,1,.63-.64h4.79V14.21l11-11.76a.62.62,0,0,1,.72-.16.58.58,0,0,1,.4.58V22.3h7.24a.57.57,0,0,1,.64.64v8.3a.57.57,0,0,1-.64.64h-7.24V77a.56.56,0,0,1-.64.63Z"/><path class="cls-1" d="M1480.53,49.87q0-8.68,1.43-13.15a20.6,20.6,0,0,1,4.58-7.93,27.33,27.33,0,0,1,6.28-4.74q4-2.34,10.59-2.34t10.49,2.34a36.63,36.63,0,0,1,3.64,2.35,22,22,0,0,1,2.74,2.39,21.39,21.39,0,0,1,4.58,7.93q1.38,4.58,1.38,13.15,0,8.84-1.38,13.3a22.47,22.47,0,0,1-4.58,7.93A27.09,27.09,0,0,1,1513.9,76a21.54,21.54,0,0,1-10.49,2.23A22,22,0,0,1,1492.82,76a30.53,30.53,0,0,1-3.43-2.35,32.14,32.14,0,0,1-2.85-2.5,20.66,20.66,0,0,1-4.58-7.93Q1480.54,58.8,1480.53,49.87Zm33.63.1a39.63,39.63,0,0,0-.58-8.09,12.73,12.73,0,0,0-2-4.36,9.17,9.17,0,0,0-3.44-2.77,11.08,11.08,0,0,0-4.76-1q-5.64,0-8.19,3.72a15.76,15.76,0,0,0-1.26,2.1,10.55,10.55,0,0,0-.77,2.26,41,41,0,0,0-.53,8c0,1.91,0,3.56.13,5a24.74,24.74,0,0,0,.4,3.3,10.71,10.71,0,0,0,2,4.31c1.66,2.44,4.39,3.67,8.19,3.67,3.62,0,6.35-1.23,8.2-3.67a14.39,14.39,0,0,0,2-4.31A41,41,0,0,0,1514.16,50Z"/><path class="cls-1" d="M1564.61,12.67A.56.56,0,0,1,1564,12V1.17a.56.56,0,0,1,.63-.64h10.86c.39,0,.59.21.59.64V12c0,.42-.2.64-.59.64Zm0,64.87a.56.56,0,0,1-.63-.64v-54a.56.56,0,0,1,.63-.64h10.86c.39,0,.59.21.59.64v54c0,.43-.2.64-.59.64Z"/><path class="cls-1" d="M1591.06,77.59a.56.56,0,0,1-.63-.63V31.88h-4.79a.56.56,0,0,1-.64-.64v-8.3a.56.56,0,0,1,.64-.64h4.79V14.21l11-11.76a.62.62,0,0,1,.72-.16.58.58,0,0,1,.4.58V22.3h7.24a.57.57,0,0,1,.64.64v8.3a.57.57,0,0,1-.64.64h-7.24V77a.56.56,0,0,1-.64.63Z"/><path class="cls-1" d="M1621,77.54a.56.56,0,0,1-.64-.64V66.1a.56.56,0,0,1,.64-.64h10.85c.39,0,.59.21.59.64V76.9c0,.43-.2.64-.59.64Z"/></g></g></svg>