<svg xmlns="http://www.w3.org/2000/svg" viewBox="0 0 781.8 100"><defs><style>.cls-1{fill:#fff;}</style></defs><title>アセット 67</title><g id="レイヤー_2" data-name="レイヤー 2"><g id="レイヤー_1-2" data-name="レイヤー 1"><path class="cls-1" d="M.63,77.51a.57.57,0,0,1-.53-.26A.68.68,0,0,1,0,76.66L27.9.43A.5.5,0,0,1,28.43,0H38a.58.58,0,0,1,.34.13.56.56,0,0,1,.24.3L66.34,76.66a.68.68,0,0,1-.06.59.51.51,0,0,1-.47.26H53.63a.5.5,0,0,1-.53-.42l-5.74-16.8H19.29q-1.5,4.31-2.95,8.42t-2.95,8.38a.7.7,0,0,1-.24.29.61.61,0,0,1-.35.13Zm42.9-28.65a6.56,6.56,0,0,0-.29-.8c-.13-.28-.22-.53-.3-.74Q42,44.71,41.3,42.5c-.5-1.47-.94-2.75-1.33-3.85l-.72-2.07c-.23-.68-.45-1.31-.66-1.92s-.36-1.11-.54-1.62-.35-1-.53-1.51c-.32-1-.64-2.06-1-3.09s-.68-2.09-1-3.19c-.18-.49-.36-1-.56-1.65s-.39-1.24-.61-1.91c-.1-.35-.18-.63-.24-.82s-.11-.39-.18-.59l-.24-.66c-.09-.25-.21-.6-.35-1.07-.39,1.17-.75,2.25-1.09,3.25s-.64,1.91-.93,2.76a5.89,5.89,0,0,0-.16.59,2.89,2.89,0,0,1-.16.53c-.17.6-.36,1.17-.56,1.7S30,28.44,29.87,29l-.53,1.65c-.18.53-.36,1.05-.54,1.54l-1.09,3.35c-.37,1.17-.79,2.4-1.25,3.67S25.52,41.83,25,43.3s-1.14,3.32-1.91,5.56Z"/><path class="cls-1" d="M75.69,12.76a.57.57,0,0,1-.64-.64V1.28a.57.57,0,0,1,.64-.64H86.54c.39,0,.58.21.58.64V12.12c0,.43-.19.64-.58.64Zm0,64.8a.56.56,0,0,1-.64-.63V23a.57.57,0,0,1,.64-.64H86.54c.39,0,.58.21.58.64V76.93c0,.42-.19.63-.58.63Z"/><path class="cls-1" d="M102.49,77.56a.56.56,0,0,1-.64-.63V23a.56.56,0,0,1,.64-.64h10.84A.56.56,0,0,1,114,23v4.31q5.1-5.53,13.61-5.53a17.94,17.94,0,0,1,9.25,2.12,33.45,33.45,0,0,1,3.08,2.1,25.88,25.88,0,0,1,2.82,2.53q6.54-6.75,17.07-6.75c4.28,0,8.47,1.63,12.54,4.89s6.06,8.1,6.06,14.4V76.93a.56.56,0,0,1-.63.63H166.92a.56.56,0,0,1-.64-.63V44.82c0-3.51-.94-6.21-2.82-8.08a9.7,9.7,0,0,0-7.17-2.88A9.92,9.92,0,0,0,149,36.74c-1.88,1.87-2.82,4.57-2.82,8.08V76.93c0,.42-.19.63-.58.63H134.7c-.39,0-.58-.21-.58-.63V44.82q0-5.22-2.87-8.08a9.74,9.74,0,0,0-7.18-2.88,9.93,9.93,0,0,0-7.34,2.88Q114,39.5,114,44.82V76.93a.56.56,0,0,1-.64.63Z"/><path class="cls-1" d="M222.05,77.56a.56.56,0,0,1-.64-.63V32h-4.84c-.39,0-.58-.21-.58-.64V23c0-.43.19-.64.58-.64h4.84V15.9a18.52,18.52,0,0,1,1.14-6.76,12.5,12.5,0,0,1,3.22-4.78A16.47,16.47,0,0,1,236.67.64h7a.56.56,0,0,1,.63.64V11.43a.56.56,0,0,1-.63.64h-6.12c-2.73,0-4.09,1.27-4.09,3.83v6.48h10.21a.56.56,0,0,1,.63.64v8.29a.56.56,0,0,1-.63.64H233.48v45a.56.56,0,0,1-.64.63Z"/><path class="cls-1" d="M247.41,49.92q0-8.67,1.43-13.13a20.49,20.49,0,0,1,4.58-7.92,27,27,0,0,1,6.27-4.73q4-2.34,10.58-2.34t10.47,2.34a33.9,33.9,0,0,1,3.64,2.34,19.49,19.49,0,0,1,7.31,10.31q1.38,4.58,1.39,13.13,0,8.82-1.39,13.29a22.4,22.4,0,0,1-4.57,7.92A27.07,27.07,0,0,1,280.74,76q-4,2.23-10.47,2.23T259.69,76a32.25,32.25,0,0,1-6.27-4.84,20.5,20.5,0,0,1-4.58-7.92C247.89,60.31,247.41,55.87,247.41,49.92ZM281,50a39.2,39.2,0,0,0-.59-8.08,12.62,12.62,0,0,0-2-4.36A9.21,9.21,0,0,0,275,34.82a11.11,11.11,0,0,0-4.76-1c-3.76,0-6.49,1.25-8.19,3.73a15.65,15.65,0,0,0-1.25,2.1,10.36,10.36,0,0,0-.77,2.26,40.76,40.76,0,0,0-.53,8c0,1.91,0,3.56.13,4.94a22.8,22.8,0,0,0,.4,3.3,10.69,10.69,0,0,0,2,4.31c1.67,2.44,4.4,3.67,8.19,3.67,3.61,0,6.34-1.23,8.19-3.67a14.36,14.36,0,0,0,2-4.31A40.66,40.66,0,0,0,281,50Z"/><path class="cls-1" d="M305.09,77.56c-.39,0-.58-.21-.58-.63V23c0-.43.19-.64.58-.64H316c.39,0,.58.21.58.64v4.36q5.12-5.58,13.61-5.58a18.8,18.8,0,0,1,11.65,4.25.56.56,0,0,1,.23.43.62.62,0,0,1-.13.47l-7.81,9.36a.53.53,0,0,1-.85.11,11.53,11.53,0,0,0-6.81-2.56,10.52,10.52,0,0,0-6.86,2.56q-3,2.55-3,8.13V76.93c0,.42-.19.63-.58.63Z"/><path class="cls-1" d="M374,77.62a.57.57,0,0,1-.64-.64V32h-4.78a.56.56,0,0,1-.64-.64V23a.56.56,0,0,1,.64-.64h4.78V14.3l11-11.75a.63.63,0,0,1,.72-.16.59.59,0,0,1,.4.59v19.4h7.23a.56.56,0,0,1,.63.64v8.29a.56.56,0,0,1-.63.64h-7.23V77a.57.57,0,0,1-.64.64Z"/><path class="cls-1" d="M403.81,77.56a.56.56,0,0,1-.63-.63V1.28a.56.56,0,0,1,.63-.64h10.85a.57.57,0,0,1,.64.64v26.1q5.1-5.58,13.61-5.58A17.31,17.31,0,0,1,435.29,23a24.71,24.71,0,0,1,6.16,3.67q6.06,4.93,6.06,14.4V76.93a.56.56,0,0,1-.63.63H436a.56.56,0,0,1-.64-.63V44.82c0-3.51-.94-6.21-2.82-8.08a10.51,10.51,0,0,0-14.46,0c-1.87,1.87-2.81,4.57-2.81,8.08V76.93a.56.56,0,0,1-.64.63Z"/><path class="cls-1" d="M490.79,77.78a.57.57,0,0,1-.64-.64v-3A8.81,8.81,0,0,1,486.32,77,17.68,17.68,0,0,1,482.47,78a28.78,28.78,0,0,1-4.81.38q-9.15-.23-13.93-5v0a15.66,15.66,0,0,1-5.21-12.17A16.59,16.59,0,0,1,463,49.55q4.57-4.78,13.19-4.89h14v-5q.11-6.6-10.1-6.33a30.71,30.71,0,0,0-3.35.16A12.58,12.58,0,0,0,474,34H474a8.29,8.29,0,0,0-1.91,1.31,6.87,6.87,0,0,0-1.44,1.83c-.25.43-.57.48-1,.16l-8.29-6.54a.63.63,0,0,1-.26-.4.53.53,0,0,1,.1-.45q6.17-8.34,18.24-8.08a37.78,37.78,0,0,1,9,.9,22.29,22.29,0,0,1,7.13,3q6.17,4.37,6.22,14.41v37a.57.57,0,0,1-.64.64Zm-.64-22.92h-12q-8.55.27-8.5,5.91A5.47,5.47,0,0,0,471.81,65q2.24,2,7.12,2c4.36,0,7.37-.48,9-1.55h-.05q2.24-1.48,2.23-7.23Z"/><path class="cls-1" d="M515,77.62a.56.56,0,0,1-.64-.64V32h-4.78a.56.56,0,0,1-.64-.64V23a.56.56,0,0,1,.64-.64h4.78V14.3l11-11.75a.62.62,0,0,1,.71-.16.58.58,0,0,1,.4.59v19.4h7.23a.56.56,0,0,1,.64.64v8.29a.56.56,0,0,1-.64.64h-7.23V77a.56.56,0,0,1-.63.64Z"/><path class="cls-1" d="M570.16,1.28c0-.43.19-.64.58-.64h10.9c.39,0,.59.21.59.64V63q0,3.14,3.45,3.14h3.67a.56.56,0,0,1,.64.63V76.93a.56.56,0,0,1-.64.63h-4.78a17.22,17.22,0,0,1-10.21-3q-4.2-3.09-4.2-10.69Z"/><path class="cls-1" d="M599.13,12.76a.56.56,0,0,1-.63-.64V1.28a.56.56,0,0,1,.63-.64H610c.39,0,.58.21.58.64V12.12c0,.43-.19.64-.58.64Zm0,64.8a.56.56,0,0,1-.63-.63V23a.56.56,0,0,1,.63-.64H610c.39,0,.58.21.58.64V76.93c0,.42-.19.63-.58.63Z"/><path class="cls-1" d="M654.74,72.89a18.75,18.75,0,0,1-13.29,5.31,18.08,18.08,0,0,1-9.2-2.18A27.24,27.24,0,0,1,629,73.76a14.28,14.28,0,0,1-2.37-2.36,21.38,21.38,0,0,1-2-3.22,15.77,15.77,0,0,1-1.27-3.37q-.86-3.26-.86-14.78t.86-14.73a17.25,17.25,0,0,1,1.24-3.4,17.72,17.72,0,0,1,2-3.25,19.89,19.89,0,0,1,5.58-4.57,17,17,0,0,1,9.2-2.28,19,19,0,0,1,13.29,5.47V23c0-.43.2-.64.59-.64h10.89c.39,0,.59.21.59.64V75.7q0,12.39-7.28,18.4a25.81,25.81,0,0,1-16.7,5.9,22.65,22.65,0,0,1-10.42-2.55,28.87,28.87,0,0,1-8.82-6.7.63.63,0,0,1-.13-.48.41.41,0,0,1,.23-.37l8.46-6.7a.57.57,0,0,1,.74,0,18.94,18.94,0,0,0,4.52,3.3,11.88,11.88,0,0,0,5.64,1.38,12.23,12.23,0,0,0,8.4-2.82q3.28-2.86,3.29-8.19ZM634.65,50c0,2.09,0,3.85.05,5.29a28.72,28.72,0,0,0,.21,3.21,10.36,10.36,0,0,0,.61,2,6.66,6.66,0,0,0,1.09,1.72,7.88,7.88,0,0,0,1.25,1.39,9.77,9.77,0,0,0,4.07,2.15,10.78,10.78,0,0,0,2.82.35,10.14,10.14,0,0,0,6.78-2.5,10.38,10.38,0,0,0,1.3-1.39,9.66,9.66,0,0,0,1-1.78,8,8,0,0,0,.56-1.94,21.66,21.66,0,0,0,.29-3.19c.05-1.41.08-3.19.08-5.31s0-3.9-.08-5.32a21.66,21.66,0,0,0-.29-3.19,8.5,8.5,0,0,0-1.6-3.72h.06c-.39-.43-.84-.88-1.36-1.36a8.76,8.76,0,0,0-1.78-1.27,11.84,11.84,0,0,0-2.23-.93,9.24,9.24,0,0,0-2.71-.38,10,10,0,0,0-2.82.38,11.65,11.65,0,0,0-2.29.93,9.89,9.89,0,0,0-1.78,1.25,8.21,8.21,0,0,0-1.25,1.38,8.47,8.47,0,0,0-1.7,3.72,28.76,28.76,0,0,0-.21,3.22C634.66,46.17,634.65,47.94,634.65,50Z"/><path class="cls-1" d="M681.54,77.56a.56.56,0,0,1-.64-.63V1.28a.56.56,0,0,1,.64-.64h10.84a.56.56,0,0,1,.64.64v26.1q5.1-5.58,13.61-5.58A17.27,17.27,0,0,1,713,23a24.71,24.71,0,0,1,6.16,3.67q6.08,4.93,6.07,14.4V76.93a.56.56,0,0,1-.64.63H713.75a.56.56,0,0,1-.64-.63V44.82c0-3.51-.94-6.21-2.81-8.08a10.51,10.51,0,0,0-14.46,0C694,38.61,693,41.31,693,44.82V76.93a.56.56,0,0,1-.64.63Z"/><path class="cls-1" d="M740.44,77.62a.56.56,0,0,1-.64-.64V32H735a.56.56,0,0,1-.64-.64V23a.56.56,0,0,1,.64-.64h4.78V14.3l11-11.75a.62.62,0,0,1,.71-.16.58.58,0,0,1,.4.59v19.4h7.23a.56.56,0,0,1,.64.64v8.29a.56.56,0,0,1-.64.64h-7.23V77a.56.56,0,0,1-.63.64Z"/><path class="cls-1" d="M770.37,77.56a.56.56,0,0,1-.64-.63V66.14a.57.57,0,0,1,.64-.64h10.85c.39,0,.58.21.58.64V76.93c0,.42-.19.63-.58.63Z"/></g></g></svg>