<svg xmlns="http://www.w3.org/2000/svg" viewBox="0 0 100 100"><defs><style>.cls-1{fill:#fff;}.cls-2{fill:none;}</style></defs><title>アセット 63</title><g id="レイヤー_2" data-name="レイヤー 2"><g id="レイヤー_1-2" data-name="レイヤー 1"><path class="cls-1" d="M60,72.31c-4.35-1.66-6-6.4-6.17-11.06l-12.49.39c.24,10.67,5.85,18.89,14.47,22.06,10.12,3.63,20.31-.64,27.43-7.83l-8.85-8.3C71.81,70,66.51,74.76,60,72.31Z"/><path class="cls-1" d="M53.94,44.09l3.24,11.54c5.69-1.66,10-1.26,12.57-.39l-1.58,3.32,7.9,3.95,7.44-14C78.13,45.36,67.14,39.82,53.94,44.09Z"/><path class="cls-1" d="M68.17,38.79V26.7H46c.79-3,1.5-6.24,2.29-9.49L36.39,14.37c-2,8-2.61,10-3.24,12.33h-17V38.79H30.07L20.5,75.08l11.86,3.16L43,38.79Z"/><rect class="cls-2" width="100" height="100"/></g></g></svg>