<svg xmlns="http://www.w3.org/2000/svg" viewBox="0 0 264.35 267.27"><defs><style>.cls-1{fill:#f2a1a6;}.cls-2{fill:#9c9a92;}.cls-3{fill:#ddb514;}.cls-4{fill:#b1dddf;}</style></defs><title>motion1_bg_paws</title><g id="レイヤー_2" data-name="レイヤー 2"><g id="レイヤー_1-2" data-name="レイヤー 1"><path class="cls-1" d="M111.79,7.83a6.8,6.8,0,0,0-4,3.53c-.94,1.94-.8,3.92.23,4.37s2.92-1,4.11-.8,2.69,1.41,4.15.94.51-4.35-.51-5.93-2.18-2.5-4-2.11Z"/><path class="cls-1" d="M119.37,6.44c-.59-.53-1.64-.24-2.34.64a2,2,0,0,0-.19,2.56c.6.53,1.65.25,2.34-.63a2,2,0,0,0,.19-2.57Z"/><path class="cls-1" d="M110.52,7c1-.25,1.52-1.64,1.12-3.09s-1.5-2.41-2.48-2.14-1.46,1.64-1.08,3.08,1.45,2.4,2.44,2.15Z"/><path class="cls-1" d="M107.63,6.9c-.66-.9-1.73-1.21-2.32-.72a1.91,1.91,0,0,0,.09,2.51c.67.89,1.7,1.21,2.31.72a1.88,1.88,0,0,0-.08-2.51Z"/><path class="cls-1" d="M116.61,5c.34-1.46-.19-2.87-1.18-3.15s-2.07.68-2.4,2.12.15,2.85,1.12,3.14,2.09-.66,2.46-2.11Z"/><path class="cls-1" d="M161.89,119.62a6.78,6.78,0,0,0,5.17,1.16c2.13-.37,3.65-1.63,3.42-2.73s-2.52-1.79-3-2.88-.42-3-1.65-3.92-3.84,2.11-4.53,3.87-.77,3.23.63,4.5Z"/><path class="cls-1" d="M156.35,114.27c-.09.79.76,1.47,1.88,1.52s2.1-.54,2.19-1.33-.75-1.48-1.88-1.53-2.11.54-2.19,1.34Z"/><path class="cls-1" d="M162,121.14c-.78-.66-2.21-.28-3.16.89s-1.08,2.61-.3,3.26,2.19.23,3.14-.92,1.11-2.57.32-3.23Z"/><path class="cls-1" d="M163.56,123.55c-.35,1,0,2.11.77,2.3s1.64-.47,2-1.53,0-2.09-.76-2.31-1.65.48-2,1.54Z"/><path class="cls-1" d="M156.75,117.37c-1.37.57-2.21,1.82-1.86,2.79s1.75,1.29,3.12.72,2.22-1.78,1.89-2.74-1.74-1.32-3.15-.77Z"/><path class="cls-1" d="M253,57.69a6.77,6.77,0,0,0,1.92,4.94c1.49,1.56,3.39,2.12,4.18,1.31s.07-3.08.69-4.12,2.25-2,2.32-3.56-3.89-2-5.74-1.6-3.1,1.16-3.37,3Z"/><path class="cls-1" d="M254.31,50.11c-.7.37-.8,1.45-.21,2.41a1.93,1.93,0,0,0,2.32,1.07c.71-.37.81-1.45.23-2.41s-1.63-1.45-2.34-1.07Z"/><path class="cls-1" d="M251.74,58.6c.11-1-1-2-2.5-2.13s-2.78.56-2.87,1.57,1,2,2.51,2.09,2.76-.52,2.86-1.53Z"/><path class="cls-1" d="M250.64,61.27c-1.07.3-1.74,1.2-1.48,1.93a1.89,1.89,0,0,0,2.38.78c1.06-.31,1.73-1.16,1.49-1.91a1.89,1.89,0,0,0-2.39-.8Z"/><path class="cls-1" d="M252,52.18c-1.25-.83-2.76-.82-3.36,0s-.09,2.17,1.14,3,2.72.85,3.33,0,.12-2.19-1.11-3Z"/><path class="cls-1" d="M205.74,8.09a6.82,6.82,0,0,0-4.54,2.74c-1.28,1.74-1.51,3.7-.58,4.34s3-.45,4.18,0,2.39,1.88,3.91,1.69,1.31-4.18.59-5.93S207.63,8,205.74,8.09Z"/><path class="cls-1" d="M213.44,8.12c-.48-.63-1.56-.53-2.41.21a1.93,1.93,0,0,0-.66,2.47c.48.63,1.56.55,2.41-.19a2,2,0,0,0,.66-2.49Z"/><path class="cls-1" d="M204.64,7c1-.07,1.8-1.33,1.67-2.83s-1-2.64-2-2.56S202.53,3,202.64,4.48s1,2.63,2,2.56Z"/><path class="cls-1" d="M201.81,6.41c-.47-1-1.48-1.51-2.15-1.13a1.9,1.9,0,0,0-.36,2.47c.48,1,1.44,1.51,2.14,1.15a1.89,1.89,0,0,0,.37-2.49Z"/><path class="cls-1" d="M211,6.17c.6-1.37.34-2.86-.58-3.31s-2.16.28-2.76,1.64-.37,2.82.53,3.29,2.18-.26,2.81-1.62Z"/><path class="cls-1" d="M100,175.79a6.81,6.81,0,0,0-4.66,2.53c-1.36,1.67-1.68,3.62-.78,4.3s3.07-.31,4.18.17,2.29,2,3.82,1.87,1.5-4.11.87-5.89-1.54-2.94-3.43-3Z"/><path class="cls-1" d="M107.66,176.18c-.45-.65-1.54-.61-2.42.09a1.94,1.94,0,0,0-.77,2.44c.45.66,1.54.62,2.42-.07a2,2,0,0,0,.77-2.46Z"/><path class="cls-1" d="M98.92,174.69c1,0,1.86-1.25,1.8-2.75s-.9-2.68-1.92-2.65S97,170.55,97,172s.86,2.67,1.88,2.65Z"/><path class="cls-1" d="M96.13,173.93c-.43-1-1.41-1.58-2.1-1.23a1.9,1.9,0,0,0-.48,2.45c.44,1,1.37,1.58,2.08,1.25a1.89,1.89,0,0,0,.5-2.47Z"/><path class="cls-1" d="M105.32,174.11c.66-1.33.47-2.83-.43-3.33s-2.17.18-2.83,1.51-.5,2.8.38,3.31,2.18-.15,2.88-1.49Z"/><path class="cls-1" d="M8.24,260a6.82,6.82,0,0,0,2.2-4.82c.08-2.16-.85-3.91-2-3.9S6.2,253.33,5,253.61s-3-.2-4.18.82,1.28,4.18,2.86,5.22,3,1.42,4.53.31Z"/><path class="cls-1" d="M1.86,264.29c.76.24,1.6-.45,1.88-1.54a1.93,1.93,0,0,0-.85-2.41c-.76-.25-1.61.43-1.89,1.52a2,2,0,0,0,.86,2.43Z"/><path class="cls-1" d="M9.74,260.21c-.81.63-.73,2.11.22,3.28s2.34,1.6,3.13,1,.68-2.09-.25-3.25-2.3-1.62-3.1-1Z"/><path class="cls-1" d="M12.43,259.14c1,.55,2.07.41,2.41-.28a1.89,1.89,0,0,0-1.1-2.25c-1-.55-2-.44-2.4.26s.12,1.71,1.09,2.27Z"/><path class="cls-1" d="M5,264.52c.28,1.47,1.33,2.55,2.35,2.4S9,265.48,8.68,264s-1.29-2.55-2.3-2.42S4.73,263,5,264.52Z"/><path class="cls-1" d="M7.82,132.35a6.77,6.77,0,0,0-4.29,3.11c-1.12,1.84-1.19,3.82-.2,4.37s3-.71,4.16-.38,2.54,1.67,4,1.35,1-4.28.08-6-1.91-2.7-3.79-2.49Z"/><path class="cls-1" d="M15.5,131.72c-.54-.59-1.61-.4-2.39.41a2,2,0,0,0-.45,2.52c.54.58,1.61.41,2.4-.4a2,2,0,0,0,.44-2.53Z"/><path class="cls-1" d="M6.64,131.39c1-.15,1.67-1.48,1.42-3s-1.25-2.55-2.25-2.38-1.62,1.49-1.38,3,1.2,2.53,2.21,2.38Z"/><path class="cls-1" d="M3.77,131c-.56-1-1.6-1.37-2.24-.94a1.9,1.9,0,0,0-.15,2.5c.57.95,1.56,1.38,2.22.95A1.89,1.89,0,0,0,3.77,131Z"/><path class="cls-1" d="M12.9,130c.48-1.42.1-2.87-.86-3.25s-2.12.46-2.61,1.87-.13,2.84.81,3.23,2.15-.44,2.66-1.85Z"/><path class="cls-1" d="M46.36,105.09a6.77,6.77,0,0,0-2.25-4.79c-1.6-1.45-3.53-1.88-4.26-1s.14,3.08-.4,4.16-2.12,2.19-2.08,3.71,4,1.74,5.83,1.2,3-1.37,3.16-3.26Z"/><path class="cls-1" d="M45.54,112.76c.68-.42.7-1.51.05-2.43a1.94,1.94,0,0,0-2.39-.91c-.68.42-.71,1.5-.06,2.42a2,2,0,0,0,2.4.92Z"/><path class="cls-1" d="M47.52,104.11c0,1,1.15,1.92,2.65,2s2.73-.75,2.75-1.77-1.16-1.87-2.64-1.91-2.72.71-2.76,1.73Z"/><path class="cls-1" d="M48.44,101.36c1.05-.37,1.65-1.31,1.35-2a1.91,1.91,0,0,0-2.43-.62c-1,.38-1.65,1.28-1.35,2a1.88,1.88,0,0,0,2.43.63Z"/><path class="cls-1" d="M47.74,110.53c1.3.74,2.8.63,3.35-.24s-.06-2.18-1.35-2.91-2.77-.66-3.32.19,0,2.19,1.32,3Z"/><path class="cls-1" d="M254.66,152.12a6.73,6.73,0,0,0-4.92-2c-2.16,0-3.86,1-3.8,2.16s2.2,2.16,2.55,3.32-.05,3,1,4.12,4.12-1.48,5.08-3.11,1.26-3.07.07-4.54Z"/><path class="cls-1" d="M259.31,158.27c.21-.77-.52-1.57-1.63-1.8a2,2,0,0,0-2.37,1c-.2.77.52,1.58,1.62,1.81a2,2,0,0,0,2.38-1Z"/><path class="cls-1" d="M254.84,150.61c.67.77,2.15.62,3.26-.39s1.48-2.41.8-3.17-2.12-.57-3.23.41-1.5,2.38-.83,3.15Z"/><path class="cls-1" d="M253.63,148a1.73,1.73,0,0,0-.4-2.4,1.88,1.88,0,0,0-2.19,1.21c-.5,1-.33,2.06.38,2.39s1.71-.21,2.21-1.2Z"/><path class="cls-1" d="M259.39,155.14c1.45-.35,2.47-1.46,2.28-2.47s-1.53-1.54-3-1.2-2.47,1.42-2.29,2.42,1.52,1.57,3,1.25Z"/><path class="cls-1" d="M12.55,216.49a6.82,6.82,0,0,0-5-1.77c-2.15.12-3.82,1.19-3.71,2.32s2.28,2.06,2.67,3.21.07,3,1.18,4.08,4.06-1.64,5-3.31,1.15-3.11-.09-4.53Z"/><path class="cls-1" d="M17.42,222.45c.18-.77-.58-1.55-1.69-1.73a1.94,1.94,0,0,0-2.33,1.06c-.18.78.57,1.56,1.68,1.74a2,2,0,0,0,2.34-1.07Z"/><path class="cls-1" d="M12.66,215c.7.75,2.17.54,3.25-.51s1.38-2.47.68-3.2-2.15-.49-3.22.54S12,214.22,12.66,215Z"/><path class="cls-1" d="M11.35,212.39c.47-1,.23-2.1-.49-2.38s-1.69.28-2.14,1.29-.25,2.07.47,2.38,1.7-.28,2.16-1.29Z"/><path class="cls-1" d="M17.38,219.32c1.44-.4,2.42-1.55,2.18-2.55s-1.58-1.48-3-1.08-2.42,1.5-2.2,2.5,1.58,1.51,3,1.13Z"/><path class="cls-2" d="M152.76,167.91a6.78,6.78,0,0,0,.65,5.26c1.06,1.87,2.76,2.89,3.72,2.29s.83-3,1.69-3.82,2.69-1.41,3.13-2.88-3.28-2.9-5.17-3-3.29.36-4,2.11Z"/><path class="cls-2" d="M155.94,160.89c-.78.18-1.13,1.21-.81,2.28s1.22,1.8,2,1.62,1.14-1.21.82-2.29-1.23-1.8-2-1.61Z"/><path class="cls-2" d="M151.35,168.48c.36-1-.48-2.18-1.9-2.68s-2.83-.14-3.17.82.52,2.14,1.92,2.64,2.8.18,3.15-.78Z"/><path class="cls-2" d="M149.62,170.8c-1.11,0-2,.74-1.91,1.5s1,1.39,2.11,1.35,2-.7,1.92-1.49-1-1.39-2.12-1.36Z"/><path class="cls-2" d="M153.15,162.31c-1-1.1-2.46-1.47-3.25-.81s-.63,2.08.37,3.18,2.42,1.49,3.21.86.66-2.09-.33-3.23Z"/><path class="cls-2" d="M168,215a6.8,6.8,0,0,0,3.3,4.15c1.88,1.05,3.86,1,4.37,0s-.83-3-.55-4.14,1.55-2.61,1.17-4.09-4.31-.77-6,.17-2.62,2-2.33,3.89Z"/><path class="cls-2" d="M167.06,207.34c-.56.56-.33,1.62.51,2.37a2,2,0,0,0,2.54.34c.57-.57.35-1.63-.5-2.38a2,2,0,0,0-2.55-.33Z"/><path class="cls-2" d="M167.12,216.21c-.2-1-1.55-1.61-3-1.29s-2.49,1.35-2.28,2.35,1.56,1.55,3,1.25,2.49-1.31,2.29-2.31Z"/><path class="cls-2" d="M166.85,219.09c-.93.6-1.3,1.66-.84,2.28a1.89,1.89,0,0,0,2.5,0c.93-.61,1.32-1.62.86-2.26a1.89,1.89,0,0,0-2.52-.06Z"/><path class="cls-2" d="M165.44,210c-1.44-.42-2.88,0-3.21,1s.56,2.1,2,2.52,2.85,0,3.19-.94-.53-2.13-2-2.58Z"/><path class="cls-2" d="M13.83,177.11a6.83,6.83,0,0,0,5-1.86c1.58-1.47,2.16-3.36,1.36-4.15s-3.08-.12-4.11-.75-2-2.29-3.53-2.38-2.06,3.87-1.67,5.72,1.12,3.12,3,3.42Z"/><path class="cls-2" d="M6.27,175.66c.36.71,1.44.81,2.41.24a1.94,1.94,0,0,0,1.1-2.31c-.36-.71-1.44-.82-2.41-.26S5.9,175,6.27,175.66Z"/><path class="cls-2" d="M14.72,178.34c-1-.12-2,1-2.16,2.48s.52,2.78,1.53,2.89,2-1,2.12-2.48-.47-2.76-1.49-2.89Z"/><path class="cls-2" d="M17.38,179.48c.28,1.08,1.18,1.76,1.91,1.51a1.89,1.89,0,0,0,.81-2.36c-.29-1.07-1.14-1.76-1.89-1.52a1.89,1.89,0,0,0-.83,2.37Z"/><path class="cls-2" d="M8.3,178c-.84,1.23-.85,2.74,0,3.36s2.17.12,3-1.1.89-2.71.08-3.33S9.18,176.81,8.3,178Z"/><path class="cls-2" d="M207.62,179.55a6.79,6.79,0,0,0-5.27.49c-1.91,1-3,2.67-2.41,3.65s2.94.92,3.77,1.8,1.33,2.73,2.78,3.22,3-3.19,3.12-5.08-.26-3.3-2-4.08Z"/><path class="cls-2" d="M214.55,182.93c-.17-.78-1.18-1.16-2.27-.87s-1.83,1.16-1.67,1.94,1.17,1.18,2.26.88,1.84-1.17,1.68-1.95Z"/><path class="cls-2" d="M207.09,178.13c1,.38,2.2-.42,2.74-1.83s.22-2.82-.72-3.19-2.16.45-2.7,1.84-.26,2.79.68,3.18Z"/><path class="cls-2" d="M204.83,176.33c0-1.11-.68-2-1.45-2s-1.41,1-1.4,2.07.64,2,1.42,2,1.43-1,1.43-2.07Z"/><path class="cls-2" d="M213.2,180.11c1.14-1,1.55-2.42.92-3.23s-2.07-.69-3.2.27-1.56,2.38-.95,3.19,2.07.72,3.23-.23Z"/><path class="cls-2" d="M59.37,150.43a6.79,6.79,0,0,0-3.25,4.19c-.57,2.08-.08,4,1,4.25s2.69-1.52,3.9-1.52,2.9.89,4.25.17-.28-4.37-1.58-5.75-2.59-2.06-4.34-1.34Z"/><path class="cls-2" d="M66.58,147.69c-.68-.41-1.66.06-2.19,1.06a1.93,1.93,0,0,0,.28,2.54c.68.42,1.66,0,2.18-1a2,2,0,0,0-.27-2.56Z"/><path class="cls-2" d="M58,149.84c.93-.43,1.2-1.88.54-3.24s-1.91-2.09-2.82-1.65-1.15,1.88-.51,3.22,1.86,2.1,2.79,1.67Z"/><path class="cls-2" d="M55.11,150.27c-.81-.76-1.93-.87-2.42-.28a1.89,1.89,0,0,0,.55,2.44c.81.76,1.89.89,2.41.3a1.9,1.9,0,0,0-.54-2.46Z"/><path class="cls-2" d="M63.59,146.74c.07-1.49-.71-2.78-1.73-2.88s-1.91,1-2,2.52.66,2.77,1.68,2.88,1.93-1,2-2.52Z"/><path class="cls-2" d="M205.78,94a6.76,6.76,0,0,0,4.16-3.28c1.06-1.88,1-3.86,0-4.37s-3,.82-4.14.54-2.6-1.57-4.08-1.19-.79,4.31.14,6,2,2.63,3.89,2.35Z"/><path class="cls-2" d="M198.13,95c.56.56,1.62.33,2.37-.5a2,2,0,0,0,.35-2.54c-.56-.57-1.62-.35-2.38.49a2,2,0,0,0-.34,2.55Z"/><path class="cls-2" d="M207,95c-1,.19-1.62,1.54-1.31,3s1.35,2.5,2.35,2.29,1.56-1.55,1.26-3S208,94.75,207,95Z"/><path class="cls-2" d="M209.88,95.23c.6.93,1.66,1.31,2.27.85a1.89,1.89,0,0,0,.06-2.5c-.61-.93-1.62-1.32-2.26-.87a1.88,1.88,0,0,0-.07,2.52Z"/><path class="cls-2" d="M200.79,96.61c-.42,1.43,0,2.87,1,3.21s2.11-.55,2.53-2,0-2.85-.93-3.2-2.13.52-2.59,2Z"/><path class="cls-2" d="M253,11.1a6.8,6.8,0,0,0,4.06,3.4c2.06.64,4,.22,4.29-.87S260,10.9,260,9.69s1-2.87.32-4.25-4.38.13-5.8,1.38S252.38,9.33,253,11.1Z"/><path class="cls-2" d="M250.55,3.8c-.43.67,0,1.66,1,2.22a1.94,1.94,0,0,0,2.56-.18c.43-.66,0-1.66-1-2.22a2,2,0,0,0-2.57.18Z"/><path class="cls-2" d="M252.4,12.48c-.4-1-1.85-1.26-3.22-.65s-2.16,1.83-1.76,2.76,1.84,1.21,3.21.62,2.16-1.79,1.77-2.73Z"/><path class="cls-2" d="M252.72,15.36c-.79.77-.94,1.89-.37,2.4a1.89,1.89,0,0,0,2.46-.46c.79-.79,1-1.86.39-2.39a1.88,1.88,0,0,0-2.48.45Z"/><path class="cls-2" d="M249.5,6.75c-1.49-.12-2.81.61-2.94,1.63s1,1.95,2.45,2.07,2.79-.57,2.93-1.57-.95-2-2.44-2.13Z"/><path class="cls-2" d="M62.93,12.07a6.74,6.74,0,0,0,3.44-4c.67-2,.26-4-.82-4.29s-2.75,1.39-4,1.34-2.86-1-4.24-.37.08,4.38,1.31,5.81,2.49,2.19,4.27,1.54Z"/><path class="cls-2" d="M55.61,14.48c.66.45,1.66,0,2.23-1A2,2,0,0,0,57.69,11c-.67-.44-1.67,0-2.24.95a2,2,0,0,0,.16,2.56Z"/><path class="cls-2" d="M64.31,12.73c-1,.38-1.29,1.83-.69,3.21s1.81,2.18,2.74,1.78,1.23-1.82.65-3.19-1.76-2.19-2.7-1.8Z"/><path class="cls-2" d="M67.19,12.43c.77.8,1.88,1,2.4.4a1.91,1.91,0,0,0-.44-2.47c-.78-.79-1.85-1-2.39-.41a1.89,1.89,0,0,0,.43,2.48Z"/><path class="cls-2" d="M58.55,15.57c-.14,1.48.58,2.81,1.6,2.95s2-.95,2.09-2.42-.54-2.8-1.54-3-2,.93-2.15,2.43Z"/><path class="cls-2" d="M108,51.05a6.83,6.83,0,0,0,3.79-3.71c.84-2,.61-4-.44-4.35s-2.87,1.14-4.06,1-2.76-1.27-4.19-.74-.32,4.37.79,5.91,2.28,2.39,4.11,1.91Z"/><path class="cls-2" d="M100.53,52.8c.62.5,1.65.16,2.31-.76a1.94,1.94,0,0,0,.07-2.56c-.62-.5-1.65-.17-2.31.74a2,2,0,0,0-.07,2.58Z"/><path class="cls-2" d="M109.35,51.82c-1,.3-1.44,1.71-1,3.14s1.6,2.33,2.57,2,1.39-1.71.94-3.12-1.56-2.34-2.54-2Z"/><path class="cls-2" d="M112.25,51.79c.69.86,1.78,1.12,2.35.6a1.89,1.89,0,0,0-.22-2.49c-.7-.86-1.75-1.14-2.34-.62a1.88,1.88,0,0,0,.21,2.51Z"/><path class="cls-2" d="M103.36,54.14c-.27,1.47.33,2.85,1.33,3.08s2-.77,2.3-2.23-.28-2.83-1.27-3.07-2.06.75-2.36,2.22Z"/><path class="cls-2" d="M146.69,257.07a6.76,6.76,0,0,0-2.61-4.61c-1.7-1.33-3.66-1.62-4.32-.7s.37,3.06-.09,4.18-1.95,2.33-1.8,3.85,4.14,1.43,5.91.76,2.9-1.59,2.91-3.48Z"/><path class="cls-2" d="M146.44,264.77c.65-.47.58-1.55-.13-2.42a1.94,1.94,0,0,0-2.45-.73c-.65.47-.6,1.55.12,2.42a2,2,0,0,0,2.46.73Z"/><path class="cls-2" d="M147.77,256c0,1,1.28,1.83,2.78,1.75s2.67-1,2.62-2-1.29-1.78-2.78-1.71-2.66.91-2.62,1.93Z"/><path class="cls-2" d="M148.48,253.19c1-.44,1.55-1.43,1.2-2.11a1.91,1.91,0,0,0-2.47-.44c-1,.46-1.55,1.4-1.2,2.11a1.88,1.88,0,0,0,2.47.44Z"/><path class="cls-2" d="M148.47,262.39c1.35.63,2.84.41,3.32-.5s-.22-2.16-1.56-2.79-2.81-.46-3.3.43.19,2.18,1.54,2.86Z"/><path class="cls-3" d="M60.87,205.68a6.78,6.78,0,0,0-.82,5.24c.5,2.1,1.86,3.54,2.94,3.23s1.62-2.62,2.68-3.21,3-.62,3.8-1.9-2.35-3.7-4.15-4.27-3.27-.56-4.45.91Z"/><path class="cls-3" d="M65.86,199.81c-.8,0-1.42.85-1.4,2s.67,2.06,1.46,2.09,1.43-.84,1.42-2-.69-2.07-1.48-2.1Z"/><path class="cls-3" d="M59.36,205.85c.61-.83.14-2.24-1.09-3.1s-2.68-.92-3.27-.09-.1,2.2,1.11,3.07,2.64.94,3.25.12Z"/><path class="cls-3" d="M57.06,207.6c-1.07-.28-2.11.16-2.25.92s.58,1.61,1.66,1.87,2.08-.13,2.25-.9-.58-1.62-1.66-1.89Z"/><path class="cls-3" d="M62.79,200.41c-.66-1.33-2-2.09-2.91-1.68s-1.17,1.83-.52,3.16,1.92,2.11,2.86,1.72,1.2-1.83.57-3.2Z"/><path class="cls-3" d="M96,256.87a6.76,6.76,0,0,0,4.64-2.57c1.34-1.68,1.65-3.64.74-4.31s-3.07.34-4.18-.13-2.32-2-3.84-1.83-1.47,4.12-.81,5.9,1.56,2.92,3.45,2.94Z"/><path class="cls-3" d="M88.33,256.55c.46.65,1.55.6,2.43-.11a2,2,0,0,0,.75-2.45c-.46-.65-1.55-.61-2.42.1a2,2,0,0,0-.76,2.46Z"/><path class="cls-3" d="M97.09,258c-1,0-1.84,1.27-1.77,2.77s.92,2.67,1.94,2.63,1.79-1.28,1.73-2.76-.88-2.67-1.9-2.64Z"/><path class="cls-3" d="M99.89,258.7c.44,1,1.42,1.56,2.11,1.21a1.89,1.89,0,0,0,.45-2.46c-.44-1-1.38-1.57-2.09-1.22a1.88,1.88,0,0,0-.47,2.47Z"/><path class="cls-3" d="M90.7,258.6c-.65,1.34-.45,2.83.46,3.32s2.16-.2,2.81-1.53.48-2.81-.4-3.31-2.19.18-2.87,1.52Z"/><path class="cls-3" d="M195.47,260.32a6.74,6.74,0,0,0,4,3.53c2,.7,4,.34,4.31-.74s-1.34-2.78-1.26-4,1.08-2.84.45-4.23-4.38,0-5.84,1.19-2.23,2.45-1.62,4.23Z"/><path class="cls-3" d="M193.21,253c-.46.65-.05,1.65.91,2.25a2,2,0,0,0,2.56-.11c.46-.65.06-1.66-.9-2.25a2,2,0,0,0-2.57.11Z"/><path class="cls-3" d="M194.79,261.69c-.37-1-1.81-1.32-3.2-.76s-2.22,1.77-1.84,2.71,1.8,1.26,3.18.72,2.22-1.72,1.86-2.67Z"/><path class="cls-3" d="M195,264.57c-.81.75-1,1.86-.44,2.39a1.89,1.89,0,0,0,2.47-.38c.81-.77,1-1.83.46-2.38a1.88,1.88,0,0,0-2.49.37Z"/><path class="cls-3" d="M192.06,255.87c-1.48-.17-2.82.52-3,1.54s.91,2,2.38,2.14,2.81-.48,3-1.48-.89-2-2.38-2.2Z"/><path class="cls-3" d="M206.89,51.17a6.82,6.82,0,0,0,5.3-.09c2-.86,3.16-2.45,2.67-3.47s-2.86-1.13-3.63-2.07-1.12-2.83-2.53-3.42-3.23,3-3.48,4.83,0,3.31,1.67,4.22Z"/><path class="cls-3" d="M200.24,47.27c.1.79,1.08,1.26,2.19,1s1.92-1,1.81-1.81-1.08-1.26-2.18-1-1.93,1-1.82,1.82Z"/><path class="cls-3" d="M207.31,52.63c-.92-.46-2.22.25-2.86,1.61s-.44,2.8.48,3.24,2.18-.29,2.82-1.63.48-2.77-.44-3.22Z"/><path class="cls-3" d="M209.44,54.59c-.09,1.11.52,2,1.29,2.06s1.48-.85,1.56-2-.49-2-1.28-2.06-1.49.85-1.57,2Z"/><path class="cls-3" d="M201.37,50.19c-1.21.88-1.73,2.3-1.16,3.16s2,.83,3.21,0,1.74-2.25,1.19-3.11-2-.87-3.24,0Z"/><path class="cls-3" d="M206.42,138.18a6.76,6.76,0,0,0-4.38-3c-2.11-.43-4,.18-4.18,1.3s1.68,2.57,1.77,3.78-.71,3,.1,4.25,4.34-.55,5.63-1.94,1.9-2.71,1.06-4.41Z"/><path class="cls-3" d="M209.62,145.2c.37-.71-.17-1.65-1.2-2.12a1.94,1.94,0,0,0-2.52.44c-.37.7.16,1.65,1.18,2.12a2,2,0,0,0,2.54-.44Z"/><path class="cls-3" d="M206.92,136.75c.49.9,2,1.07,3.27.33s2-2,1.47-2.93-1.95-1-3.25-.29-2,2-1.49,2.89Z"/><path class="cls-3" d="M206.31,133.91c.71-.85.76-2,.13-2.42a1.9,1.9,0,0,0-2.4.7c-.7.86-.77,1.94-.14,2.42a1.87,1.87,0,0,0,2.41-.7Z"/><path class="cls-3" d="M210.38,142.16c1.49,0,2.73-.88,2.76-1.91s-1.16-1.84-2.64-1.82-2.73.84-2.77,1.86,1.14,1.86,2.65,1.87Z"/><path class="cls-3" d="M8.68,88a6.77,6.77,0,0,0,.92-5.22c-.46-2.11-1.79-3.57-2.89-3.29S5.05,82.1,4,82.67,1,83.23.14,84.5s2.29,3.74,4.08,4.34,3.25.62,4.46-.83Z"/><path class="cls-3" d="M3.59,93.79c.79,0,1.44-.83,1.44-2s-.64-2.08-1.43-2.12-1.45.82-1.45,1.94.64,2.08,1.44,2.13Z"/><path class="cls-3" d="M10.19,87.87c-.62.82-.17,2.23,1,3.12s2.66,1,3.27.15.13-2.2-1.06-3.09-2.62-1-3.25-.18Z"/><path class="cls-3" d="M12.53,86.16c1.07.3,2.11-.12,2.27-.88s-.55-1.61-1.63-1.9-2.09.09-2.27.86.56,1.63,1.63,1.92Z"/><path class="cls-3" d="M6.67,93.24C7.3,94.59,8.6,95.37,9.55,95s1.2-1.81.57-3.16S8.24,89.69,7.3,90.06s-1.24,1.81-.63,3.18Z"/><path class="cls-3" d="M158.1,11.79a6.78,6.78,0,0,0-1.66,5c.15,2.15,1.26,3.8,2.38,3.67s2-2.33,3.16-2.74,3-.13,4.06-1.26-1.72-4-3.41-4.88-3.13-1.09-4.53.18Z"/><path class="cls-3" d="M164,6.8c-.78-.17-1.54.61-1.7,1.72s.33,2.15,1.11,2.31,1.54-.6,1.71-1.72S164.75,7,164,6.8Z"/><path class="cls-3" d="M156.58,11.71c.74-.72.5-2.18-.58-3.24s-2.49-1.33-3.21-.61-.45,2.15.6,3.2,2.46,1.36,3.19.65Z"/><path class="cls-3" d="M154,13.07c-1-.45-2.1-.19-2.37.54s.32,1.68,1.34,2.11,2.08.21,2.37-.52S155,13.51,154,13.07Z"/><path class="cls-3" d="M160.84,6.9c-.43-1.43-1.6-2.38-2.59-2.13s-1.46,1.62-1,3,1.56,2.38,2.55,2.15,1.48-1.61,1.07-3.06Z"/><path class="cls-3" d="M52.09,254.5a6.77,6.77,0,0,0-3-4.39c-1.8-1.19-3.78-1.31-4.36-.35s.61,3,.24,4.18-1.75,2.48-1.48,4,4.25,1.09,5.95.28,2.77-1.82,2.62-3.7Z"/><path class="cls-3" d="M52.47,262.19c.6-.51.45-1.59-.33-2.4a2,2,0,0,0-2.51-.53c-.6.52-.46,1.6.32,2.41a2,2,0,0,0,2.52.52Z"/><path class="cls-3" d="M53.09,253.35c.12,1,1.42,1.72,2.91,1.51s2.58-1.16,2.45-2.17S57,251,55.54,251.21s-2.57,1.12-2.45,2.14Z"/><path class="cls-3" d="M53.57,250.49c1-.53,1.43-1.56,1-2.21a1.92,1.92,0,0,0-2.5-.23c-1,.54-1.43,1.52-1,2.19a1.89,1.89,0,0,0,2.51.25Z"/><path class="cls-3" d="M54.3,259.65c1.39.53,2.86.19,3.27-.75s-.4-2.14-1.78-2.67-2.84-.22-3.26.7.37,2.16,1.77,2.72Z"/><path class="cls-3" d="M83.87,99.13a6.78,6.78,0,0,0,2.55,4.65c1.68,1.35,3.64,1.66,4.31.75s-.33-3.06.15-4.17,2-2.31,1.84-3.84S88.6,95,86.83,95.69s-2.93,1.55-3,3.44Z"/><path class="cls-3" d="M84.22,91.43c-.65.46-.6,1.55.1,2.43a2,2,0,0,0,2.45.76c.65-.46.61-1.55-.09-2.43a2,2,0,0,0-2.46-.76Z"/><path class="cls-3" d="M82.77,100.18c0-1-1.25-1.85-2.75-1.78s-2.68.92-2.65,1.93,1.28,1.8,2.76,1.75,2.67-.87,2.64-1.9Z"/><path class="cls-3" d="M82,103c-1,.44-1.57,1.42-1.22,2.1a1.89,1.89,0,0,0,2.46.47c1-.44,1.57-1.38,1.23-2.09A1.89,1.89,0,0,0,82,103Z"/><path class="cls-3" d="M82.16,93.79c-1.34-.66-2.83-.46-3.33.45s.2,2.16,1.53,2.82,2.8.49,3.31-.4-.17-2.18-1.51-2.87Z"/><path class="cls-3" d="M219.2,224.62a6.76,6.76,0,0,0,1.18-5.17c-.36-2.12-1.62-3.65-2.72-3.42s-1.79,2.51-2.89,3-3,.42-3.92,1.65,2.1,3.84,3.86,4.53,3.22.78,4.49-.61Z"/><path class="cls-3" d="M213.84,230.15c.79.09,1.47-.76,1.53-1.88s-.53-2.11-1.33-2.19-1.48.74-1.54,1.87.54,2.11,1.34,2.2Z"/><path class="cls-3" d="M220.72,224.56c-.66.78-.28,2.22.89,3.16s2.61,1.1,3.25.31.24-2.19-.9-3.13-2.58-1.12-3.24-.34Z"/><path class="cls-3" d="M223.14,223c1.05.35,2.11,0,2.31-.76s-.47-1.64-1.53-2-2.09,0-2.31.74.47,1.66,1.53,2Z"/><path class="cls-3" d="M216.94,229.75c.57,1.38,1.82,2.22,2.79,1.87s1.29-1.74.73-3.12-1.78-2.23-2.74-1.9-1.32,1.75-.78,3.15Z"/><path class="cls-4" d="M113,137.08a6.78,6.78,0,0,0,5.26-.65c1.87-1.06,2.88-2.76,2.29-3.72s-3-.83-3.82-1.69-1.42-2.68-2.88-3.13-2.9,3.28-3,5.17.36,3.29,2.11,4Z"/><path class="cls-4" d="M106,133.91c.19.77,1.21,1.13,2.29.8s1.8-1.22,1.61-2-1.2-1.14-2.28-.81-1.8,1.22-1.62,2Z"/><path class="cls-4" d="M113.59,138.49c-1-.36-2.19.48-2.68,1.9s-.14,2.83.82,3.17,2.14-.51,2.64-1.91.18-2.8-.78-3.16Z"/><path class="cls-4" d="M115.91,140.22c0,1.11.73,2,1.5,1.91a1.89,1.89,0,0,0,1.34-2.11c0-1.11-.7-2-1.48-1.92s-1.4,1-1.36,2.12Z"/><path class="cls-4" d="M107.42,136.69c-1.1,1-1.47,2.47-.82,3.26s2.09.62,3.19-.37,1.49-2.43.86-3.22-2.09-.66-3.23.33Z"/><path class="cls-4" d="M252.92,103.47a6.84,6.84,0,0,0-4.64,2.57c-1.34,1.69-1.64,3.65-.73,4.32s3.06-.34,4.18.13,2.32,2,3.84,1.82,1.46-4.12.81-5.9-1.57-2.92-3.46-2.94Z"/><path class="cls-4" d="M260.62,103.78c-.46-.64-1.55-.59-2.42.12a1.93,1.93,0,0,0-.75,2.45c.46.64,1.54.6,2.42-.11a2,2,0,0,0,.75-2.46Z"/><path class="cls-4" d="M251.86,102.38c1,0,1.84-1.27,1.77-2.77s-.93-2.67-1.94-2.63-1.79,1.28-1.73,2.77.88,2.66,1.9,2.63Z"/><path class="cls-4" d="M249.06,101.65c-.44-1-1.42-1.56-2.11-1.21a1.89,1.89,0,0,0-.45,2.46c.45,1,1.38,1.56,2.09,1.22a1.88,1.88,0,0,0,.47-2.47Z"/><path class="cls-4" d="M258.25,101.74c.65-1.34.44-2.84-.46-3.33s-2.17.2-2.81,1.54-.48,2.81.41,3.3,2.18-.17,2.86-1.51Z"/><path class="cls-4" d="M251.74,256.79a6.82,6.82,0,0,0,2.07,4.88c1.54,1.51,3.46,2,4.21,1.17s0-3.08.57-4.14,2.19-2.1,2.22-3.63-3.95-1.88-5.79-1.41-3.06,1.25-3.28,3.13Z"/><path class="cls-4" d="M252.85,249.16c-.69.39-.75,1.48-.14,2.42s1.67,1.4,2.36,1,.76-1.47.15-2.41a2,2,0,0,0-2.37-1Z"/><path class="cls-4" d="M250.54,257.73c.08-1-1.06-2-2.56-2.05s-2.76.64-2.83,1.66,1.09,1.91,2.58,2,2.74-.6,2.81-1.62Z"/><path class="cls-4" d="M249.52,260.44c-1.06.33-1.7,1.25-1.42,2a1.89,1.89,0,0,0,2.4.7c1.05-.34,1.7-1.21,1.43-1.95a1.89,1.89,0,0,0-2.41-.72Z"/><path class="cls-4" d="M250.57,251.3c-1.27-.78-2.77-.73-3.36.12s0,2.17,1.24,3,2.74.77,3.33-.06.05-2.19-1.21-3Z"/><path class="cls-4" d="M118.55,215.6a6.76,6.76,0,0,0,5,1.84c2.16-.08,3.84-1.13,3.75-2.25s-2.25-2.1-2.62-3.26,0-3-1.12-4.1-4.09,1.58-5,3.24-1.19,3.09,0,4.53Z"/><path class="cls-4" d="M113.77,209.56c-.19.78.56,1.56,1.66,1.77a2,2,0,0,0,2.35-1c.19-.78-.55-1.57-1.66-1.77a2,2,0,0,0-2.35,1Z"/><path class="cls-4" d="M118.41,217.12c-.69-.76-2.16-.57-3.25.46s-1.42,2.45-.73,3.19,2.14.52,3.23-.49,1.44-2.41.75-3.16Z"/><path class="cls-4" d="M119.68,219.72c-.48,1-.25,2.1.46,2.39s1.69-.26,2.16-1.26.29-2.07-.44-2.39-1.7.26-2.18,1.26Z"/><path class="cls-4" d="M113.76,212.69c-1.44.39-2.44,1.52-2.22,2.52s1.56,1.51,3,1.13,2.44-1.47,2.24-2.46-1.56-1.54-3-1.19Z"/><path class="cls-4" d="M11.19,47.78a6.79,6.79,0,0,0,5.21-1c1.8-1.18,2.69-3,2-3.87s-3-.63-3.93-1.42-1.6-2.58-3.09-2.93S8.74,42,8.82,43.92s.58,3.26,2.37,3.86Z"/><path class="cls-4" d="M4,45.1c.24.76,1.29,1,2.34.64S8,44.41,7.78,43.65,6.5,42.59,5.44,43,3.73,44.34,4,45.1Z"/><path class="cls-4" d="M11.86,49.15c-1-.29-2.14.63-2.54,2.08s.06,2.83,1,3.11,2.09-.67,2.5-2.1,0-2.8-1-3.09Z"/><path class="cls-4" d="M14.3,50.71c.1,1.11.87,1.93,1.63,1.81a1.9,1.9,0,0,0,1.19-2.2c-.11-1.11-.83-1.92-1.61-1.81s-1.32,1.1-1.21,2.2Z"/><path class="cls-4" d="M5.59,47.78c-1,1.07-1.3,2.56-.59,3.3s2.12.48,3.15-.59,1.32-2.52.63-3.27-2.13-.51-3.19.56Z"/><path class="cls-4" d="M56.17,57a6.8,6.8,0,0,0,.77,5.24c1.11,1.86,2.83,2.83,3.78,2.21s.76-3,1.59-3.86,2.66-1.48,3.07-2.95S62,54.84,60.14,54.83s-3.28.44-4,2.2Z"/><path class="cls-4" d="M59.17,49.93c-.77.21-1.1,1.24-.74,2.31s1.25,1.77,2,1.57,1.12-1.24.76-2.31-1.27-1.77-2-1.57Z"/><path class="cls-4" d="M54.78,57.64c.33-1-.54-2.17-2-2.63s-2.83-.08-3.15.89.57,2.12,2,2.59,2.8.12,3.14-.85Z"/><path class="cls-4" d="M53.1,60c-1.11,0-2,.78-1.88,1.55s1,1.36,2.15,1.29,2-.75,1.88-1.53-1-1.37-2.15-1.31Z"/><path class="cls-4" d="M56.43,51.43c-1-1.08-2.5-1.41-3.28-.74s-.57,2.1.45,3.17,2.46,1.44,3.23.79.61-2.11-.4-3.22Z"/><path class="cls-4" d="M256.53,201.21a6.79,6.79,0,0,0-3.29,4.16c-.59,2.07-.12,4,1,4.26s2.7-1.49,3.91-1.49,2.89.92,4.25.21-.24-4.37-1.53-5.76-2.57-2.09-4.32-1.38Z"/><path class="cls-4" d="M263.76,198.54c-.68-.42-1.66,0-2.2,1a2,2,0,0,0,.25,2.55c.68.42,1.66,0,2.2-1a2,2,0,0,0-.25-2.56Z"/><path class="cls-4" d="M255.13,200.61c.94-.42,1.22-1.88.57-3.23s-1.89-2.12-2.81-1.69-1.16,1.87-.53,3.22,1.84,2.12,2.77,1.7Z"/><path class="cls-4" d="M252.26,201a1.73,1.73,0,0,0-2.41-.31,1.91,1.91,0,0,0,.53,2.45c.81.77,1.88.91,2.4.32a1.88,1.88,0,0,0-.52-2.46Z"/><path class="cls-4" d="M260.78,197.56c.09-1.49-.68-2.79-1.7-2.89s-1.92,1-2,2.5.64,2.77,1.65,2.89,1.95-1,2.06-2.5Z"/><path class="cls-4" d="M10.41,7.06a6.73,6.73,0,0,0-.72,5.25c.54,2.08,1.93,3.49,3,3.16s1.56-2.65,2.61-3.26,3-.68,3.76-2-2.43-3.65-4.24-4.18-3.28-.5-4.42,1Z"/><path class="cls-4" d="M15.26,1.07c-.79,0-1.4.89-1.36,2s.72,2.05,1.52,2.07,1.41-.88,1.37-2-.73-2.06-1.53-2.08Z"/><path class="cls-4" d="M8.9,7.25C9.49,6.41,9,5,7.74,4.18s-2.7-.86-3.27,0,0,2.21,1.18,3.05,2.66.89,3.25,0Z"/><path class="cls-4" d="M6.63,9.05c-1.08-.26-2.1.21-2.23,1S5,11.61,6.1,11.85s2.08-.17,2.23-.94S7.71,9.3,6.63,9.05Z"/><path class="cls-4" d="M12.21,1.75C11.52.42,10.2-.31,9.27.12S8.13,2,8.81,3.3s2,2.06,2.9,1.65,1.16-1.85.5-3.2Z"/><path class="cls-4" d="M129.19,89.69a6.74,6.74,0,0,0-4.81-2.21c-2.15-.09-3.91.82-3.91,2s2.08,2.27,2.37,3.45-.22,3,.79,4.18,4.2-1.26,5.24-2.84,1.43-3,.32-4.53Z"/><path class="cls-4" d="M133.5,96.09c.25-.76-.44-1.6-1.53-1.89a1.93,1.93,0,0,0-2.41.84c-.25.76.42,1.61,1.51,1.9a2,2,0,0,0,2.43-.85Z"/><path class="cls-4" d="M129.45,88.19c.63.81,2.11.74,3.28-.21s1.61-2.33,1-3.12-2.09-.69-3.25.24-1.63,2.29-1,3.09Z"/><path class="cls-4" d="M128.39,85.5a1.73,1.73,0,0,0-.28-2.42,1.91,1.91,0,0,0-2.25,1.09c-.55,1-.44,2,.25,2.41s1.72-.12,2.28-1.08Z"/><path class="cls-4" d="M133.75,93c1.46-.28,2.55-1.32,2.41-2.34s-1.45-1.63-2.91-1.36-2.54,1.27-2.42,2.28,1.43,1.66,2.92,1.42Z"/><path class="cls-4" d="M161,59.69a6.8,6.8,0,0,0-2.14,4.85c-.06,2.15.88,3.89,2,3.88s2.24-2.12,3.41-2.42,3,.17,4.17-.86S167.15,61,165.55,60s-3-1.38-4.53-.26Z"/><path class="cls-4" d="M167.35,55.29c-.76-.23-1.59.46-1.86,1.56a1.94,1.94,0,0,0,.88,2.4c.76.24,1.6-.45,1.87-1.54a2,2,0,0,0-.89-2.42Z"/><path class="cls-4" d="M159.52,59.46c.8-.65.71-2.12-.26-3.28s-2.35-1.57-3.13-.93-.66,2.11.28,3.25,2.31,1.6,3.11,1Z"/><path class="cls-4" d="M156.84,60.56a1.72,1.72,0,0,0-2.41.31,1.89,1.89,0,0,0,1.13,2.23c1,.54,2,.42,2.4-.29s-.14-1.71-1.12-2.25Z"/><path class="cls-4" d="M164.23,55.09c-.29-1.46-1.36-2.53-2.37-2.37s-1.61,1.46-1.32,2.92,1.31,2.53,2.32,2.39,1.64-1.46,1.37-2.94Z"/></g></g></svg>