<svg xmlns="http://www.w3.org/2000/svg" viewBox="0 0 450 250"><defs><style>.cls-1{fill:#fffff3;}.cls-2{fill:#f6e5b7;}.cls-3{fill:#c2a4c8;}.cls-4{fill:#e4e4e4;}.cls-5{fill:#d483ae;}.cls-6{fill:#e8bd4c;}.cls-7{fill:#979797;}</style></defs><title>アセット 30</title><g id="レイヤー_2" data-name="レイヤー 2"><g id="レイヤー_1-2" data-name="レイヤー 1"><polygon class="cls-1" points="0 0 0 250 277.25 250 450 150.26 450 0 0 0"/><polygon class="cls-1" points="450 250 450 191.83 349.25 250 450 250"/><polygon class="cls-2" points="450 150.26 277.25 250 349.25 250 450 191.83 450 150.26"/><path class="cls-3" d="M335.81,243.46a.73.73,0,0,1-.59.08.75.75,0,0,1-.47-.36l-4.27-7.4a.74.74,0,0,1-.08-.58.73.73,0,0,1,.36-.48l1-.58a3.52,3.52,0,0,1,3.11-.37,5.87,5.87,0,0,1,2.78,2.75,6,6,0,0,1,1,3.8A3.31,3.31,0,0,1,337,242.8Zm.4-2.59a.08.08,0,0,0,.13,0h0c.49-.32.21-1.37-.81-3.15s-1.77-2.48-2.29-2.22h0a.08.08,0,0,0,0,.12Z"/><path class="cls-3" d="M343.91,239a3.12,3.12,0,0,1-2.63.27,4.2,4.2,0,0,1-2.3-2.06,4.3,4.3,0,0,1-.65-3,2.75,2.75,0,0,1,1.34-2A2.3,2.3,0,0,1,342,232,4.56,4.56,0,0,1,343.9,234l.14.24a.72.72,0,0,1,0,.61.82.82,0,0,1-.4.48l-2.25,1.3c-.05,0-.05.07,0,.13.6.71,1.23.89,1.86.52a2.13,2.13,0,0,0,.33-.23.88.88,0,0,1,.24-.19,1.13,1.13,0,0,1,.32-.13.75.75,0,0,1,.57.09l.06,0a.73.73,0,0,1,.31.29,1.19,1.19,0,0,1,.08.2.66.66,0,0,1-.1.58A3.89,3.89,0,0,1,343.91,239Zm-3.43-3.77q0,.08.12,0l1.18-.69a.09.09,0,0,0,0-.14c-.43-.69-.83-.93-1.21-.71a.69.69,0,0,0-.33.55A1.48,1.48,0,0,0,340.48,235.2Z"/><path class="cls-3" d="M349.21,235.94a4.25,4.25,0,0,1-2.24.54.65.65,0,0,1-.52-.25.76.76,0,0,1-.08-.11.73.73,0,0,1-.09-.48l0-.26a.74.74,0,0,1,.27-.52.51.51,0,0,1,.13-.09.78.78,0,0,1,.44-.11,2.26,2.26,0,0,0,1.21-.27c.45-.26.58-.56.37-.91a.4.4,0,0,0-.16-.18.72.72,0,0,0-.3-.08H348l-.45,0-.47.05-.74,0a4.23,4.23,0,0,1-.73-.1,2,2,0,0,1-.74-.32,2.05,2.05,0,0,1-.56-.64,2.19,2.19,0,0,1-.2-1.92,3.12,3.12,0,0,1,1.46-1.61,3.68,3.68,0,0,1,2-.52.65.65,0,0,1,.53.26.39.39,0,0,1,.08.1.7.7,0,0,1,.08.47l0,.24a.76.76,0,0,1-.3.52.38.38,0,0,1-.13.09.86.86,0,0,1-.43.12,1.63,1.63,0,0,0-.83.22c-.4.22-.5.5-.32.82a.55.55,0,0,0,.17.17.72.72,0,0,0,.29.08h.3a2.83,2.83,0,0,0,.44-.06l.47-.06a5,5,0,0,1,.72-.06,4.06,4.06,0,0,1,.73.08,1.94,1.94,0,0,1,.76.34,2.38,2.38,0,0,1,.79,2.65A3.35,3.35,0,0,1,349.21,235.94Z"/><path class="cls-3" d="M355.25,232.24a.72.72,0,0,1-.59.07.71.71,0,0,1-.47-.36l-2.47-4.28c0-.06-.08-.06-.14,0l-1,.57a.77.77,0,0,1-1.06-.28l-.17-.3a.76.76,0,0,1-.08-.59.78.78,0,0,1,.36-.47l2.51-1.45a.77.77,0,0,1,.59-.07.78.78,0,0,1,.47.36l3.08,5.33a.8.8,0,0,1,.08.59.79.79,0,0,1-.37.47Zm-3.43-8.57a1.4,1.4,0,0,1-.68.79,1.44,1.44,0,0,1-1,.2,1.12,1.12,0,0,1-.78-.58,1.14,1.14,0,0,1-.12-1,1.4,1.4,0,0,1,.68-.81,1.38,1.38,0,0,1,1-.18,1.23,1.23,0,0,1,.79.59A1.16,1.16,0,0,1,351.82,223.67Z"/><path class="cls-3" d="M362.14,231.72a4.43,4.43,0,0,1-1.22.5,2.13,2.13,0,0,1-1.15,0,1.47,1.47,0,0,1-.86-.71,1.69,1.69,0,0,1,0-1.71.06.06,0,0,0,0-.06s0,0-.06,0a1.5,1.5,0,0,1-1.17-.82,1.68,1.68,0,0,1-.21-.78,1.82,1.82,0,0,1,.18-.84.08.08,0,0,0,0,0l0,0a2.18,2.18,0,0,1-1.74-1.22,3.28,3.28,0,0,1-.42-1.19,2.22,2.22,0,0,1,.12-1,3,3,0,0,1,.51-.83,3.08,3.08,0,0,1,.78-.63,2.18,2.18,0,0,1,.72-.27.47.47,0,0,0,.19-.06l1.39-.8a.72.72,0,0,1,.59-.08.71.71,0,0,1,.47.36l.1.17a.77.77,0,0,1-.28,1.06l-.14.08a.11.11,0,0,0,0,.05.09.09,0,0,0,0,.06,2,2,0,0,1,.56.62,2.37,2.37,0,0,1,.32,1.94,2.41,2.41,0,0,1-1.14,1.38,1.88,1.88,0,0,1-.61.26.1.1,0,0,0-.08.13,1,1,0,0,0,.14.39.45.45,0,0,0,.37.26,1.46,1.46,0,0,0,.64-.24l.78-.45c1.35-.78,2.36-.59,3,.55a2.29,2.29,0,0,1,.11,2.13A4.07,4.07,0,0,1,362.14,231.72Zm-.53-1.41a1.1,1.1,0,0,0,.51-.54.62.62,0,0,0,0-.59c-.12-.19-.25-.29-.4-.29a1.52,1.52,0,0,0-.63.23l0,0a3.67,3.67,0,0,1-.7.33h0a.13.13,0,0,0-.06.11,1.35,1.35,0,0,0,.19.59.6.6,0,0,0,.49.32A1.25,1.25,0,0,0,361.61,230.31Zm-3.26-4.74a.39.39,0,0,0,.43.06.38.38,0,0,0,.17-.4,2.84,2.84,0,0,0-.37-.86c-.38-.65-.69-.9-.95-.75a.36.36,0,0,0-.18.39,2.6,2.6,0,0,0,.35.82A2.57,2.57,0,0,0,358.35,225.57Z"/><path class="cls-3" d="M365,226.62a.72.72,0,0,1-.59.07.71.71,0,0,1-.47-.36L360.84,221a.77.77,0,0,1,.29-1.06l.33-.19a.94.94,0,0,1,1.18.2l.05.06a0,0,0,0,0,.05,0s0,0,0,0a2.26,2.26,0,0,1,1.13-1.81c1-.58,2-.13,2.82,1.37l2.25,3.9a.78.78,0,0,1-.28,1.06l-.76.43a.72.72,0,0,1-.59.08.78.78,0,0,1-.47-.36l-2.14-3.72a1.3,1.3,0,0,0-.39-.48.34.34,0,0,0-.37,0c-.19.11-.26.35-.19.71a.67.67,0,0,0,.07.18l2.18,3.77a.81.81,0,0,1,.08.59.71.71,0,0,1-.36.47Z"/><path class="cls-3" d="M373.33,221.8a.76.76,0,0,1-.59.08.8.8,0,0,1-.48-.36L368,214.13a.75.75,0,0,1-.07-.59.74.74,0,0,1,.36-.47l1.41-.81q2.7-1.56,4,.61a2.59,2.59,0,0,1,.34,1.33,1.87,1.87,0,0,1-.5,1.27s0,0,0,0a.05.05,0,0,0,0,0,2.16,2.16,0,0,1,2.66,1.2,2.75,2.75,0,0,1,.34,2.35,3.35,3.35,0,0,1-1.6,1.79Zm-1.66-6.15c0,.06.08.07.14,0q.53-.34,0-1.32c-.35-.59-.7-.78-1.06-.57-.07,0-.08.08,0,.15Zm2.1,3.63a.09.09,0,0,0,.14,0h0c.53-.3.57-.83.14-1.58s-.87-.9-1.39-.59h0c-.06,0-.08.09,0,.15Z"/><path class="cls-3" d="M380.83,220.64l-.26.14a.67.67,0,0,1-.57,0,.81.81,0,0,1-.31-.3.75.75,0,0,1-.07-.18l-.09-.31a.61.61,0,0,1,0-.13.57.57,0,0,1,0-.13c0-.05,0-.09,0-.12a.31.31,0,0,1,.05-.12l.07-.12a.49.49,0,0,1,.08-.12l.08-.11.09-.11.09-.11a.73.73,0,0,0,.07-.74l-.06-.25a.57.57,0,0,0-.11-.16L374.76,213a.43.43,0,0,1-.13-.14.6.6,0,0,1,.22-.78l.73-.42a.88.88,0,0,1,.63-.12.84.84,0,0,1,.55.32l1.62,1.89c.57.67,1.06,1.27,1.47,1.79,0,0,0,0,0,0s0,0,0,0c-.25-.66-.53-1.38-.85-2.15l-.92-2.28a.91.91,0,0,1,0-.63.84.84,0,0,1,.4-.49l.66-.38a.55.55,0,0,1,.53,0,.62.62,0,0,1,.3.25,1,1,0,0,1,.06.14l2,6.91a4.48,4.48,0,0,1,.05,2.32A2.55,2.55,0,0,1,380.83,220.64Z"/><path class="cls-3" d="M392.52,210.58a.86.86,0,0,1-.61.1,1,1,0,0,1-.54-.34l-.88-1.16a.09.09,0,0,0-.14,0l-1.17.67a.1.1,0,0,0-.05.14l.57,1.34a.88.88,0,0,1,0,.62.84.84,0,0,1-.39.49l-.64.37a.62.62,0,0,1-.55,0,.61.61,0,0,1-.34-.27l-.05-.11-3-8.13a.86.86,0,0,1,0-.63.9.9,0,0,1,.4-.48l1.55-.9a.91.91,0,0,1,.63-.1.83.83,0,0,1,.54.31l5.52,6.69a.36.36,0,0,1,.07.1.58.58,0,0,1,.07.43.62.62,0,0,1-.32.45Zm-4.2-2.52c0,.07.07.08.12.05l.77-.44a.07.07,0,0,0,0-.13l-.46-.62c-.24-.3-.61-.78-1.09-1.42s-.76-1-.87-1.16h0s0,0,0,0c.27.61.69,1.61,1.25,3Z"/><path class="cls-3" d="M394.57,209.39a.69.69,0,0,1-.58.07.75.75,0,0,1-.48-.35l-3.08-5.34a.73.73,0,0,1-.07-.58.8.8,0,0,1,.36-.48h0a.88.88,0,0,1,.63-.11.93.93,0,0,1,.55.31l.13.14a0,0,0,0,0,0,0s0,0,0-.05a1.26,1.26,0,0,1,.58-1.6.84.84,0,0,1,.71-.07,1.53,1.53,0,0,1,.73.56h0v0a1.43,1.43,0,0,1-.06-.91,1.11,1.11,0,0,1,.52-.68,1.06,1.06,0,0,1,1.1,0,2.85,2.85,0,0,1,1.06,1.15l2.51,4.34a.75.75,0,0,1,.07.59.72.72,0,0,1-.36.47l-.36.21a.77.77,0,0,1-1.06-.28l-2.3-4c-.16-.27-.31-.37-.46-.28s-.17.32,0,.64l2.25,3.9a.8.8,0,0,1,.08.59.79.79,0,0,1-.37.47.72.72,0,0,1-.59.08.78.78,0,0,1-.47-.36l-2.29-4q-.24-.41-.48-.27c-.17.09-.16.31,0,.63l2.25,3.9a.77.77,0,0,1-.28,1.06Z"/><path class="cls-3" d="M401.73,205.44a1.7,1.7,0,0,1-1.5.18,2.35,2.35,0,0,1-1.22-1.13q-1.17-2,1.47-4.22s0-.08,0-.13a1.06,1.06,0,0,0-.59-.46.71.71,0,0,0-.59.07,2.29,2.29,0,0,0-.69.65.85.85,0,0,1-.26.24.8.8,0,0,1-.83,0l-.2-.13a.7.7,0,0,1-.27-.27A2.2,2.2,0,0,1,397,200a.69.69,0,0,1,.11-.57,5.5,5.5,0,0,1,1.71-1.6,2.58,2.58,0,0,1,2.13-.29,3.46,3.46,0,0,1,1.87,1.72l1.93,3.34a.77.77,0,0,1-.29,1.06l-.35.2a.88.88,0,0,1-.61.11,1,1,0,0,1-.56-.28l0,0s0,0-.05,0l0,0A2.13,2.13,0,0,1,401.73,205.44Zm-.16-2a.66.66,0,0,0,.25-.29,1.3,1.3,0,0,0,.11-.43.41.41,0,0,0-.05-.18l-.57-1a.05.05,0,0,0-.05,0h-.06a1.67,1.67,0,0,0-.51.83,1.08,1.08,0,0,0,.17.77C401.07,203.48,401.3,203.58,401.57,203.42Z"/><path class="cls-3" d="M406.62,202.44a.72.72,0,0,1-.59.07.69.69,0,0,1-.47-.36l-3.08-5.33a.76.76,0,0,1-.08-.59.74.74,0,0,1,.36-.47l.33-.19a.88.88,0,0,1,.63-.11.9.9,0,0,1,.55.31l.05.06h.05s0,0,0,0a2.28,2.28,0,0,1,1.13-1.81c1-.58,2-.13,2.83,1.37l2.25,3.89a.81.81,0,0,1,.08.59.78.78,0,0,1-.37.48l-.75.43a.77.77,0,0,1-.59.08.75.75,0,0,1-.47-.36l-2.15-3.72a1.2,1.2,0,0,0-.38-.48.34.34,0,0,0-.37,0c-.2.11-.26.35-.2.71a.71.71,0,0,0,.08.18l2.18,3.77a.8.8,0,0,1,.08.59.79.79,0,0,1-.37.47Z"/><path class="cls-3" d="M414.36,198.15a2.73,2.73,0,0,1-2.4.18,4.45,4.45,0,0,1-2.24-2.13,4.5,4.5,0,0,1-.73-3,2.77,2.77,0,0,1,3.76-2.17,5.51,5.51,0,0,1,3,5.15A2.72,2.72,0,0,1,414.36,198.15Zm-1-1.67c.34-.2.17-.9-.53-2.1s-1.22-1.72-1.56-1.53-.23.33-.14.67a6.37,6.37,0,0,0,.68,1.45,6.64,6.64,0,0,0,.91,1.31C413,196.52,413.21,196.58,413.39,196.48Z"/><path class="cls-3" d="M421.7,193.73a.82.82,0,0,1-.61.1.91.91,0,0,1-.55-.33l-.88-1.16a.1.1,0,0,0-.14,0l-1.17.68a.09.09,0,0,0,0,.13l.56,1.35a.88.88,0,0,1,0,.62.81.81,0,0,1-.39.48l-.64.37a.63.63,0,0,1-.55.05.6.6,0,0,1-.34-.28.22.22,0,0,1-.05-.11l-3-8.12a.86.86,0,0,1,0-.63.94.94,0,0,1,.41-.49l1.55-.89a.88.88,0,0,1,.62-.11.87.87,0,0,1,.55.32l5.51,6.69a.73.73,0,0,1,.08.09.66.66,0,0,1,.06.44.61.61,0,0,1-.31.45Zm-4.2-2.51c0,.07.06.08.12.05l.76-.44c.06,0,.07-.08,0-.14l-.46-.61c-.25-.31-.61-.78-1.09-1.43L416,187.5s0,0,0,0,0,0,0,0c.27.61.69,1.61,1.25,3Z"/><path class="cls-3" d="M423.75,192.55a.75.75,0,0,1-.59.07.69.69,0,0,1-.47-.36l-3.08-5.33a.76.76,0,0,1-.08-.59.78.78,0,0,1,.36-.47h0a.93.93,0,0,1,.63-.11,1,1,0,0,1,.55.31l.13.14s0,0,0,0a.05.05,0,0,0,0,0,1.27,1.27,0,0,1,.57-1.61.84.84,0,0,1,.71-.07,1.55,1.55,0,0,1,.73.56h0s0,0,0,0a1.46,1.46,0,0,1-.06-.92,1.11,1.11,0,0,1,.53-.67,1,1,0,0,1,1.09,0,2.72,2.72,0,0,1,1.06,1.15l2.51,4.34a.71.71,0,0,1,.07.59.73.73,0,0,1-.35.47l-.37.21a.75.75,0,0,1-.59.07.71.71,0,0,1-.47-.36l-2.3-4c-.15-.28-.31-.37-.46-.28s-.17.31,0,.64l2.25,3.9a.74.74,0,0,1,.08.58.73.73,0,0,1-.36.48.79.79,0,0,1-.6.08.74.74,0,0,1-.46-.37l-2.3-4c-.16-.28-.32-.37-.48-.28s-.15.31,0,.64l2.25,3.9a.74.74,0,0,1,.07.58.8.8,0,0,1-.36.48Z"/><path class="cls-3" d="M430.9,188.6a1.69,1.69,0,0,1-1.5.18,2.43,2.43,0,0,1-1.22-1.13c-.77-1.35-.29-2.75,1.47-4.22a.09.09,0,0,0,0-.13,1.09,1.09,0,0,0-.59-.46.77.77,0,0,0-.6.06,2.34,2.34,0,0,0-.69.66.82.82,0,0,1-.25.24,1.06,1.06,0,0,1-.25.09.74.74,0,0,1-.58-.09l-.21-.12a.75.75,0,0,1-.26-.27.67.67,0,0,1-.09-.21.71.71,0,0,1,.1-.58A5.57,5.57,0,0,1,428,181a2.61,2.61,0,0,1,2.14-.29,3.44,3.44,0,0,1,1.86,1.72l1.93,3.34a.78.78,0,0,1,.08.58.73.73,0,0,1-.36.48l-.36.2a.87.87,0,0,1-.61.11.9.9,0,0,1-.55-.29l0,0a0,0,0,0,0-.05,0s0,0,0,0A2.14,2.14,0,0,1,430.9,188.6Zm-.16-2a.58.58,0,0,0,.25-.3,1,1,0,0,0,.11-.42.34.34,0,0,0-.05-.19l-.56-1s0,0-.05,0h-.06v0a1.69,1.69,0,0,0-.51.82,1.23,1.23,0,0,0,.17.78C430.24,186.63,430.48,186.73,430.74,186.58Z"/><path class="cls-3" d="M435.79,185.59a.72.72,0,0,1-.59.08.78.78,0,0,1-.47-.36L431.65,180a.81.81,0,0,1-.08-.59.76.76,0,0,1,.37-.47l.33-.2a.92.92,0,0,1,.63-.11.94.94,0,0,1,.55.32l.05.06h.05a.05.05,0,0,0,0,0,2.26,2.26,0,0,1,1.13-1.81c1-.59,2-.13,2.82,1.36l2.25,3.9a.76.76,0,0,1,.08.59.74.74,0,0,1-.36.47l-.76.44a.72.72,0,0,1-.59.07.78.78,0,0,1-.47-.36l-2.14-3.71a1.46,1.46,0,0,0-.39-.49.38.38,0,0,0-.37,0c-.19.12-.26.35-.19.71a.62.62,0,0,0,.07.19l2.18,3.77a.78.78,0,0,1,.08.58.73.73,0,0,1-.36.48Z"/><path class="cls-3" d="M443.9,181.1a3.08,3.08,0,0,1-2.64.27,4.23,4.23,0,0,1-2.3-2.06,4.35,4.35,0,0,1-.65-3,2.77,2.77,0,0,1,1.34-2.05,2.33,2.33,0,0,1,2.28-.13,4.49,4.49,0,0,1,1.95,2l.14.23a.77.77,0,0,1,.05.61.84.84,0,0,1-.41.48l-2.24,1.3c-.06,0-.06.07,0,.13.61.71,1.23.89,1.87.52a2,2,0,0,0,.32-.23,1.33,1.33,0,0,1,.24-.19,1.24,1.24,0,0,1,.32-.12.75.75,0,0,1,.57.08l.07,0a.76.76,0,0,1,.3.29.71.71,0,0,1,0,.79A4,4,0,0,1,443.9,181.1Zm-3.44-3.76a.08.08,0,0,0,.12,0l1.19-.69c.06,0,.07-.08,0-.14-.43-.69-.83-.93-1.21-.71a.69.69,0,0,0-.32.55A1.51,1.51,0,0,0,440.46,177.34Z"/><line class="cls-4" x1="16" y1="0.89" x2="16" y2="247.11"/><path class="cls-5" d="M11,7.17a1,1,0,0,1-1-.9V.9a1,1,0,0,1,2,0V6.27A1,1,0,0,1,11,7.17Z"/><path class="cls-5" d="M11,234.3a1,1,0,0,1-1-.9V223.08a1,1,0,0,1,2,0V233.4A1,1,0,0,1,11,234.3Zm0-20.65a1,1,0,0,1-1-.9V202.43a1,1,0,0,1,2,0v10.32A1,1,0,0,1,11,213.65ZM11,193a1,1,0,0,1-1-.89V181.78a1,1,0,0,1,2,0v10.33A1,1,0,0,1,11,193Zm0-20.65a1,1,0,0,1-1-.89V161.13a1,1,0,0,1,2,0v10.33A1,1,0,0,1,11,172.35Zm0-20.64a1,1,0,0,1-1-.9V140.49a1,1,0,0,1,2,0v10.32A1,1,0,0,1,11,151.71Zm0-20.65a1,1,0,0,1-1-.9V119.84a1,1,0,0,1,2,0v10.32A1,1,0,0,1,11,131.06Zm0-20.65a1,1,0,0,1-1-.9V99.19a1,1,0,0,1,2,0v10.32A1,1,0,0,1,11,110.41Zm0-20.65a1,1,0,0,1-1-.89V78.54a1,1,0,0,1,2,0V88.87A1,1,0,0,1,11,89.76Zm0-20.65a1,1,0,0,1-1-.89V57.89a1,1,0,0,1,2,0V68.22A1,1,0,0,1,11,69.11Zm0-20.65a1,1,0,0,1-1-.89V37.25a1,1,0,0,1,2,0V47.57A1,1,0,0,1,11,48.46Zm0-20.64a1,1,0,0,1-1-.9V16.6a1,1,0,0,1,2,0V26.92A1,1,0,0,1,11,27.82Z"/><path class="cls-5" d="M11,250a1,1,0,0,1-1-.9v-5.37a1,1,0,0,1,2,0v5.37A1,1,0,0,1,11,250Z"/><path class="cls-5" d="M17,7.17a1,1,0,0,1-1-.9V.9a1,1,0,0,1,2,0V6.27A1,1,0,0,1,17,7.17Z"/><path class="cls-5" d="M17,234.3a1,1,0,0,1-1-.9V223.08a1,1,0,0,1,2,0V233.4A1,1,0,0,1,17,234.3Zm0-20.65a1,1,0,0,1-1-.9V202.43a1,1,0,0,1,2,0v10.32A1,1,0,0,1,17,213.65ZM17,193a1,1,0,0,1-1-.89V181.78a1,1,0,0,1,2,0v10.33A1,1,0,0,1,17,193Zm0-20.65a1,1,0,0,1-1-.89V161.13a1,1,0,0,1,2,0v10.33A1,1,0,0,1,17,172.35Zm0-20.64a1,1,0,0,1-1-.9V140.49a1,1,0,0,1,2,0v10.32A1,1,0,0,1,17,151.71Zm0-20.65a1,1,0,0,1-1-.9V119.84a1,1,0,0,1,2,0v10.32A1,1,0,0,1,17,131.06Zm0-20.65a1,1,0,0,1-1-.9V99.19a1,1,0,0,1,2,0v10.32A1,1,0,0,1,17,110.41Zm0-20.65a1,1,0,0,1-1-.89V78.54a1,1,0,0,1,2,0V88.87A1,1,0,0,1,17,89.76Zm0-20.65a1,1,0,0,1-1-.89V57.89a1,1,0,0,1,2,0V68.22A1,1,0,0,1,17,69.11Zm0-20.65a1,1,0,0,1-1-.89V37.25a1,1,0,0,1,2,0V47.57A1,1,0,0,1,17,48.46Zm0-20.64a1,1,0,0,1-1-.9V16.6a1,1,0,0,1,2,0V26.92A1,1,0,0,1,17,27.82Z"/><path class="cls-5" d="M17,250a1,1,0,0,1-1-.9v-5.37a1,1,0,0,1,2,0v5.37A1,1,0,0,1,17,250Z"/><path class="cls-5" d="M445.76,191.31c-.2-.36-.21-.74,0-.86l2.16-1.24c.2-.12.52.08.73.43s.21.74,0,.86l-2.16,1.24C446.3,191.86,446,191.66,445.76,191.31Z"/><path class="cls-5" d="M354.62,243.92c-.2-.35-.21-.73,0-.85l4.15-2.39c.19-.11.52.08.73.44s.21.73,0,.85l-4.14,2.39C355.16,244.47,354.83,244.28,354.62,243.92Zm8.29-4.78c-.21-.35-.21-.74,0-.85L367,235.9c.2-.12.53.08.73.43s.21.74,0,.85l-4.14,2.4C363.44,239.69,363.11,239.5,362.91,239.14Zm8.29-4.78c-.21-.36-.22-.74,0-.85l4.15-2.4c.19-.11.52.08.73.44s.21.74,0,.85l-4.14,2.39C371.73,234.91,371.4,234.71,371.2,234.36Zm8.28-4.79c-.2-.35-.21-.73,0-.85l4.14-2.39c.2-.11.53.08.73.44s.21.73,0,.85L380.21,230C380,230.12,379.69,229.93,379.48,229.57Zm8.29-4.78c-.21-.36-.21-.74,0-.85l4.15-2.39c.2-.12.52.08.73.43s.21.74,0,.85l-4.14,2.4C388.3,225.34,388,225.14,387.77,224.79Zm8.28-4.78c-.2-.36-.21-.74,0-.85l4.14-2.4c.2-.11.53.08.73.44s.21.74,0,.85l-4.14,2.39C396.58,220.56,396.26,220.36,396.05,220Zm8.29-4.79c-.21-.35-.21-.73,0-.85l4.15-2.39c.2-.11.52.08.73.44s.21.73,0,.85l-4.14,2.39C404.87,215.77,404.54,215.58,404.34,215.22Zm8.28-4.78c-.2-.36-.21-.74,0-.85l4.14-2.39c.2-.12.53.08.73.43s.21.74,0,.85l-4.15,2.39C413.15,211,412.83,210.79,412.62,210.44Zm8.29-4.78c-.21-.36-.21-.74,0-.86l4.14-2.39c.2-.11.52.08.73.44s.21.73,0,.85l-4.14,2.39C421.44,206.21,421.11,206,420.91,205.66Zm8.28-4.79c-.2-.35-.21-.73,0-.85l4.14-2.39c.2-.12.53.08.73.44s.21.73,0,.85l-4.15,2.39C429.72,201.42,429.4,201.23,429.19,200.87Zm8.29-4.78c-.21-.36-.21-.74,0-.85l4.14-2.39c.2-.12.52.08.73.43s.21.74,0,.85l-4.14,2.39C438,196.64,437.68,196.44,437.48,196.09Z"/><path class="cls-5" d="M348.32,247.56c-.2-.35-.21-.73,0-.85l2.16-1.24c.2-.12.53.08.73.43s.21.74,0,.85L349.06,248C348.86,248.11,348.53,247.92,348.32,247.56Z"/><path class="cls-6" d="M49.9,55.68h3.42a2.94,2.94,0,0,0,2.18-.9,3,3,0,0,0,.88-2.15V39.73c0-.24.13-.37.41-.37h2.7c.27,0,.41.13.41.37v12.9a3,3,0,0,0,.88,2.15,2.93,2.93,0,0,0,2.18.9h3.31a2.93,2.93,0,0,0,2.18-.9,3,3,0,0,0,.88-2.15V19.06a3,3,0,0,0-.88-2.15A2.9,2.9,0,0,0,66.27,16H63a2.9,2.9,0,0,0-2.18.91,3,3,0,0,0-.88,2.15v11.7a.37.37,0,0,1-.41.42h-2.7c-.28,0-.41-.14-.41-.42V19.06a3,3,0,0,0-.88-2.15A2.91,2.91,0,0,0,53.32,16H49.9a2.88,2.88,0,0,0-2.17.91,3,3,0,0,0-.89,2.15V52.63a3,3,0,0,0,.89,2.15A2.9,2.9,0,0,0,49.9,55.68Z"/><path class="cls-6" d="M85.24,37.88Q73.45,39.95,73.45,48.07a8.39,8.39,0,0,0,1.72,5.55A5.94,5.94,0,0,0,80,55.68a7.46,7.46,0,0,0,6.24-3.39.2.2,0,0,1,.14,0,.16.16,0,0,1,.14.09l0,.23a3.45,3.45,0,0,0,1.17,1.84,3.13,3.13,0,0,0,2,.73h1.43a2.55,2.55,0,0,0,1.92-.8,2.63,2.63,0,0,0,.78-1.9V39q0-5.59-2.64-8.44a9,9,0,0,0-7-2.84,19.09,19.09,0,0,0-7.93,1.83,2.53,2.53,0,0,0-1.34,1.56,3.74,3.74,0,0,0-.09.78,2.74,2.74,0,0,0,.32,1.29l.42.73a2.66,2.66,0,0,0,1.6,1.28,2.94,2.94,0,0,0,.92.14A2.82,2.82,0,0,0,79.41,35a8.47,8.47,0,0,1,3.22-.78,2.62,2.62,0,0,1,1.9.85,3.73,3.73,0,0,1,1,2.4A.29.29,0,0,1,85.24,37.88Zm.32,5.28V47.1a1.18,1.18,0,0,1-.18.65,4.25,4.25,0,0,1-1.06,1.1,2.23,2.23,0,0,1-1.28.46c-1.07,0-1.61-.72-1.61-2.16a4,4,0,0,1,.83-2.64,5.86,5.86,0,0,1,3-1.58l.05,0a.26.26,0,0,1,.18.09A.21.21,0,0,1,85.56,43.16Z"/><path class="cls-6" d="M102.2,55.68h2.94a2.66,2.66,0,0,0,2.7-2.7V49.31l-.23-3.81s0-.06,0-.09a.09.09,0,0,1,.14,0,5,5,0,0,0,3.9,2c2.35,0,4.32-1.22,5.89-3.67S120,37.68,120,32.88q0-6.71-2.09-10.12a6.49,6.49,0,0,0-5.81-3.42,4.46,4.46,0,0,0-2.63.78,10.4,10.4,0,0,0-2.28,2.34.14.14,0,0,1-.13.05.15.15,0,0,1-.14-.09l0-.19a2.81,2.81,0,0,0-1.07-1.69,3.11,3.11,0,0,0-1.91-.65H102.2a2.75,2.75,0,0,0-2.71,2.71V53a2.59,2.59,0,0,0,.8,1.92A2.67,2.67,0,0,0,102.2,55.68Zm5.64-27A1.72,1.72,0,0,1,108,28c.43-1.29,1-1.93,1.56-1.93a1.1,1.1,0,0,1,.9.64,7,7,0,0,1,.64,2.25,26.89,26.89,0,0,1,.25,4.08,24.26,24.26,0,0,1-.34,4.52,6.86,6.86,0,0,1-.78,2.39,1.23,1.23,0,0,1-.94.62,1.42,1.42,0,0,1-1.29-.83,1.54,1.54,0,0,1-.14-.69Z"/><path class="cls-6" d="M127.69,55.68h2.94a2.66,2.66,0,0,0,2.71-2.7V49.31l-.23-3.81s0-.06,0-.09a.09.09,0,0,1,.14,0,5,5,0,0,0,3.9,2q3.52,0,5.9-3.67t2.36-10.87q0-6.71-2.09-10.12a6.48,6.48,0,0,0-5.8-3.42,4.52,4.52,0,0,0-2.64.78,10.17,10.17,0,0,0-2.27,2.34.16.16,0,0,1-.14.05.15.15,0,0,1-.14-.09l0-.19a2.87,2.87,0,0,0-1.08-1.69,3.09,3.09,0,0,0-1.91-.65h-1.65A2.77,2.77,0,0,0,125,22.6V53a2.56,2.56,0,0,0,.81,1.92A2.63,2.63,0,0,0,127.69,55.68Zm5.65-27a1.72,1.72,0,0,1,.13-.68c.43-1.29.95-1.93,1.56-1.93a1.09,1.09,0,0,1,.9.64,6.77,6.77,0,0,1,.64,2.25,26.89,26.89,0,0,1,.25,4.08,24.26,24.26,0,0,1-.34,4.52A6.86,6.86,0,0,1,135.7,40a1.21,1.21,0,0,1-.94.62,1.43,1.43,0,0,1-1.29-.83,1.55,1.55,0,0,1-.13-.69Z"/><path class="cls-6" d="M190.39,55.68h6.75A12.31,12.31,0,0,0,205.45,53q3.2-2.73,3.19-8,0-7.09-6.18-8.62a.16.16,0,0,1-.1-.15c0-.06,0-.09.1-.09a6.92,6.92,0,0,0,3.9-3.09,9.3,9.3,0,0,0,1.32-4.82q0-9.13-11.35-9.14h-5.94a2.85,2.85,0,0,0-2.82,2.82v31a2.71,2.71,0,0,0,.83,2A2.68,2.68,0,0,0,190.39,55.68Zm6-29.64a.34.34,0,0,1,.38-.39q2.3,0,2.3,3.74c0,2.71-.77,4.12-2.3,4.21-.25,0-.38-.07-.38-.33Zm0,14.13a.34.34,0,0,1,.38-.39h.05q3.3,0,3.3,4.41,0,4.74-3.3,4.74h-.05a.34.34,0,0,1-.38-.38Z"/><path class="cls-6" d="M214,38h3.48c.21,0,.32.1.32.28v15a2.36,2.36,0,0,0,2.35,2.35h2.64a2.23,2.23,0,0,0,1.68-.7,2.28,2.28,0,0,0,.68-1.65V34.63A2.3,2.3,0,0,0,224.5,33a2.23,2.23,0,0,0-1.68-.7H214a2.39,2.39,0,0,0-2.36,2.36v1A2.37,2.37,0,0,0,214,38Z"/><path class="cls-6" d="M221.18,29a4.32,4.32,0,0,0,3-1,3.5,3.5,0,0,0,1.16-2.72,3.62,3.62,0,0,0-1.16-2.76,4.22,4.22,0,0,0-3-1.08,4.27,4.27,0,0,0-3,1.08A3.56,3.56,0,0,0,217,25.24,3.45,3.45,0,0,0,218.17,28,4.38,4.38,0,0,0,221.18,29Z"/><path class="cls-6" d="M235.33,55.68H238a2.39,2.39,0,0,0,2.35-2.35V42.82a2.35,2.35,0,0,1,.08-.6,6.17,6.17,0,0,1,2.1-3.12,5,5,0,0,1,3-1H246a1.12,1.12,0,0,0,.32,0,2.86,2.86,0,0,0,1.48-.4,2.05,2.05,0,0,0,1-1.39l.36-1.6a4.68,4.68,0,0,0,0-.64,2.76,2.76,0,0,0-.32-1.28,1.8,1.8,0,0,0-1.48-1,10.78,10.78,0,0,0-1.35-.08q-3.72,0-6.48,4.47a.16.16,0,0,1-.18.13c-.09,0-.14,0-.14-.13l-.2-1.63a2.67,2.67,0,0,0-2.63-2.36h-1.16a2.23,2.23,0,0,0-1.68.7,2.3,2.3,0,0,0-.68,1.66v18.7a2.28,2.28,0,0,0,.68,1.65A2.23,2.23,0,0,0,235.33,55.68Z"/><path class="cls-6" d="M268.61,51.85a2,2,0,0,0-1-1.36,3.29,3.29,0,0,0-1.59-.4h-.44c-2,0-3-1.21-3-3.63V37.82c0-.18.1-.28.32-.28h3.47a2.37,2.37,0,0,0,2.36-2.35v-1a2.39,2.39,0,0,0-2.36-2.36H262.9c-.22,0-.32-.09-.32-.28V28a2.32,2.32,0,0,0-2.36-2.36H258.9a2.71,2.71,0,0,0-2.71,2.32l-.52,3.59a.35.35,0,0,1-.32.32l-1.64.08a2.3,2.3,0,0,0-1.64.78,2.45,2.45,0,0,0-.68,1.7v.8a2.32,2.32,0,0,0,.68,1.66,2.25,2.25,0,0,0,1.68.69h1.16c.21,0,.32.1.32.28v8.72a10.24,10.24,0,0,0,2,6.73c1.35,1.61,3.43,2.41,6.26,2.41a17.41,17.41,0,0,0,3.51-.35,2.2,2.2,0,0,0,1.48-1.08,2.45,2.45,0,0,0,.32-1.2,2.74,2.74,0,0,0-.08-.64Z"/><path class="cls-6" d="M274.76,55.68h2.64a2.23,2.23,0,0,0,1.68-.7,2.28,2.28,0,0,0,.68-1.65V40.1a2.35,2.35,0,0,1,.08-.6c.37-1,.9-1.56,1.6-1.56a1.06,1.06,0,0,1,1,.5,4.37,4.37,0,0,1,.28,1.86v13a2.36,2.36,0,0,0,2.35,2.35h2.64a2.23,2.23,0,0,0,1.68-.7,2.28,2.28,0,0,0,.68-1.65V39.66q0-7.86-5.36-7.87a6.45,6.45,0,0,0-5.15,2.88.12.12,0,0,1-.1,0,.1.1,0,0,1-.06-.1l.36-3.88V26.36a2.3,2.3,0,0,0-.68-1.66,2.23,2.23,0,0,0-1.68-.7h-2.64a2.22,2.22,0,0,0-1.67.7,2.26,2.26,0,0,0-.68,1.66v27a2.36,2.36,0,0,0,2.35,2.35Z"/><path class="cls-6" d="M299.58,55.68a3.61,3.61,0,0,0,2.18-.69,8.09,8.09,0,0,0,1.81-2,0,0,0,0,1,0,0s0,0,0,0l.08.2a2.43,2.43,0,0,0,.92,1.42,2.6,2.6,0,0,0,1.6.54h1.6a2.41,2.41,0,0,0,2.36-2.36v-27a2.3,2.3,0,0,0-.7-1.66,2.26,2.26,0,0,0-1.66-.7h-2.56a2.26,2.26,0,0,0-1.68.7,2.32,2.32,0,0,0-.68,1.66v3.87l.16,3.24s0,.05-.08.08-.09,0-.12,0a4.36,4.36,0,0,0-3.55-1.72q-3,0-5,3.12t-2,9.07c0,4.07.64,7.14,1.93,9.19A6,6,0,0,0,299.58,55.68Zm.52-16a5.92,5.92,0,0,1,.64-2,1,1,0,0,1,.8-.53,1.41,1.41,0,0,1,1.23.75.89.89,0,0,1,.16.56v9.11a1.9,1.9,0,0,1-.08.6c-.29,1.07-.7,1.6-1.23,1.6q-1.8,0-1.8-6.31A20.53,20.53,0,0,1,300.1,39.66Z"/><path class="cls-6" d="M323.27,40.18Q313,42,313,49.05a7.32,7.32,0,0,0,1.5,4.84,5.22,5.22,0,0,0,4.22,1.79,6.49,6.49,0,0,0,5.43-3,.16.16,0,0,1,.12,0,.14.14,0,0,1,.12.08l0,.2a3,3,0,0,0,1,1.6,2.76,2.76,0,0,0,1.78.64h1.24a2.37,2.37,0,0,0,2.35-2.36V41.14q0-4.87-2.29-7.35a7.89,7.89,0,0,0-6.06-2.48,16.7,16.7,0,0,0-6.91,1.6,2.18,2.18,0,0,0-1.16,1.36,3.31,3.31,0,0,0-.08.68,2.3,2.3,0,0,0,.28,1.12l.36.63a2.3,2.3,0,0,0,1.4,1.12,2.77,2.77,0,0,0,.8.12,2.5,2.5,0,0,0,1-.24A7.29,7.29,0,0,1,321,37a2.25,2.25,0,0,1,1.66.74,3.21,3.21,0,0,1,.86,2.09A.25.25,0,0,1,323.27,40.18Zm.28,4.6v3.43a1,1,0,0,1-.16.56,3.24,3.24,0,0,1-.92,1,1.87,1.87,0,0,1-1.12.4c-.93,0-1.39-.63-1.39-1.88a3.4,3.4,0,0,1,.72-2.29,5,5,0,0,1,2.59-1.38l0,0a.21.21,0,0,1,.16.08A.16.16,0,0,1,323.55,44.78Z"/><path class="cls-6" d="M350.44,26.67a1.63,1.63,0,0,0-1.35-.67h-2.17a2.4,2.4,0,0,0-1.68.64,2.54,2.54,0,0,0-.86,1.57l-1,6.92c-.32,2.35-.65,4.52-1,6.52a.11.11,0,0,1-.11.07c-.05,0-.08,0-.08-.07q-.37-2.82-1.05-6.52l-1.31-7a2.49,2.49,0,0,0-.89-1.55,2.66,2.66,0,0,0-1.73-.62h-2.39a1.69,1.69,0,0,0-1.65,1.61,1.35,1.35,0,0,0,.11.52l5.84,19.09a1.2,1.2,0,0,1,0,.53l-.19.71a2.07,2.07,0,0,1-1.23,1.72,2.87,2.87,0,0,1-.38.15l-.39.15-.36.15a2.41,2.41,0,0,0-.37.19A2.61,2.61,0,0,1,336,51a1.36,1.36,0,0,0-.3.23l-.22.26a1.26,1.26,0,0,0-.21.32,1.37,1.37,0,0,0-.11.36l-.22.89a2.37,2.37,0,0,0-.08.57,2.22,2.22,0,0,0,.34,1.16,1.84,1.84,0,0,0,1.38.86c.28,0,.55,0,.83,0a7.42,7.42,0,0,0,5.29-1.88A12.94,12.94,0,0,0,345.84,48l4.94-19.84a3.91,3.91,0,0,0,0-.45A1.7,1.7,0,0,0,350.44,26.67Z"/><path class="cls-6" d="M155.77,46.37a1.42,1.42,0,0,1,0,.58l-.21.78a2.32,2.32,0,0,1-1.36,1.9l-.41.16-.44.16-.39.17a2.13,2.13,0,0,0-.41.21l-.35.2a1.4,1.4,0,0,0-.33.25l-.25.29a1.46,1.46,0,0,0-.22.35,1.63,1.63,0,0,0-.13.39l-.24,1a2.32,2.32,0,0,0-.09.62,2.55,2.55,0,0,0,.37,1.28,2,2,0,0,0,1.53.94,9.1,9.1,0,0,0,.91,0,8.15,8.15,0,0,0,5.83-2.08,14.1,14.1,0,0,0,3.48-6.37l5.44-21.84a3.2,3.2,0,0,0,0-.49,1.83,1.83,0,0,0-.41-1.16A1.8,1.8,0,0,0,166.7,23h-2.39a2.68,2.68,0,0,0-1.86.7,2.91,2.91,0,0,0-.95,1.73l-1.07,7.63c-.36,2.58-.71,5-1.07,7.17a.14.14,0,0,1-.12.08c-.06,0-.09,0-.09-.08q-.41-3.09-1.15-7.17l-1.44-7.67a2.69,2.69,0,0,0-1-1.71,2.91,2.91,0,0,0-1.9-.68H151a1.85,1.85,0,0,0-1.81,1.77,1.47,1.47,0,0,0,.12.58Z"/><path class="cls-6" d="M51.8,110a11.67,11.67,0,0,0-3.51,8.62,12.36,12.36,0,0,0,1.77,6.9A17.66,17.66,0,0,0,55,130.34l3.25,2.37a10.67,10.67,0,0,1,3.26,3,6.1,6.1,0,0,1,.94,3.39,2.19,2.19,0,0,1-.72,1.74,2.78,2.78,0,0,1-1.93.64,6.6,6.6,0,0,1-4.09-1.88,3.3,3.3,0,0,0-2.26-.83,2.75,2.75,0,0,0-2.15.94l-1.77,1.93a3.28,3.28,0,0,0-.94,2.32,2.84,2.84,0,0,0,1.1,2.32,15.6,15.6,0,0,0,10.11,3.87,12.72,12.72,0,0,0,9.41-3.62,12.12,12.12,0,0,0,3.62-8.92,13.71,13.71,0,0,0-.88-5.13,11.55,11.55,0,0,0-2.13-3.56,25.15,25.15,0,0,0-3.39-3l-3.1-2.26c-.22-.15-.51-.37-.88-.66a20,20,0,0,1-3.23-2.74,3.72,3.72,0,0,1-.75-2.45,2.57,2.57,0,0,1,.75-1.94,2.52,2.52,0,0,1,1.79-.71,5.77,5.77,0,0,1,3.37,1.16,3.5,3.5,0,0,0,2,.66h.38A3.25,3.25,0,0,0,69,115.82l1.1-1.27a3.46,3.46,0,0,0,.83-2.27,3,3,0,0,0-1.16-2.48,13.9,13.9,0,0,0-8.84-3.31A12.38,12.38,0,0,0,51.8,110Z"/><path class="cls-6" d="M86.67,149.14a3.1,3.1,0,0,0,2.32,1h3.64a3.08,3.08,0,0,0,2.32-1,3.16,3.16,0,0,0,.94-2.29V121a3.16,3.16,0,0,0-.94-2.29,3.08,3.08,0,0,0-2.32-1H80.49A3.3,3.3,0,0,0,77.23,121v1.43a3.28,3.28,0,0,0,3.26,3.26h4.8c.29,0,.44.13.44.39v20.76A3.16,3.16,0,0,0,86.67,149.14Z"/><path class="cls-6" d="M86.2,104.22A4.94,4.94,0,0,0,84.57,108a4.76,4.76,0,0,0,1.63,3.76,6.12,6.12,0,0,0,4.17,1.43,6,6,0,0,0,4.14-1.43,4.8,4.8,0,0,0,1.6-3.76,5,5,0,0,0-1.6-3.81,5.86,5.86,0,0,0-4.14-1.49A6,6,0,0,0,86.2,104.22Z"/><path class="cls-6" d="M125.29,147.15a9.52,9.52,0,0,0,3.4-7.53,9.37,9.37,0,0,0-.72-3.76,8,8,0,0,0-2-2.82,15.26,15.26,0,0,0-2.49-1.82,24,24,0,0,0-2.76-1.32c-.4-.19-1-.43-1.85-.75s-1.4-.54-1.71-.69a9.14,9.14,0,0,1-1.1-.63,2.63,2.63,0,0,1-.89-.86,2,2,0,0,1-.24-1c0-1.55,1-2.32,2.87-2.32a7.17,7.17,0,0,1,3.48.94,3.63,3.63,0,0,0,1.82.49,3.67,3.67,0,0,0,.66,0,3.17,3.17,0,0,0,2.15-1.27l.61-.83a2.93,2.93,0,0,0,.66-1.88,2.62,2.62,0,0,0,0-.55,2.88,2.88,0,0,0-1.38-2,15.58,15.58,0,0,0-8.23-2.21,13,13,0,0,0-8.7,2.79,9.18,9.18,0,0,0-3.28,7.37,8.35,8.35,0,0,0,.72,3.51,8.51,8.51,0,0,0,2,2.73,16.46,16.46,0,0,0,2.46,1.88,28.37,28.37,0,0,0,2.73,1.43c.37.19,1,.46,1.83.83l1.71.77c.29.15.68.38,1.16.69a2.72,2.72,0,0,1,.94.91,2.33,2.33,0,0,1,.22,1c0,1.69-1.09,2.54-3.26,2.54a9.76,9.76,0,0,1-5-1.55,3.19,3.19,0,0,0-1.82-.55,3.68,3.68,0,0,0-.66.06,3,3,0,0,0-2.1,1.32l-.66.88a3.13,3.13,0,0,0-.67,1.94,2.57,2.57,0,0,0,.06.55,2.85,2.85,0,0,0,1.38,2,17.82,17.82,0,0,0,9.27,2.71Q121.9,150.11,125.29,147.15Z"/><path class="cls-6" d="M141.2,146.77q2.79,3.34,8.64,3.34a24.3,24.3,0,0,0,4.86-.5,3,3,0,0,0,2.05-1.49,3.32,3.32,0,0,0,.44-1.66,3.79,3.79,0,0,0-.11-.88l-.17-.77a2.81,2.81,0,0,0-1.43-1.88,4.47,4.47,0,0,0-2.21-.55h-.61c-2.72,0-4.09-1.68-4.09-5V125.43q0-.39.45-.39h4.8a3.31,3.31,0,0,0,3.26-3.26v-1.43a3.3,3.3,0,0,0-3.26-3.26H149q-.45,0-.45-.39v-4.91a3.19,3.19,0,0,0-3.25-3.26h-1.83a3.65,3.65,0,0,0-2.48.91,3.74,3.74,0,0,0-1.27,2.29l-.72,5a.47.47,0,0,1-.44.44l-2.26.11a3.18,3.18,0,0,0-2.27,1.08,3.39,3.39,0,0,0-.94,2.35v1.1a3.2,3.2,0,0,0,.94,2.29,3.1,3.1,0,0,0,2.32,1H138c.3,0,.44.13.44.39v12Q138.41,143.43,141.2,146.77Z"/><path class="cls-6" d="M166.72,121.06c-2.6,3.1-3.89,7.16-3.89,12.21s1.34,9.29,4,12.31A13,13,0,0,0,177,150.11a16.06,16.06,0,0,0,6.51-1.38,2.82,2.82,0,0,0,1.6-1.94,3.33,3.33,0,0,0-.38-2.59l-.17-.28a3.08,3.08,0,0,0-1.88-1.49,5,5,0,0,0-1.43-.22,5.23,5.23,0,0,0-1.27.17,8,8,0,0,1-1.66.16c-3.09,0-5-1.93-5.68-5.79q-.06-.45.33-.45h10.87a3.66,3.66,0,0,0,2.49-.91,3,3,0,0,0,1.1-2.29v-1.16q0-6.9-3-11.21a9.78,9.78,0,0,0-8.56-4.3A11.67,11.67,0,0,0,166.72,121.06Zm7,4.26a2.84,2.84,0,0,1,2.32-1.33q2.76,0,2.92,5.14a.39.39,0,0,1-.44.44h-5.74q-.39,0-.39-.33A6.24,6.24,0,0,1,173.76,125.32Z"/><path class="cls-6" d="M204.63,146.85V132.33a3.14,3.14,0,0,1,.11-.83,8.48,8.48,0,0,1,2.9-4.31,6.87,6.87,0,0,1,4.11-1.38h.78a1.61,1.61,0,0,0,.44.06,4,4,0,0,0,2-.55,2.87,2.87,0,0,0,1.44-1.94l.5-2.21a8.49,8.49,0,0,0,.05-.88,4,4,0,0,0-.44-1.77,2.5,2.5,0,0,0-2-1.32,15.12,15.12,0,0,0-1.88-.11q-5.14,0-8.95,6.18a.23.23,0,0,1-.25.17c-.13,0-.19-.06-.19-.17L203,121a3.6,3.6,0,0,0-1.21-2.32,3.52,3.52,0,0,0-2.43-.94h-1.6a3.1,3.1,0,0,0-2.32,1,3.16,3.16,0,0,0-.94,2.29v25.84a3.16,3.16,0,0,0,.94,2.29,3.1,3.1,0,0,0,2.32,1h3.64a3.3,3.3,0,0,0,3.26-3.26Z"/><path class="cls-6" d="M74.59,201.75a3.61,3.61,0,0,0-1-2.56l-1.49-1.61a2.77,2.77,0,0,0-2.14-.89,6.22,6.22,0,0,0-2.5.65,3.8,3.8,0,0,1-1.73.42q-3,0-4.91-3.34t-1.94-10.95q0-7.26,1.88-10.66t4.38-3.39a4.26,4.26,0,0,1,1.6.29,7.28,7.28,0,0,0,2.68.6,3.21,3.21,0,0,0,2.44-1l1.37-1.55a3.32,3.32,0,0,0,1-2.44,2.88,2.88,0,0,0-1.26-2.5,14,14,0,0,0-8.39-2.74,15,15,0,0,0-6.37,1.37,15.78,15.78,0,0,0-5.39,4.17,19.7,19.7,0,0,0-3.78,7.5,38.56,38.56,0,0,0-1.37,10.83,37.88,37.88,0,0,0,1.37,10.81A17.89,17.89,0,0,0,52.86,202a16,16,0,0,0,5.39,3.87,16.12,16.12,0,0,0,6.34,1.25,14.55,14.55,0,0,0,8.87-2.92A3,3,0,0,0,74.59,201.75Z"/><path class="cls-6" d="M102.7,200.86q-.66-2.15-4.35-2.57c-2.06-.19-3.1-1.56-3.1-4.1v-31.5a3.57,3.57,0,0,0-3.51-3.52H81.56a3.33,3.33,0,0,0-2.5,1.05,3.38,3.38,0,0,0-1,2.47v1.55a3.41,3.41,0,0,0,1,2.47,3.36,3.36,0,0,0,2.5,1h2.26a.37.37,0,0,1,.42.42v25.54q0,6.25,2.89,9.82t8.24,3.58a24.1,24.1,0,0,0,5.42-.54,3.25,3.25,0,0,0,2.09-1.67,3.4,3.4,0,0,0,.41-1.6,3.85,3.85,0,0,0-.18-1.13Z"/><path class="cls-6" d="M131.47,203.53a3.81,3.81,0,0,0,.12-.95,3.5,3.5,0,0,0-.54-1.84l-.18-.3a3.28,3.28,0,0,0-2-1.61,5.22,5.22,0,0,0-1.55-.24,5.61,5.61,0,0,0-1.37.18,8.39,8.39,0,0,1-1.78.18q-5,0-6.14-6.25-.06-.48.36-.48H130.1a4,4,0,0,0,2.68-1,3.35,3.35,0,0,0,1.19-2.47v-1.25q0-7.44-3.22-12.09a10.52,10.52,0,0,0-9.22-4.64q-5.73,0-9.92,5T107.41,189q0,8.38,4.35,13.27a14,14,0,0,0,11,4.89,17.33,17.33,0,0,0,7-1.49A3.09,3.09,0,0,0,131.47,203.53Zm-13.7-18.93a6.74,6.74,0,0,1,1.43-4.23,3.11,3.11,0,0,1,2.5-1.43q3,0,3.16,5.54a.42.42,0,0,1-.48.48h-6.19Q117.77,185,117.77,184.6Z"/><path class="cls-6" d="M165.34,185.43q0-7.26-3.43-11a11.72,11.72,0,0,0-9-3.69,24.73,24.73,0,0,0-10.3,2.38,3.24,3.24,0,0,0-1.73,2,4.65,4.65,0,0,0-.11,1,3.41,3.41,0,0,0,.41,1.67l.54.95a3.46,3.46,0,0,0,2.08,1.67,4.14,4.14,0,0,0,1.19.18,3.65,3.65,0,0,0,1.55-.36,11,11,0,0,1,4.17-1,3.43,3.43,0,0,1,2.47,1.1,4.92,4.92,0,0,1,1.28,3.13.37.37,0,0,1-.36.47q-15.3,2.69-15.3,13.22a10.91,10.91,0,0,0,2.23,7.21,7.76,7.76,0,0,0,6.29,2.68,9.67,9.67,0,0,0,8.09-4.41.24.24,0,0,1,.18-.06.19.19,0,0,1,.18.12l.06.3a4.35,4.35,0,0,0,1.52,2.38,4,4,0,0,0,2.65.95h1.84a3.31,3.31,0,0,0,2.5-1,3.41,3.41,0,0,0,1-2.47ZM154.5,196a1.48,1.48,0,0,1-.24.84,5.31,5.31,0,0,1-1.37,1.43,2.88,2.88,0,0,1-1.66.59c-1.4,0-2.09-.93-2.09-2.8a5.17,5.17,0,0,1,1.07-3.42,7.67,7.67,0,0,1,3.87-2.06l.06-.06a.35.35,0,0,1,.24.12.24.24,0,0,1,.12.24Z"/><path class="cls-6" d="M187.31,207.11a3.37,3.37,0,0,0,2.5-1,3.46,3.46,0,0,0,1-2.48V175.73a3.44,3.44,0,0,0-1-2.47,3.35,3.35,0,0,0-2.5-1h-13.1a3.57,3.57,0,0,0-3.51,3.52v1.55a3.55,3.55,0,0,0,3.51,3.51h5.18q.48,0,.48.42v22.38a3.42,3.42,0,0,0,1,2.48,3.36,3.36,0,0,0,2.5,1Z"/><path class="cls-6" d="M184.87,156a6.37,6.37,0,0,0-4.5,1.61,5.32,5.32,0,0,0-1.75,4.11,5.13,5.13,0,0,0,1.75,4,6.51,6.51,0,0,0,4.5,1.55,6.39,6.39,0,0,0,4.46-1.55,5.18,5.18,0,0,0,1.73-4,5.37,5.37,0,0,0-1.73-4.11A6.25,6.25,0,0,0,184.87,156Z"/><path class="cls-6" d="M224.05,171.62a15.4,15.4,0,0,0-2-.12q-5.53,0-9.64,6.67a.25.25,0,0,1-.27.18q-.21,0-.21-.18l-.3-2.44a3.85,3.85,0,0,0-1.31-2.5,3.79,3.79,0,0,0-2.62-1H206a3.35,3.35,0,0,0-2.51,1,3.44,3.44,0,0,0-1,2.47v27.86a3.46,3.46,0,0,0,1,2.48,3.38,3.38,0,0,0,2.51,1h3.93a3.55,3.55,0,0,0,3.51-3.52V187.93a3.24,3.24,0,0,1,.12-.89,9.1,9.1,0,0,1,3.12-4.64,7.44,7.44,0,0,1,4.44-1.49h.83a2,2,0,0,0,.48.06,4.23,4.23,0,0,0,2.2-.6,3,3,0,0,0,1.55-2.08l.54-2.38a7.73,7.73,0,0,0,.06-1,4.18,4.18,0,0,0-.48-1.9A2.73,2.73,0,0,0,224.05,171.62Z"/><path class="cls-6" d="M244.47,170.79q-5.72,0-9.91,5T230.36,189q0,8.38,4.35,13.27a14,14,0,0,0,10.95,4.89,17.41,17.41,0,0,0,7-1.49,3,3,0,0,0,1.72-2.09,3.81,3.81,0,0,0,.12-.95,3.58,3.58,0,0,0-.53-1.84l-.18-.3a3.3,3.3,0,0,0-2-1.61,5.15,5.15,0,0,0-1.54-.24,5.55,5.55,0,0,0-1.37.18,8.49,8.49,0,0,1-1.79.18q-5,0-6.13-6.25c0-.32.08-.48.35-.48H253a4,4,0,0,0,2.68-1,3.32,3.32,0,0,0,1.2-2.47v-1.25q0-7.44-3.22-12.09A10.53,10.53,0,0,0,244.47,170.79ZM247.33,185h-6.19q-.42,0-.42-.36a6.74,6.74,0,0,1,1.43-4.23,3.09,3.09,0,0,1,2.5-1.43c2,0,3,1.85,3.15,5.54A.42.42,0,0,1,247.33,185Z"/><path class="cls-6" d="M63.15,220.05a.56.56,0,0,0-.52-.31.6.6,0,0,0-.53.29,17.23,17.23,0,0,1-2.86,3.33,20.36,20.36,0,0,1-3.79,2.7,19.08,19.08,0,0,1-5.22,1.82.7.7,0,0,0-.55.42.77.77,0,0,0-.07.32.63.63,0,0,0,.11.36l.62,1.09a1.47,1.47,0,0,0,.66.62,1.45,1.45,0,0,0,.55.1,1.73,1.73,0,0,0,.32,0,21.52,21.52,0,0,0,5.09-2A22.66,22.66,0,0,0,63.72,223a1.62,1.62,0,0,0,.32-.87v-.09a1.64,1.64,0,0,0-.21-.82Z"/><path class="cls-6" d="M52.22,218.14q1.13.68,2.46,1.53a1,1,0,0,0,.57.18.76.76,0,0,0,.21,0,1,1,0,0,0,.68-.45l.46-.69a1,1,0,0,0,.18-.57,1.8,1.8,0,0,0,0-.22,1.07,1.07,0,0,0-.44-.67c-.86-.55-1.68-1.05-2.48-1.51a1,1,0,0,0-.55-.16l-.26,0a1.11,1.11,0,0,0-.68.48l-.45.7a1,1,0,0,0-.16.51,2.11,2.11,0,0,0,0,.25A1,1,0,0,0,52.22,218.14Z"/><path class="cls-6" d="M52.42,224.07l.21,0a1.09,1.09,0,0,0,.68-.44l.46-.73a1,1,0,0,0,.18-.57,2,2,0,0,0,0-.23,1,1,0,0,0-.46-.66c-.85-.56-1.68-1.07-2.47-1.53a1,1,0,0,0-.54-.16,1.33,1.33,0,0,0-.28,0,1.22,1.22,0,0,0-.68.5l-.44.68a.9.9,0,0,0-.16.51,1,1,0,0,0,0,.25,1,1,0,0,0,.47.64c.73.43,1.55.95,2.45,1.55A1,1,0,0,0,52.42,224.07Z"/><path class="cls-6" d="M77.6,223.64a.13.13,0,0,1,0-.19,25.58,25.58,0,0,0,2.67-4.72l.22-.43a1.11,1.11,0,0,0,.16-.57,2.29,2.29,0,0,0,0-.25,1.09,1.09,0,0,0-.45-.69l-.1-.09a2.45,2.45,0,0,0-1.46-.44h-.43a8.8,8.8,0,0,1-1.16.08H70.91c-.35,0-.77,0-1.28-.06h-.07a.93.93,0,0,0-.66.27.87.87,0,0,0-.32.69v1a.9.9,0,0,0,.32.71.93.93,0,0,0,.64.25h.09c.52,0,1-.06,1.28-.06h5.53s.07,0,.08,0,0,.05,0,.09a9.86,9.86,0,0,1-1,2,15.64,15.64,0,0,1-1.53,2,18.77,18.77,0,0,1-2.89,2.6A19.25,19.25,0,0,1,67.55,228a.73.73,0,0,0-.43.51,1.15,1.15,0,0,0,0,.16.69.69,0,0,0,.2.48l.85.88a1.31,1.31,0,0,0,.78.4,1,1,0,0,0,.23,0,1.36,1.36,0,0,0,.65-.16,24.49,24.49,0,0,0,5.65-4.39.13.13,0,0,1,.2,0A36.79,36.79,0,0,1,79.29,230a1,1,0,0,0,.68.38l.12,0a.93.93,0,0,0,.62-.24l1-.83a1,1,0,0,0,.35-.73.2.2,0,0,0,0-.09,1,1,0,0,0-.27-.68A44.42,44.42,0,0,0,77.6,223.64Z"/><path class="cls-6" d="M99.43,217.7l-.44-.29a2.75,2.75,0,0,0-1.48-.39,2.25,2.25,0,0,0-.44,0l-.77,0H93.4a.09.09,0,0,1-.06,0,.06.06,0,0,1,0-.07l.46-.77a.7.7,0,0,0,.07-.69.74.74,0,0,0-.49-.5l-1.2-.36a1.13,1.13,0,0,0-.32,0,1,1,0,0,0-.48.13,1.2,1.2,0,0,0-.55.6,9.57,9.57,0,0,1-.6,1.17c-.29.46-.55.85-.8,1.2s-.57.76-1,1.26A14.86,14.86,0,0,1,87,220.46a16.24,16.24,0,0,1-1.74,1.38.77.77,0,0,0-.32.65.67.67,0,0,0,.29.56l.71.57a1.37,1.37,0,0,0,.85.29h0a1.32,1.32,0,0,0,.82-.29,22.85,22.85,0,0,0,3.86-3.93.25.25,0,0,1,.22-.11h4.41a.14.14,0,0,1,.09,0,.12.12,0,0,1,0,.1,11.53,11.53,0,0,1-1.53,3.09.14.14,0,0,1-.2,0c-.62-.36-1.31-.74-2.06-1.14a1.21,1.21,0,0,0-.61-.16l-.25,0a1.2,1.2,0,0,0-.76.43l-.48.53a.8.8,0,0,0-.22.57.68.68,0,0,0,0,.14.78.78,0,0,0,.41.61l2,1.29c.07,0,.07.1,0,.16a14.92,14.92,0,0,1-5.48,3.4.62.62,0,0,0-.39.47.5.5,0,0,0,0,.12.59.59,0,0,0,.22.45l1,.83a1.8,1.8,0,0,0,.83.41l.29,0a1.68,1.68,0,0,0,.64-.14A17.2,17.2,0,0,0,95.13,227a.12.12,0,0,1,.19,0l.79.57a1,1,0,0,0,.62.22h.14a1,1,0,0,0,.68-.39l.73-1a.9.9,0,0,0,.21-.58,1.1,1.1,0,0,0,0-.18.84.84,0,0,0-.41-.66l-.76-.5a.12.12,0,0,1,0-.18,20.46,20.46,0,0,0,2.35-4.61l.23-.57a1.24,1.24,0,0,0,.11-.49,1.12,1.12,0,0,0,0-.32A1,1,0,0,0,99.43,217.7Z"/><path class="cls-6" d="M121.55,223.19h-.07c-.47,0-.86.05-1.2.05H110.6c-.53,0-1.23,0-2.1-.07h0a1,1,0,0,0-1,1v1.38a.91.91,0,0,0,.33.72.89.89,0,0,0,.67.28h0c.79,0,1.49-.05,2.1-.05h9.68c.3,0,.7,0,1.2.05h.07a.93.93,0,0,0,.66-.27,1,1,0,0,0,.32-.73v-1.38a.91.91,0,0,0-.32-.7A1,1,0,0,0,121.55,223.19Z"/><path class="cls-6" d="M133.22,222.39a2.45,2.45,0,0,0-1.8.74,2.56,2.56,0,0,0,0,3.6,2.55,2.55,0,1,0,1.8-4.34Z"/><path class="cls-6" d="M159.12,219l-.47-.28a2.77,2.77,0,0,0-1.47-.38l-.45,0a5.18,5.18,0,0,1-.76,0h-2.82a.07.07,0,0,1-.06,0,.08.08,0,0,1,0-.08c.19-.31.36-.58.5-.82a.8.8,0,0,0,.13-.43.65.65,0,0,0-.06-.26.74.74,0,0,0-.5-.5l-1.22-.41a.93.93,0,0,0-.32-.05,1,1,0,0,0-.48.12,1.15,1.15,0,0,0-.56.59,7.69,7.69,0,0,1-.6,1.19l-.78,1.16c-.24.33-.56.73-.95,1.21a13.67,13.67,0,0,1-1.36,1.41,14.56,14.56,0,0,1-1.7,1.34.75.75,0,0,0-.34.63.7.7,0,0,0,.31.57l.78.58a1.43,1.43,0,0,0,.85.29,1.4,1.4,0,0,0,.84-.27,22.88,22.88,0,0,0,3.67-3.63.26.26,0,0,1,.21-.1h4.27c.1,0,.13,0,.11.12a10.47,10.47,0,0,1-.91,2.25,10.25,10.25,0,0,1-1.48,2.18,14.45,14.45,0,0,1-2.65,2.36,15.74,15.74,0,0,1-3.72,1.79.6.6,0,0,0-.41.46.66.66,0,0,0,0,.14.54.54,0,0,0,.21.43l1.05.94a1.53,1.53,0,0,0,.83.39,1.32,1.32,0,0,0,.27,0,1.53,1.53,0,0,0,.64-.14,18.77,18.77,0,0,0,3.67-2.14,16,16,0,0,0,2.77-2.68,18.48,18.48,0,0,0,3.15-6c.06-.18.14-.37.23-.57a1.08,1.08,0,0,0,.11-.5,1.73,1.73,0,0,0,0-.32A1.21,1.21,0,0,0,159.12,219Z"/><path class="cls-6" d="M177.71,223.08a.76.76,0,0,0-.6-.38H177a.77.77,0,0,0-.58.25,20.18,20.18,0,0,1-4,3.11,20.55,20.55,0,0,1-4.22,2,.1.1,0,0,1-.09,0,.11.11,0,0,1,0-.08v-8.84c0-.43,0-.85.05-1.27a.36.36,0,0,0,0-.1.88.88,0,0,0-.25-.63.87.87,0,0,0-.68-.3h-1.37a.85.85,0,0,0-.66.3.93.93,0,0,0-.23.61v.12a9.37,9.37,0,0,1,.09,1.27v9.57a1.67,1.67,0,0,1,0,.34v.25a1.83,1.83,0,0,0,.54,1.46l.51.44a1.44,1.44,0,0,0,1,.36,2.22,2.22,0,0,0,.76-.15,2.08,2.08,0,0,1,.32-.1,25.25,25.25,0,0,0,9.82-5.84,1.17,1.17,0,0,0,.36-.8.51.51,0,0,0,0-.13,1.26,1.26,0,0,0-.23-.72Z"/><path class="cls-6" d="M196.43,217.61a2.21,2.21,0,0,0-1.57-.58h-.24c-.43,0-.81.05-1.14.05H184a11.48,11.48,0,0,1-1.28-.07h-.11a.93.93,0,0,0-.62.23.9.9,0,0,0-.31.69v.95a1,1,0,0,0,.95.94h.09c.44,0,.86,0,1.28,0h8.86a.07.07,0,0,1,.06,0,.08.08,0,0,1,0,.08,6.71,6.71,0,0,1-.85,1.1,11.68,11.68,0,0,1-1.25,1.18.79.79,0,0,0-.32.66.71.71,0,0,0,.3.6l.63.52a1.28,1.28,0,0,0,.83.3,1.13,1.13,0,0,0,.8-.32,17.53,17.53,0,0,0,1.91-2.06,22.52,22.52,0,0,0,1.58-2.26l.18-.27a1.12,1.12,0,0,0,.23-.69v-.11a1,1,0,0,0-.36-.73Z"/><path class="cls-6" d="M188.85,221h-1.1a.85.85,0,0,0-.68.32.91.91,0,0,0-.25.64l0,.86a10.36,10.36,0,0,1-.51,3.64,5.71,5.71,0,0,1-2,2.41,7.64,7.64,0,0,1-1.11.71.64.64,0,0,0-.37.5.74.74,0,0,0,0,.12.56.56,0,0,0,.23.45l1,.76a1.36,1.36,0,0,0,.83.34l.13,0a1.34,1.34,0,0,0,.74-.23,9.53,9.53,0,0,0,1.45-1.15,8.74,8.74,0,0,0,1.06-1.21,7,7,0,0,0,.74-1.32,9.75,9.75,0,0,0,.48-1.36,11.13,11.13,0,0,0,.27-1.45c.06-.55.11-1,.12-1.47s0-.93,0-1.53a1,1,0,0,0-.3-.74A1,1,0,0,0,188.85,221Z"/><rect class="cls-6" x="280.37" y="157.93" width="37.41" height="26.63" rx="5.55" ry="5.55" transform="translate(60.92 420.35) rotate(-76.08)"/><rect class="cls-6" x="313.92" y="165.92" width="37.41" height="27.27" rx="5.55" ry="5.55" transform="translate(78.33 459.23) rotate(-76.08)"/><rect class="cls-6" x="293.12" y="122.35" width="19.02" height="34.88" rx="5.55" ry="5.55" transform="translate(94.16 399.91) rotate(-76.08)"/><rect class="cls-6" x="334.67" y="132.32" width="19.02" height="35.51" rx="5.55" ry="5.55" transform="translate(115.71 448.05) rotate(-76.08)"/><path class="cls-6" d="M360,123.28a9.3,9.3,0,0,0-7.37-1.62,9.26,9.26,0,0,0,0-16c-3.57-2.09-9.79-1.55-14.56,5.19-5.1,7.2-6.91,16-11.55,20.77-1.85-6.42.64-15-.51-23.76-1.07-8.19-6.32-11.57-10.45-11.38A9.26,9.26,0,0,0,308,110.61a9.25,9.25,0,0,0-15,5.59c-.72,4.07,1.94,9.72,9.92,11.85,8.53,2.28,17.38.93,23.5,3.62h0l.05,0v0c6.67.48,13.86,5.81,22.47,7.77,8.05,1.84,13-1.91,14.3-5.85A9.28,9.28,0,0,0,360,123.28Zm-51.26,1.43c-4.52-1.21-6-4.4-5.62-6.71a5.24,5.24,0,0,1,8.5-3.17,5.24,5.24,0,0,1,4.25-8c2.35-.11,5.32,1.81,5.93,6.45.65,5-.78,9.87.3,13.51C318.6,125.23,313.56,126,308.71,124.71Zm44.77,5.78c-.71,2.23-3.54,4.35-8.1,3.31-4.9-1.12-9-4.16-12.79-4.41,2.67-2.71,3.68-7.71,6.59-11.81,2.7-3.82,6.22-4.12,8.25-2.94a5.25,5.25,0,0,1,0,9.08,5.24,5.24,0,0,1,6,6.77Z"/><path class="cls-7" d="M53,71H47a2.5,2.5,0,0,0,0,5h6a2.5,2.5,0,0,0,0-5Z"/><path class="cls-7" d="M145.16,71H133.64a2.5,2.5,0,0,0,0,5h11.52a2.5,2.5,0,0,0,0-5Z"/><path class="cls-7" d="M191.24,71H179.72a2.5,2.5,0,0,0,0,5h11.52a2.5,2.5,0,0,0,0-5Z"/><path class="cls-7" d="M168.2,71H156.68a2.5,2.5,0,0,0,0,5H168.2a2.5,2.5,0,0,0,0-5Z"/><path class="cls-7" d="M76,71H64.52a2.5,2.5,0,1,0,0,5H76a2.5,2.5,0,1,0,0-5Z"/><path class="cls-7" d="M99.08,71H87.56a2.5,2.5,0,0,0,0,5H99.08a2.5,2.5,0,0,0,0-5Z"/><path class="cls-7" d="M122.12,71H110.6a2.5,2.5,0,0,0,0,5h11.52a2.5,2.5,0,0,0,0-5Z"/><path class="cls-7" d="M306.44,71H294.92a2.5,2.5,0,0,0,0,5h11.52a2.5,2.5,0,0,0,0-5Z"/><path class="cls-7" d="M283.4,71H271.88a2.5,2.5,0,0,0,0,5H283.4a2.5,2.5,0,0,0,0-5Z"/><path class="cls-7" d="M329.48,71H318a2.5,2.5,0,0,0,0,5h11.52a2.5,2.5,0,0,0,0-5Z"/><path class="cls-7" d="M260.36,71H248.84a2.5,2.5,0,0,0,0,5h11.52a2.5,2.5,0,0,0,0-5Z"/><path class="cls-7" d="M237.32,71H225.8a2.5,2.5,0,0,0,0,5h11.52a2.5,2.5,0,0,0,0-5Z"/><path class="cls-7" d="M214.28,71H202.76a2.5,2.5,0,0,0,0,5h11.52a2.5,2.5,0,0,0,0-5Z"/><path class="cls-7" d="M347,71h-6a2.5,2.5,0,0,0,0,5h6a2.5,2.5,0,0,0,0-5Z"/></g></g></svg>