<svg xmlns="http://www.w3.org/2000/svg" xmlns:xlink="http://www.w3.org/1999/xlink" viewBox="0 0 288 289.29"><defs><style>.cls-1{fill:none;clip-rule:evenodd;}.cls-2{fill:#fff;fill-rule:evenodd;}.cls-3{clip-path:url(#clip-path);}.cls-4{fill:#040000;}</style><clipPath id="clip-path"><polygon class="cls-1" points="288 289.29 0 289.29 0 1.29 288 1.29 288 289.29 288 289.29"/></clipPath></defs><title>アセット 70</title><g id="レイヤー_2" data-name="レイヤー 2"><g id="レイヤー_1-2" data-name="レイヤー 1"><polygon class="cls-2" points="288 289.29 0 289.29 0 1.29 288 1.29 288 289.29 288 289.29"/><g class="cls-3"><path class="cls-4" d="M11.61,2.56a1.28,1.28,0,1,0-1.28-1.28,1.28,1.28,0,0,0,1.28,1.28Z"/><path class="cls-4" d="M26,2.56a1.28,1.28,0,1,0-1.28-1.28A1.28,1.28,0,0,0,26,2.56Z"/><path class="cls-4" d="M40.41,2.56a1.28,1.28,0,1,0-1.28-1.28,1.28,1.28,0,0,0,1.28,1.28Z"/><path class="cls-4" d="M54.81,2.56a1.28,1.28,0,1,0-1.28-1.28,1.28,1.28,0,0,0,1.28,1.28Z"/><path class="cls-4" d="M69.21,2.56a1.28,1.28,0,1,0-1.28-1.28,1.28,1.28,0,0,0,1.28,1.28Z"/><path class="cls-4" d="M83.61,2.56a1.28,1.28,0,1,0-1.28-1.28,1.28,1.28,0,0,0,1.28,1.28Z"/><path class="cls-4" d="M98,2.56a1.28,1.28,0,1,0-1.28-1.28A1.28,1.28,0,0,0,98,2.56Z"/><path class="cls-4" d="M112.41,2.56a1.28,1.28,0,1,0-1.28-1.28,1.28,1.28,0,0,0,1.28,1.28Z"/><path class="cls-4" d="M126.81,2.56a1.28,1.28,0,1,0-1.28-1.28,1.28,1.28,0,0,0,1.28,1.28Z"/><path class="cls-4" d="M141.21,2.56a1.28,1.28,0,1,0-1.28-1.28,1.28,1.28,0,0,0,1.28,1.28Z"/><path class="cls-4" d="M155.61,2.56a1.28,1.28,0,1,0-1.28-1.28,1.28,1.28,0,0,0,1.28,1.28Z"/><path class="cls-4" d="M170,2.56a1.28,1.28,0,1,0-1.28-1.28A1.28,1.28,0,0,0,170,2.56Z"/><path class="cls-4" d="M184.41,2.56a1.28,1.28,0,1,0-1.28-1.28,1.28,1.28,0,0,0,1.28,1.28Z"/><path class="cls-4" d="M198.81,2.56a1.28,1.28,0,1,0-1.28-1.28,1.28,1.28,0,0,0,1.28,1.28Z"/><path class="cls-4" d="M213.21,2.56a1.28,1.28,0,1,0-1.28-1.28,1.28,1.28,0,0,0,1.28,1.28Z"/><path class="cls-4" d="M227.61,2.56a1.28,1.28,0,1,0-1.28-1.28,1.28,1.28,0,0,0,1.28,1.28Z"/><path class="cls-4" d="M242,2.56a1.28,1.28,0,1,0-1.28-1.28A1.28,1.28,0,0,0,242,2.56Z"/><path class="cls-4" d="M256.41,2.56a1.28,1.28,0,1,0-1.28-1.28,1.28,1.28,0,0,0,1.28,1.28Z"/><path class="cls-4" d="M270.81,2.56a1.28,1.28,0,1,0-1.28-1.28,1.28,1.28,0,0,0,1.28,1.28Z"/><path class="cls-4" d="M285.21,2.56a1.28,1.28,0,1,0-1.28-1.28,1.28,1.28,0,0,0,1.28,1.28Z"/></g><path class="cls-4" d="M4.41,17a1.28,1.28,0,1,0-1.28-1.28A1.28,1.28,0,0,0,4.41,17Z"/><path class="cls-4" d="M18.81,17a1.28,1.28,0,1,0-1.28-1.28A1.28,1.28,0,0,0,18.81,17Z"/><path class="cls-4" d="M33.21,17a1.28,1.28,0,1,0-1.28-1.28A1.28,1.28,0,0,0,33.21,17Z"/><path class="cls-4" d="M47.61,17a1.28,1.28,0,1,0-1.28-1.28A1.28,1.28,0,0,0,47.61,17Z"/><path class="cls-4" d="M62,17a1.28,1.28,0,1,0-1.28-1.28A1.28,1.28,0,0,0,62,17Z"/><path class="cls-4" d="M76.41,17a1.28,1.28,0,1,0-1.28-1.28A1.28,1.28,0,0,0,76.41,17Z"/><path class="cls-4" d="M90.81,17a1.28,1.28,0,1,0-1.28-1.28A1.28,1.28,0,0,0,90.81,17Z"/><path class="cls-4" d="M105.21,17a1.28,1.28,0,1,0-1.28-1.28A1.28,1.28,0,0,0,105.21,17Z"/><path class="cls-4" d="M119.61,17a1.28,1.28,0,1,0-1.28-1.28A1.28,1.28,0,0,0,119.61,17Z"/><path class="cls-4" d="M134,17a1.28,1.28,0,1,0-1.28-1.28A1.28,1.28,0,0,0,134,17Z"/><path class="cls-4" d="M148.41,17a1.28,1.28,0,1,0-1.28-1.28A1.28,1.28,0,0,0,148.41,17Z"/><path class="cls-4" d="M162.81,17a1.28,1.28,0,1,0-1.28-1.28A1.28,1.28,0,0,0,162.81,17Z"/><path class="cls-4" d="M177.21,17a1.28,1.28,0,1,0-1.28-1.28A1.28,1.28,0,0,0,177.21,17Z"/><path class="cls-4" d="M191.61,17a1.28,1.28,0,1,0-1.28-1.28A1.28,1.28,0,0,0,191.61,17Z"/><path class="cls-4" d="M206,17a1.28,1.28,0,1,0-1.28-1.28A1.28,1.28,0,0,0,206,17Z"/><path class="cls-4" d="M220.41,17a1.28,1.28,0,1,0-1.28-1.28A1.28,1.28,0,0,0,220.41,17Z"/><path class="cls-4" d="M234.81,17a1.28,1.28,0,1,0-1.28-1.28A1.28,1.28,0,0,0,234.81,17Z"/><path class="cls-4" d="M249.21,17a1.28,1.28,0,1,0-1.28-1.28A1.28,1.28,0,0,0,249.21,17Z"/><path class="cls-4" d="M263.61,17a1.28,1.28,0,1,0-1.28-1.28A1.28,1.28,0,0,0,263.61,17Z"/><path class="cls-4" d="M278,17a1.28,1.28,0,1,0-1.28-1.28A1.28,1.28,0,0,0,278,17Z"/><path class="cls-4" d="M11.61,31.36a1.28,1.28,0,1,0-1.28-1.28,1.28,1.28,0,0,0,1.28,1.28Z"/><path class="cls-4" d="M26,31.36a1.28,1.28,0,1,0-1.28-1.28A1.28,1.28,0,0,0,26,31.36Z"/><path class="cls-4" d="M40.41,31.36a1.28,1.28,0,1,0-1.28-1.28,1.28,1.28,0,0,0,1.28,1.28Z"/><path class="cls-4" d="M54.81,31.36a1.28,1.28,0,1,0-1.28-1.28,1.28,1.28,0,0,0,1.28,1.28Z"/><path class="cls-4" d="M69.21,31.36a1.28,1.28,0,1,0-1.28-1.28,1.28,1.28,0,0,0,1.28,1.28Z"/><path class="cls-4" d="M83.61,31.36a1.28,1.28,0,1,0-1.28-1.28,1.28,1.28,0,0,0,1.28,1.28Z"/><path class="cls-4" d="M98,31.36a1.28,1.28,0,1,0-1.28-1.28A1.28,1.28,0,0,0,98,31.36Z"/><path class="cls-4" d="M112.41,31.36a1.28,1.28,0,1,0-1.28-1.28,1.28,1.28,0,0,0,1.28,1.28Z"/><path class="cls-4" d="M126.81,31.36a1.28,1.28,0,1,0-1.28-1.28,1.28,1.28,0,0,0,1.28,1.28Z"/><path class="cls-4" d="M141.21,31.36a1.28,1.28,0,1,0-1.28-1.28,1.28,1.28,0,0,0,1.28,1.28Z"/><path class="cls-4" d="M155.61,31.36a1.28,1.28,0,1,0-1.28-1.28,1.28,1.28,0,0,0,1.28,1.28Z"/><path class="cls-4" d="M170,31.36a1.28,1.28,0,1,0-1.28-1.28A1.28,1.28,0,0,0,170,31.36Z"/><path class="cls-4" d="M184.41,31.36a1.28,1.28,0,1,0-1.28-1.28,1.28,1.28,0,0,0,1.28,1.28Z"/><path class="cls-4" d="M198.81,31.36a1.28,1.28,0,1,0-1.28-1.28,1.28,1.28,0,0,0,1.28,1.28Z"/><path class="cls-4" d="M213.21,31.36a1.28,1.28,0,1,0-1.28-1.28,1.28,1.28,0,0,0,1.28,1.28Z"/><path class="cls-4" d="M227.61,31.36a1.28,1.28,0,1,0-1.28-1.28,1.28,1.28,0,0,0,1.28,1.28Z"/><path class="cls-4" d="M242,31.36a1.28,1.28,0,1,0-1.28-1.28A1.28,1.28,0,0,0,242,31.36Z"/><path class="cls-4" d="M256.41,31.36a1.28,1.28,0,1,0-1.28-1.28,1.28,1.28,0,0,0,1.28,1.28Z"/><path class="cls-4" d="M270.81,31.36a1.28,1.28,0,1,0-1.28-1.28,1.28,1.28,0,0,0,1.28,1.28Z"/><path class="cls-4" d="M285.21,31.36a1.28,1.28,0,1,0-1.28-1.28,1.28,1.28,0,0,0,1.28,1.28Z"/><path class="cls-4" d="M4.41,45.76a1.28,1.28,0,1,0-1.28-1.28,1.28,1.28,0,0,0,1.28,1.28Z"/><path class="cls-4" d="M18.81,45.76a1.28,1.28,0,1,0-1.28-1.28,1.28,1.28,0,0,0,1.28,1.28Z"/><path class="cls-4" d="M33.21,45.76a1.28,1.28,0,1,0-1.28-1.28,1.28,1.28,0,0,0,1.28,1.28Z"/><path class="cls-4" d="M47.61,45.76a1.28,1.28,0,1,0-1.28-1.28,1.28,1.28,0,0,0,1.28,1.28Z"/><path class="cls-4" d="M62,45.76a1.28,1.28,0,1,0-1.28-1.28A1.28,1.28,0,0,0,62,45.76Z"/><path class="cls-4" d="M76.41,45.76a1.28,1.28,0,1,0-1.28-1.28,1.28,1.28,0,0,0,1.28,1.28Z"/><path class="cls-4" d="M90.81,45.76a1.28,1.28,0,1,0-1.28-1.28,1.28,1.28,0,0,0,1.28,1.28Z"/><path class="cls-4" d="M105.21,45.76a1.28,1.28,0,1,0-1.28-1.28,1.28,1.28,0,0,0,1.28,1.28Z"/><path class="cls-4" d="M119.61,45.76a1.28,1.28,0,1,0-1.28-1.28,1.28,1.28,0,0,0,1.28,1.28Z"/><path class="cls-4" d="M134,45.76a1.28,1.28,0,1,0-1.28-1.28A1.28,1.28,0,0,0,134,45.76Z"/><path class="cls-4" d="M148.41,45.76a1.28,1.28,0,1,0-1.28-1.28,1.28,1.28,0,0,0,1.28,1.28Z"/><path class="cls-4" d="M162.81,45.76a1.28,1.28,0,1,0-1.28-1.28,1.28,1.28,0,0,0,1.28,1.28Z"/><path class="cls-4" d="M177.21,45.76a1.28,1.28,0,1,0-1.28-1.28,1.28,1.28,0,0,0,1.28,1.28Z"/><path class="cls-4" d="M191.61,45.76a1.28,1.28,0,1,0-1.28-1.28,1.28,1.28,0,0,0,1.28,1.28Z"/><path class="cls-4" d="M206,45.76a1.28,1.28,0,1,0-1.28-1.28A1.28,1.28,0,0,0,206,45.76Z"/><path class="cls-4" d="M220.41,45.76a1.28,1.28,0,1,0-1.28-1.28,1.28,1.28,0,0,0,1.28,1.28Z"/><path class="cls-4" d="M234.81,45.76a1.28,1.28,0,1,0-1.28-1.28,1.28,1.28,0,0,0,1.28,1.28Z"/><path class="cls-4" d="M249.21,45.76a1.28,1.28,0,1,0-1.28-1.28,1.28,1.28,0,0,0,1.28,1.28Z"/><path class="cls-4" d="M263.61,45.76a1.28,1.28,0,1,0-1.28-1.28,1.28,1.28,0,0,0,1.28,1.28Z"/><path class="cls-4" d="M278,45.76a1.28,1.28,0,1,0-1.28-1.28A1.28,1.28,0,0,0,278,45.76Z"/><path class="cls-4" d="M11.61,60.16a1.28,1.28,0,1,0-1.28-1.28,1.28,1.28,0,0,0,1.28,1.28Z"/><path class="cls-4" d="M26,60.16a1.28,1.28,0,1,0-1.28-1.28A1.28,1.28,0,0,0,26,60.16Z"/><path class="cls-4" d="M40.41,60.16a1.28,1.28,0,1,0-1.28-1.28,1.28,1.28,0,0,0,1.28,1.28Z"/><path class="cls-4" d="M54.81,60.16a1.28,1.28,0,1,0-1.28-1.28,1.28,1.28,0,0,0,1.28,1.28Z"/><path class="cls-4" d="M69.21,60.16a1.28,1.28,0,1,0-1.28-1.28,1.28,1.28,0,0,0,1.28,1.28Z"/><path class="cls-4" d="M83.61,60.16a1.28,1.28,0,1,0-1.28-1.28,1.28,1.28,0,0,0,1.28,1.28Z"/><path class="cls-4" d="M98,60.16a1.28,1.28,0,1,0-1.28-1.28A1.28,1.28,0,0,0,98,60.16Z"/><path class="cls-4" d="M112.41,60.16a1.28,1.28,0,1,0-1.28-1.28,1.28,1.28,0,0,0,1.28,1.28Z"/><path class="cls-4" d="M126.81,60.16a1.28,1.28,0,1,0-1.28-1.28,1.28,1.28,0,0,0,1.28,1.28Z"/><path class="cls-4" d="M141.21,60.16a1.28,1.28,0,1,0-1.28-1.28,1.28,1.28,0,0,0,1.28,1.28Z"/><path class="cls-4" d="M155.61,60.16a1.28,1.28,0,1,0-1.28-1.28,1.28,1.28,0,0,0,1.28,1.28Z"/><path class="cls-4" d="M170,60.16a1.28,1.28,0,1,0-1.28-1.28A1.28,1.28,0,0,0,170,60.16Z"/><path class="cls-4" d="M184.41,60.16a1.28,1.28,0,1,0-1.28-1.28,1.28,1.28,0,0,0,1.28,1.28Z"/><path class="cls-4" d="M198.81,60.16a1.28,1.28,0,1,0-1.28-1.28,1.28,1.28,0,0,0,1.28,1.28Z"/><path class="cls-4" d="M213.21,60.16a1.28,1.28,0,1,0-1.28-1.28,1.28,1.28,0,0,0,1.28,1.28Z"/><path class="cls-4" d="M227.61,60.16a1.28,1.28,0,1,0-1.28-1.28,1.28,1.28,0,0,0,1.28,1.28Z"/><path class="cls-4" d="M242,60.16a1.28,1.28,0,1,0-1.28-1.28A1.28,1.28,0,0,0,242,60.16Z"/><path class="cls-4" d="M256.41,60.16a1.28,1.28,0,1,0-1.28-1.28,1.28,1.28,0,0,0,1.28,1.28Z"/><path class="cls-4" d="M270.81,60.16a1.28,1.28,0,1,0-1.28-1.28,1.28,1.28,0,0,0,1.28,1.28Z"/><path class="cls-4" d="M285.21,60.16a1.28,1.28,0,1,0-1.28-1.28,1.28,1.28,0,0,0,1.28,1.28Z"/><path class="cls-4" d="M4.41,74.56a1.28,1.28,0,1,0-1.28-1.28,1.28,1.28,0,0,0,1.28,1.28Z"/><path class="cls-4" d="M18.81,74.56a1.28,1.28,0,1,0-1.28-1.28,1.28,1.28,0,0,0,1.28,1.28Z"/><path class="cls-4" d="M33.21,74.56a1.28,1.28,0,1,0-1.28-1.28,1.28,1.28,0,0,0,1.28,1.28Z"/><path class="cls-4" d="M47.61,74.56a1.28,1.28,0,1,0-1.28-1.28,1.28,1.28,0,0,0,1.28,1.28Z"/><path class="cls-4" d="M62,74.56a1.28,1.28,0,1,0-1.28-1.28A1.28,1.28,0,0,0,62,74.56Z"/><path class="cls-4" d="M76.41,74.56a1.28,1.28,0,1,0-1.28-1.28,1.28,1.28,0,0,0,1.28,1.28Z"/><path class="cls-4" d="M90.81,74.56a1.28,1.28,0,1,0-1.28-1.28,1.28,1.28,0,0,0,1.28,1.28Z"/><path class="cls-4" d="M105.21,74.56a1.28,1.28,0,1,0-1.28-1.28,1.28,1.28,0,0,0,1.28,1.28Z"/><path class="cls-4" d="M119.61,74.56a1.28,1.28,0,1,0-1.28-1.28,1.28,1.28,0,0,0,1.28,1.28Z"/><path class="cls-4" d="M134,74.56a1.28,1.28,0,1,0-1.28-1.28A1.28,1.28,0,0,0,134,74.56Z"/><path class="cls-4" d="M148.41,74.56a1.28,1.28,0,1,0-1.28-1.28,1.28,1.28,0,0,0,1.28,1.28Z"/><path class="cls-4" d="M162.81,74.56a1.28,1.28,0,1,0-1.28-1.28,1.28,1.28,0,0,0,1.28,1.28Z"/><path class="cls-4" d="M177.21,74.56a1.28,1.28,0,1,0-1.28-1.28,1.28,1.28,0,0,0,1.28,1.28Z"/><path class="cls-4" d="M191.61,74.56a1.28,1.28,0,1,0-1.28-1.28,1.28,1.28,0,0,0,1.28,1.28Z"/><path class="cls-4" d="M206,74.56a1.28,1.28,0,1,0-1.28-1.28A1.28,1.28,0,0,0,206,74.56Z"/><path class="cls-4" d="M220.41,74.56a1.28,1.28,0,1,0-1.28-1.28,1.28,1.28,0,0,0,1.28,1.28Z"/><path class="cls-4" d="M234.81,74.56a1.28,1.28,0,1,0-1.28-1.28,1.28,1.28,0,0,0,1.28,1.28Z"/><path class="cls-4" d="M249.21,74.56a1.28,1.28,0,1,0-1.28-1.28,1.28,1.28,0,0,0,1.28,1.28Z"/><path class="cls-4" d="M263.61,74.56a1.28,1.28,0,1,0-1.28-1.28,1.28,1.28,0,0,0,1.28,1.28Z"/><path class="cls-4" d="M278,74.56a1.28,1.28,0,1,0-1.28-1.28A1.28,1.28,0,0,0,278,74.56Z"/><path class="cls-4" d="M11.61,89a1.28,1.28,0,1,0-1.28-1.28A1.28,1.28,0,0,0,11.61,89Z"/><path class="cls-4" d="M26,89a1.28,1.28,0,1,0-1.28-1.28A1.28,1.28,0,0,0,26,89Z"/><path class="cls-4" d="M40.41,89a1.28,1.28,0,1,0-1.28-1.28A1.28,1.28,0,0,0,40.41,89Z"/><path class="cls-4" d="M54.81,89a1.28,1.28,0,1,0-1.28-1.28A1.28,1.28,0,0,0,54.81,89Z"/><path class="cls-4" d="M69.21,89a1.28,1.28,0,1,0-1.28-1.28A1.28,1.28,0,0,0,69.21,89Z"/><path class="cls-4" d="M83.61,89a1.28,1.28,0,1,0-1.28-1.28A1.28,1.28,0,0,0,83.61,89Z"/><path class="cls-4" d="M98,89a1.28,1.28,0,1,0-1.28-1.28A1.28,1.28,0,0,0,98,89Z"/><path class="cls-4" d="M112.41,89a1.28,1.28,0,1,0-1.28-1.28A1.28,1.28,0,0,0,112.41,89Z"/><path class="cls-4" d="M126.81,89a1.28,1.28,0,1,0-1.28-1.28A1.28,1.28,0,0,0,126.81,89Z"/><path class="cls-4" d="M141.21,89a1.28,1.28,0,1,0-1.28-1.28A1.28,1.28,0,0,0,141.21,89Z"/><path class="cls-4" d="M155.61,89a1.28,1.28,0,1,0-1.28-1.28A1.28,1.28,0,0,0,155.61,89Z"/><path class="cls-4" d="M170,89a1.28,1.28,0,1,0-1.28-1.28A1.28,1.28,0,0,0,170,89Z"/><path class="cls-4" d="M184.41,89a1.28,1.28,0,1,0-1.28-1.28A1.28,1.28,0,0,0,184.41,89Z"/><path class="cls-4" d="M198.81,89a1.28,1.28,0,1,0-1.28-1.28A1.28,1.28,0,0,0,198.81,89Z"/><path class="cls-4" d="M213.21,89a1.28,1.28,0,1,0-1.28-1.28A1.28,1.28,0,0,0,213.21,89Z"/><path class="cls-4" d="M227.61,89a1.28,1.28,0,1,0-1.28-1.28A1.28,1.28,0,0,0,227.61,89Z"/><path class="cls-4" d="M242,89a1.28,1.28,0,1,0-1.28-1.28A1.28,1.28,0,0,0,242,89Z"/><path class="cls-4" d="M256.41,89a1.28,1.28,0,1,0-1.28-1.28A1.28,1.28,0,0,0,256.41,89Z"/><path class="cls-4" d="M270.81,89a1.28,1.28,0,1,0-1.28-1.28A1.28,1.28,0,0,0,270.81,89Z"/><path class="cls-4" d="M285.21,89a1.28,1.28,0,1,0-1.28-1.28A1.28,1.28,0,0,0,285.21,89Z"/><path class="cls-4" d="M4.41,103.36a1.28,1.28,0,1,0-1.28-1.28,1.28,1.28,0,0,0,1.28,1.28Z"/><path class="cls-4" d="M18.81,103.36a1.28,1.28,0,1,0-1.28-1.28,1.28,1.28,0,0,0,1.28,1.28Z"/><path class="cls-4" d="M33.21,103.36a1.28,1.28,0,1,0-1.28-1.28,1.28,1.28,0,0,0,1.28,1.28Z"/><path class="cls-4" d="M47.61,103.36a1.28,1.28,0,1,0-1.28-1.28,1.28,1.28,0,0,0,1.28,1.28Z"/><path class="cls-4" d="M62,103.36a1.28,1.28,0,1,0-1.28-1.28A1.28,1.28,0,0,0,62,103.36Z"/><path class="cls-4" d="M76.41,103.36a1.28,1.28,0,1,0-1.28-1.28,1.28,1.28,0,0,0,1.28,1.28Z"/><path class="cls-4" d="M90.81,103.36a1.28,1.28,0,1,0-1.28-1.28,1.28,1.28,0,0,0,1.28,1.28Z"/><path class="cls-4" d="M105.21,103.36a1.28,1.28,0,1,0-1.28-1.28,1.28,1.28,0,0,0,1.28,1.28Z"/><path class="cls-4" d="M119.61,103.36a1.28,1.28,0,1,0-1.28-1.28,1.28,1.28,0,0,0,1.28,1.28Z"/><path class="cls-4" d="M134,103.36a1.28,1.28,0,1,0-1.28-1.28,1.28,1.28,0,0,0,1.28,1.28Z"/><path class="cls-4" d="M148.41,103.36a1.28,1.28,0,1,0-1.28-1.28,1.28,1.28,0,0,0,1.28,1.28Z"/><path class="cls-4" d="M162.81,103.36a1.28,1.28,0,1,0-1.28-1.28,1.28,1.28,0,0,0,1.28,1.28Z"/><path class="cls-4" d="M177.21,103.36a1.28,1.28,0,1,0-1.28-1.28,1.28,1.28,0,0,0,1.28,1.28Z"/><path class="cls-4" d="M191.61,103.36a1.28,1.28,0,1,0-1.28-1.28,1.28,1.28,0,0,0,1.28,1.28Z"/><path class="cls-4" d="M206,103.36a1.28,1.28,0,1,0-1.28-1.28,1.28,1.28,0,0,0,1.28,1.28Z"/><path class="cls-4" d="M220.41,103.36a1.28,1.28,0,1,0-1.28-1.28,1.28,1.28,0,0,0,1.28,1.28Z"/><path class="cls-4" d="M234.81,103.36a1.28,1.28,0,1,0-1.28-1.28,1.28,1.28,0,0,0,1.28,1.28Z"/><path class="cls-4" d="M249.21,103.36a1.28,1.28,0,1,0-1.28-1.28,1.28,1.28,0,0,0,1.28,1.28Z"/><path class="cls-4" d="M263.61,103.36a1.28,1.28,0,1,0-1.28-1.28,1.28,1.28,0,0,0,1.28,1.28Z"/><path class="cls-4" d="M278,103.36a1.28,1.28,0,1,0-1.28-1.28,1.28,1.28,0,0,0,1.28,1.28Z"/><path class="cls-4" d="M11.61,117.76a1.28,1.28,0,1,0-1.28-1.28,1.28,1.28,0,0,0,1.28,1.28Z"/><path class="cls-4" d="M26,117.76a1.28,1.28,0,1,0-1.28-1.28A1.28,1.28,0,0,0,26,117.76Z"/><path class="cls-4" d="M40.41,117.76a1.28,1.28,0,1,0-1.28-1.28,1.28,1.28,0,0,0,1.28,1.28Z"/><path class="cls-4" d="M54.81,117.76a1.28,1.28,0,1,0-1.28-1.28,1.28,1.28,0,0,0,1.28,1.28Z"/><path class="cls-4" d="M69.21,117.76a1.28,1.28,0,1,0-1.28-1.28,1.28,1.28,0,0,0,1.28,1.28Z"/><path class="cls-4" d="M83.61,117.76a1.28,1.28,0,1,0-1.28-1.28,1.28,1.28,0,0,0,1.28,1.28Z"/><path class="cls-4" d="M98,117.76a1.28,1.28,0,1,0-1.28-1.28A1.28,1.28,0,0,0,98,117.76Z"/><path class="cls-4" d="M112.41,117.76a1.28,1.28,0,1,0-1.28-1.28,1.28,1.28,0,0,0,1.28,1.28Z"/><path class="cls-4" d="M126.81,117.76a1.28,1.28,0,1,0-1.28-1.28,1.28,1.28,0,0,0,1.28,1.28Z"/><path class="cls-4" d="M141.21,117.76a1.28,1.28,0,1,0-1.28-1.28,1.28,1.28,0,0,0,1.28,1.28Z"/><path class="cls-4" d="M155.61,117.76a1.28,1.28,0,1,0-1.28-1.28,1.28,1.28,0,0,0,1.28,1.28Z"/><path class="cls-4" d="M170,117.76a1.28,1.28,0,1,0-1.28-1.28,1.28,1.28,0,0,0,1.28,1.28Z"/><path class="cls-4" d="M184.41,117.76a1.28,1.28,0,1,0-1.28-1.28,1.28,1.28,0,0,0,1.28,1.28Z"/><path class="cls-4" d="M198.81,117.76a1.28,1.28,0,1,0-1.28-1.28,1.28,1.28,0,0,0,1.28,1.28Z"/><path class="cls-4" d="M213.21,117.76a1.28,1.28,0,1,0-1.28-1.28,1.28,1.28,0,0,0,1.28,1.28Z"/><path class="cls-4" d="M227.61,117.76a1.28,1.28,0,1,0-1.28-1.28,1.28,1.28,0,0,0,1.28,1.28Z"/><path class="cls-4" d="M242,117.76a1.28,1.28,0,1,0-1.28-1.28,1.28,1.28,0,0,0,1.28,1.28Z"/><path class="cls-4" d="M256.41,117.76a1.28,1.28,0,1,0-1.28-1.28,1.28,1.28,0,0,0,1.28,1.28Z"/><path class="cls-4" d="M270.81,117.76a1.28,1.28,0,1,0-1.28-1.28,1.28,1.28,0,0,0,1.28,1.28Z"/><path class="cls-4" d="M285.21,117.76a1.28,1.28,0,1,0-1.28-1.28,1.28,1.28,0,0,0,1.28,1.28Z"/><path class="cls-4" d="M4.41,132.16a1.28,1.28,0,1,0-1.28-1.28,1.28,1.28,0,0,0,1.28,1.28Z"/><path class="cls-4" d="M18.81,132.16a1.28,1.28,0,1,0-1.28-1.28,1.28,1.28,0,0,0,1.28,1.28Z"/><path class="cls-4" d="M33.21,132.16a1.28,1.28,0,1,0-1.28-1.28,1.28,1.28,0,0,0,1.28,1.28Z"/><path class="cls-4" d="M47.61,132.16a1.28,1.28,0,1,0-1.28-1.28,1.28,1.28,0,0,0,1.28,1.28Z"/><path class="cls-4" d="M62,132.16a1.28,1.28,0,1,0-1.28-1.28A1.28,1.28,0,0,0,62,132.16Z"/><path class="cls-4" d="M76.41,132.16a1.28,1.28,0,1,0-1.28-1.28,1.28,1.28,0,0,0,1.28,1.28Z"/><path class="cls-4" d="M90.81,132.16a1.28,1.28,0,1,0-1.28-1.28,1.28,1.28,0,0,0,1.28,1.28Z"/><path class="cls-4" d="M105.21,132.16a1.28,1.28,0,1,0-1.28-1.28,1.28,1.28,0,0,0,1.28,1.28Z"/><path class="cls-4" d="M119.61,132.16a1.28,1.28,0,1,0-1.28-1.28,1.28,1.28,0,0,0,1.28,1.28Z"/><path class="cls-4" d="M134,132.16a1.28,1.28,0,1,0-1.28-1.28,1.28,1.28,0,0,0,1.28,1.28Z"/><path class="cls-4" d="M148.41,132.16a1.28,1.28,0,1,0-1.28-1.28,1.28,1.28,0,0,0,1.28,1.28Z"/><path class="cls-4" d="M162.81,132.16a1.28,1.28,0,1,0-1.28-1.28,1.28,1.28,0,0,0,1.28,1.28Z"/><path class="cls-4" d="M177.21,132.16a1.28,1.28,0,1,0-1.28-1.28,1.28,1.28,0,0,0,1.28,1.28Z"/><path class="cls-4" d="M191.61,132.16a1.28,1.28,0,1,0-1.28-1.28,1.28,1.28,0,0,0,1.28,1.28Z"/><path class="cls-4" d="M206,132.16a1.28,1.28,0,1,0-1.28-1.28,1.28,1.28,0,0,0,1.28,1.28Z"/><path class="cls-4" d="M220.41,132.16a1.28,1.28,0,1,0-1.28-1.28,1.28,1.28,0,0,0,1.28,1.28Z"/><path class="cls-4" d="M234.81,132.16a1.28,1.28,0,1,0-1.28-1.28,1.28,1.28,0,0,0,1.28,1.28Z"/><path class="cls-4" d="M249.21,132.16a1.28,1.28,0,1,0-1.28-1.28,1.28,1.28,0,0,0,1.28,1.28Z"/><path class="cls-4" d="M263.61,132.16a1.28,1.28,0,1,0-1.28-1.28,1.28,1.28,0,0,0,1.28,1.28Z"/><path class="cls-4" d="M278,132.16a1.28,1.28,0,1,0-1.28-1.28,1.28,1.28,0,0,0,1.28,1.28Z"/><path class="cls-4" d="M11.61,146.56a1.28,1.28,0,1,0-1.28-1.28,1.28,1.28,0,0,0,1.28,1.28Z"/><path class="cls-4" d="M26,146.56a1.28,1.28,0,1,0-1.28-1.28A1.28,1.28,0,0,0,26,146.56Z"/><path class="cls-4" d="M40.41,146.56a1.28,1.28,0,1,0-1.28-1.28,1.28,1.28,0,0,0,1.28,1.28Z"/><path class="cls-4" d="M54.81,146.56a1.28,1.28,0,1,0-1.28-1.28,1.28,1.28,0,0,0,1.28,1.28Z"/><path class="cls-4" d="M69.21,146.56a1.28,1.28,0,1,0-1.28-1.28,1.28,1.28,0,0,0,1.28,1.28Z"/><path class="cls-4" d="M83.61,146.56a1.28,1.28,0,1,0-1.28-1.28,1.28,1.28,0,0,0,1.28,1.28Z"/><path class="cls-4" d="M98,146.56a1.28,1.28,0,1,0-1.28-1.28A1.28,1.28,0,0,0,98,146.56Z"/><path class="cls-4" d="M112.41,146.56a1.28,1.28,0,1,0-1.28-1.28,1.28,1.28,0,0,0,1.28,1.28Z"/><path class="cls-4" d="M126.81,146.56a1.28,1.28,0,1,0-1.28-1.28,1.28,1.28,0,0,0,1.28,1.28Z"/><path class="cls-4" d="M141.21,146.56a1.28,1.28,0,1,0-1.28-1.28,1.28,1.28,0,0,0,1.28,1.28Z"/><path class="cls-4" d="M155.61,146.56a1.28,1.28,0,1,0-1.28-1.28,1.28,1.28,0,0,0,1.28,1.28Z"/><path class="cls-4" d="M170,146.56a1.28,1.28,0,1,0-1.28-1.28,1.28,1.28,0,0,0,1.28,1.28Z"/><path class="cls-4" d="M184.41,146.56a1.28,1.28,0,1,0-1.28-1.28,1.28,1.28,0,0,0,1.28,1.28Z"/><path class="cls-4" d="M198.81,146.56a1.28,1.28,0,1,0-1.28-1.28,1.28,1.28,0,0,0,1.28,1.28Z"/><path class="cls-4" d="M213.21,146.56a1.28,1.28,0,1,0-1.28-1.28,1.28,1.28,0,0,0,1.28,1.28Z"/><path class="cls-4" d="M227.61,146.56a1.28,1.28,0,1,0-1.28-1.28,1.28,1.28,0,0,0,1.28,1.28Z"/><path class="cls-4" d="M242,146.56a1.28,1.28,0,1,0-1.28-1.28,1.28,1.28,0,0,0,1.28,1.28Z"/><path class="cls-4" d="M256.41,146.56a1.28,1.28,0,1,0-1.28-1.28,1.28,1.28,0,0,0,1.28,1.28Z"/><path class="cls-4" d="M270.81,146.56a1.28,1.28,0,1,0-1.28-1.28,1.28,1.28,0,0,0,1.28,1.28Z"/><path class="cls-4" d="M285.21,146.56a1.28,1.28,0,1,0-1.28-1.28,1.28,1.28,0,0,0,1.28,1.28Z"/><path class="cls-4" d="M4.41,161a1.28,1.28,0,1,0-1.28-1.28A1.28,1.28,0,0,0,4.41,161Z"/><path class="cls-4" d="M18.81,161a1.28,1.28,0,1,0-1.28-1.28A1.28,1.28,0,0,0,18.81,161Z"/><path class="cls-4" d="M33.21,161a1.28,1.28,0,1,0-1.28-1.28A1.28,1.28,0,0,0,33.21,161Z"/><path class="cls-4" d="M47.61,161a1.28,1.28,0,1,0-1.28-1.28A1.28,1.28,0,0,0,47.61,161Z"/><path class="cls-4" d="M62,161a1.28,1.28,0,1,0-1.28-1.28A1.28,1.28,0,0,0,62,161Z"/><path class="cls-4" d="M76.41,161a1.28,1.28,0,1,0-1.28-1.28A1.28,1.28,0,0,0,76.41,161Z"/><path class="cls-4" d="M90.81,161a1.28,1.28,0,1,0-1.28-1.28A1.28,1.28,0,0,0,90.81,161Z"/><path class="cls-4" d="M105.21,161a1.28,1.28,0,1,0-1.28-1.28,1.28,1.28,0,0,0,1.28,1.28Z"/><path class="cls-4" d="M119.61,161a1.28,1.28,0,1,0-1.28-1.28,1.28,1.28,0,0,0,1.28,1.28Z"/><path class="cls-4" d="M134,161a1.28,1.28,0,1,0-1.28-1.28A1.28,1.28,0,0,0,134,161Z"/><path class="cls-4" d="M148.41,161a1.28,1.28,0,1,0-1.28-1.28,1.28,1.28,0,0,0,1.28,1.28Z"/><path class="cls-4" d="M162.81,161a1.28,1.28,0,1,0-1.28-1.28,1.28,1.28,0,0,0,1.28,1.28Z"/><path class="cls-4" d="M177.21,161a1.28,1.28,0,1,0-1.28-1.28,1.28,1.28,0,0,0,1.28,1.28Z"/><path class="cls-4" d="M191.61,161a1.28,1.28,0,1,0-1.28-1.28,1.28,1.28,0,0,0,1.28,1.28Z"/><path class="cls-4" d="M206,161a1.28,1.28,0,1,0-1.28-1.28A1.28,1.28,0,0,0,206,161Z"/><path class="cls-4" d="M220.41,161a1.28,1.28,0,1,0-1.28-1.28,1.28,1.28,0,0,0,1.28,1.28Z"/><path class="cls-4" d="M234.81,161a1.28,1.28,0,1,0-1.28-1.28,1.28,1.28,0,0,0,1.28,1.28Z"/><path class="cls-4" d="M249.21,161a1.28,1.28,0,1,0-1.28-1.28,1.28,1.28,0,0,0,1.28,1.28Z"/><path class="cls-4" d="M263.61,161a1.28,1.28,0,1,0-1.28-1.28,1.28,1.28,0,0,0,1.28,1.28Z"/><path class="cls-4" d="M278,161a1.28,1.28,0,1,0-1.28-1.28A1.28,1.28,0,0,0,278,161Z"/><path class="cls-4" d="M11.61,175.36a1.28,1.28,0,1,0-1.28-1.28,1.28,1.28,0,0,0,1.28,1.28Z"/><path class="cls-4" d="M26,175.36a1.28,1.28,0,1,0-1.28-1.28A1.28,1.28,0,0,0,26,175.36Z"/><path class="cls-4" d="M40.41,175.36a1.28,1.28,0,1,0-1.28-1.28,1.28,1.28,0,0,0,1.28,1.28Z"/><path class="cls-4" d="M54.81,175.36a1.28,1.28,0,1,0-1.28-1.28,1.28,1.28,0,0,0,1.28,1.28Z"/><path class="cls-4" d="M69.21,175.36a1.28,1.28,0,1,0-1.28-1.28,1.28,1.28,0,0,0,1.28,1.28Z"/><path class="cls-4" d="M83.61,175.36a1.28,1.28,0,1,0-1.28-1.28,1.28,1.28,0,0,0,1.28,1.28Z"/><path class="cls-4" d="M98,175.36a1.28,1.28,0,1,0-1.28-1.28A1.28,1.28,0,0,0,98,175.36Z"/><path class="cls-4" d="M112.41,175.36a1.28,1.28,0,1,0-1.28-1.28,1.28,1.28,0,0,0,1.28,1.28Z"/><path class="cls-4" d="M126.81,175.36a1.28,1.28,0,1,0-1.28-1.28,1.28,1.28,0,0,0,1.28,1.28Z"/><path class="cls-4" d="M141.21,175.36a1.28,1.28,0,1,0-1.28-1.28,1.28,1.28,0,0,0,1.28,1.28Z"/><path class="cls-4" d="M155.61,175.36a1.28,1.28,0,1,0-1.28-1.28,1.28,1.28,0,0,0,1.28,1.28Z"/><path class="cls-4" d="M170,175.36a1.28,1.28,0,1,0-1.28-1.28,1.28,1.28,0,0,0,1.28,1.28Z"/><path class="cls-4" d="M184.41,175.36a1.28,1.28,0,1,0-1.28-1.28,1.28,1.28,0,0,0,1.28,1.28Z"/><path class="cls-4" d="M198.81,175.36a1.28,1.28,0,1,0-1.28-1.28,1.28,1.28,0,0,0,1.28,1.28Z"/><path class="cls-4" d="M213.21,175.36a1.28,1.28,0,1,0-1.28-1.28,1.28,1.28,0,0,0,1.28,1.28Z"/><path class="cls-4" d="M227.61,175.36a1.28,1.28,0,1,0-1.28-1.28,1.28,1.28,0,0,0,1.28,1.28Z"/><path class="cls-4" d="M242,175.36a1.28,1.28,0,1,0-1.28-1.28,1.28,1.28,0,0,0,1.28,1.28Z"/><path class="cls-4" d="M256.41,175.36a1.28,1.28,0,1,0-1.28-1.28,1.28,1.28,0,0,0,1.28,1.28Z"/><path class="cls-4" d="M270.81,175.36a1.28,1.28,0,1,0-1.28-1.28,1.28,1.28,0,0,0,1.28,1.28Z"/><path class="cls-4" d="M285.21,175.36a1.28,1.28,0,1,0-1.28-1.28,1.28,1.28,0,0,0,1.28,1.28Z"/><path class="cls-4" d="M4.41,189.76a1.28,1.28,0,1,0-1.28-1.28,1.28,1.28,0,0,0,1.28,1.28Z"/><path class="cls-4" d="M18.81,189.76a1.28,1.28,0,1,0-1.28-1.28,1.28,1.28,0,0,0,1.28,1.28Z"/><path class="cls-4" d="M33.21,189.76a1.28,1.28,0,1,0-1.28-1.28,1.28,1.28,0,0,0,1.28,1.28Z"/><path class="cls-4" d="M47.61,189.76a1.28,1.28,0,1,0-1.28-1.28,1.28,1.28,0,0,0,1.28,1.28Z"/><path class="cls-4" d="M62,189.76a1.28,1.28,0,1,0-1.28-1.28A1.28,1.28,0,0,0,62,189.76Z"/><path class="cls-4" d="M76.41,189.76a1.28,1.28,0,1,0-1.28-1.28,1.28,1.28,0,0,0,1.28,1.28Z"/><path class="cls-4" d="M90.81,189.76a1.28,1.28,0,1,0-1.28-1.28,1.28,1.28,0,0,0,1.28,1.28Z"/><path class="cls-4" d="M105.21,189.76a1.28,1.28,0,1,0-1.28-1.28,1.28,1.28,0,0,0,1.28,1.28Z"/><path class="cls-4" d="M119.61,189.76a1.28,1.28,0,1,0-1.28-1.28,1.28,1.28,0,0,0,1.28,1.28Z"/><path class="cls-4" d="M134,189.76a1.28,1.28,0,1,0-1.28-1.28,1.28,1.28,0,0,0,1.28,1.28Z"/><path class="cls-4" d="M148.41,189.76a1.28,1.28,0,1,0-1.28-1.28,1.28,1.28,0,0,0,1.28,1.28Z"/><path class="cls-4" d="M162.81,189.76a1.28,1.28,0,1,0-1.28-1.28,1.28,1.28,0,0,0,1.28,1.28Z"/><path class="cls-4" d="M177.21,189.76a1.28,1.28,0,1,0-1.28-1.28,1.28,1.28,0,0,0,1.28,1.28Z"/><path class="cls-4" d="M191.61,189.76a1.28,1.28,0,1,0-1.28-1.28,1.28,1.28,0,0,0,1.28,1.28Z"/><path class="cls-4" d="M206,189.76a1.28,1.28,0,1,0-1.28-1.28,1.28,1.28,0,0,0,1.28,1.28Z"/><path class="cls-4" d="M220.41,189.76a1.28,1.28,0,1,0-1.28-1.28,1.28,1.28,0,0,0,1.28,1.28Z"/><path class="cls-4" d="M234.81,189.76a1.28,1.28,0,1,0-1.28-1.28,1.28,1.28,0,0,0,1.28,1.28Z"/><path class="cls-4" d="M249.21,189.76a1.28,1.28,0,1,0-1.28-1.28,1.28,1.28,0,0,0,1.28,1.28Z"/><path class="cls-4" d="M263.61,189.76a1.28,1.28,0,1,0-1.28-1.28,1.28,1.28,0,0,0,1.28,1.28Z"/><path class="cls-4" d="M278,189.76a1.28,1.28,0,1,0-1.28-1.28,1.28,1.28,0,0,0,1.28,1.28Z"/><path class="cls-4" d="M11.61,204.16a1.28,1.28,0,1,0-1.28-1.28,1.28,1.28,0,0,0,1.28,1.28Z"/><path class="cls-4" d="M26,204.16a1.28,1.28,0,1,0-1.28-1.28A1.28,1.28,0,0,0,26,204.16Z"/><path class="cls-4" d="M40.41,204.16a1.28,1.28,0,1,0-1.28-1.28,1.28,1.28,0,0,0,1.28,1.28Z"/><path class="cls-4" d="M54.81,204.16a1.28,1.28,0,1,0-1.28-1.28,1.28,1.28,0,0,0,1.28,1.28Z"/><path class="cls-4" d="M69.21,204.16a1.28,1.28,0,1,0-1.28-1.28,1.28,1.28,0,0,0,1.28,1.28Z"/><path class="cls-4" d="M83.61,204.16a1.28,1.28,0,1,0-1.28-1.28,1.28,1.28,0,0,0,1.28,1.28Z"/><path class="cls-4" d="M98,204.16a1.28,1.28,0,1,0-1.28-1.28A1.28,1.28,0,0,0,98,204.16Z"/><path class="cls-4" d="M112.41,204.16a1.28,1.28,0,1,0-1.28-1.28,1.28,1.28,0,0,0,1.28,1.28Z"/><path class="cls-4" d="M126.81,204.16a1.28,1.28,0,1,0-1.28-1.28,1.28,1.28,0,0,0,1.28,1.28Z"/><path class="cls-4" d="M141.21,204.16a1.28,1.28,0,1,0-1.28-1.28,1.28,1.28,0,0,0,1.28,1.28Z"/><path class="cls-4" d="M155.61,204.16a1.28,1.28,0,1,0-1.28-1.28,1.28,1.28,0,0,0,1.28,1.28Z"/><path class="cls-4" d="M170,204.16a1.28,1.28,0,1,0-1.28-1.28,1.28,1.28,0,0,0,1.28,1.28Z"/><path class="cls-4" d="M184.41,204.16a1.28,1.28,0,1,0-1.28-1.28,1.28,1.28,0,0,0,1.28,1.28Z"/><path class="cls-4" d="M198.81,204.16a1.28,1.28,0,1,0-1.28-1.28,1.28,1.28,0,0,0,1.28,1.28Z"/><path class="cls-4" d="M213.21,204.16a1.28,1.28,0,1,0-1.28-1.28,1.28,1.28,0,0,0,1.28,1.28Z"/><path class="cls-4" d="M227.61,204.16a1.28,1.28,0,1,0-1.28-1.28,1.28,1.28,0,0,0,1.28,1.28Z"/><path class="cls-4" d="M242,204.16a1.28,1.28,0,1,0-1.28-1.28,1.28,1.28,0,0,0,1.28,1.28Z"/><path class="cls-4" d="M256.41,204.16a1.28,1.28,0,1,0-1.28-1.28,1.28,1.28,0,0,0,1.28,1.28Z"/><path class="cls-4" d="M270.81,204.16a1.28,1.28,0,1,0-1.28-1.28,1.28,1.28,0,0,0,1.28,1.28Z"/><path class="cls-4" d="M285.21,204.16a1.28,1.28,0,1,0-1.28-1.28,1.28,1.28,0,0,0,1.28,1.28Z"/><path class="cls-4" d="M4.41,218.56a1.28,1.28,0,1,0-1.28-1.28,1.28,1.28,0,0,0,1.28,1.28Z"/><path class="cls-4" d="M18.81,218.56a1.28,1.28,0,1,0-1.28-1.28,1.28,1.28,0,0,0,1.28,1.28Z"/><path class="cls-4" d="M33.21,218.56a1.28,1.28,0,1,0-1.28-1.28,1.28,1.28,0,0,0,1.28,1.28Z"/><path class="cls-4" d="M47.61,218.56a1.28,1.28,0,1,0-1.28-1.28,1.28,1.28,0,0,0,1.28,1.28Z"/><path class="cls-4" d="M62,218.56a1.28,1.28,0,1,0-1.28-1.28A1.28,1.28,0,0,0,62,218.56Z"/><path class="cls-4" d="M76.41,218.56a1.28,1.28,0,1,0-1.28-1.28,1.28,1.28,0,0,0,1.28,1.28Z"/><path class="cls-4" d="M90.81,218.56a1.28,1.28,0,1,0-1.28-1.28,1.28,1.28,0,0,0,1.28,1.28Z"/><path class="cls-4" d="M105.21,218.56a1.28,1.28,0,1,0-1.28-1.28,1.28,1.28,0,0,0,1.28,1.28Z"/><path class="cls-4" d="M119.61,218.56a1.28,1.28,0,1,0-1.28-1.28,1.28,1.28,0,0,0,1.28,1.28Z"/><path class="cls-4" d="M134,218.56a1.28,1.28,0,1,0-1.28-1.28,1.28,1.28,0,0,0,1.28,1.28Z"/><path class="cls-4" d="M148.41,218.56a1.28,1.28,0,1,0-1.28-1.28,1.28,1.28,0,0,0,1.28,1.28Z"/><path class="cls-4" d="M162.81,218.56a1.28,1.28,0,1,0-1.28-1.28,1.28,1.28,0,0,0,1.28,1.28Z"/><path class="cls-4" d="M177.21,218.56a1.28,1.28,0,1,0-1.28-1.28,1.28,1.28,0,0,0,1.28,1.28Z"/><path class="cls-4" d="M191.61,218.56a1.28,1.28,0,1,0-1.28-1.28,1.28,1.28,0,0,0,1.28,1.28Z"/><path class="cls-4" d="M206,218.56a1.28,1.28,0,1,0-1.28-1.28,1.28,1.28,0,0,0,1.28,1.28Z"/><path class="cls-4" d="M220.41,218.56a1.28,1.28,0,1,0-1.28-1.28,1.28,1.28,0,0,0,1.28,1.28Z"/><path class="cls-4" d="M234.81,218.56a1.28,1.28,0,1,0-1.28-1.28,1.28,1.28,0,0,0,1.28,1.28Z"/><path class="cls-4" d="M249.21,218.56a1.28,1.28,0,1,0-1.28-1.28,1.28,1.28,0,0,0,1.28,1.28Z"/><path class="cls-4" d="M263.61,218.56a1.28,1.28,0,1,0-1.28-1.28,1.28,1.28,0,0,0,1.28,1.28Z"/><path class="cls-4" d="M278,218.56a1.28,1.28,0,1,0-1.28-1.28,1.28,1.28,0,0,0,1.28,1.28Z"/><path class="cls-4" d="M11.61,233a1.28,1.28,0,1,0-1.28-1.28A1.28,1.28,0,0,0,11.61,233Z"/><path class="cls-4" d="M26,233a1.28,1.28,0,1,0-1.28-1.28A1.28,1.28,0,0,0,26,233Z"/><path class="cls-4" d="M40.41,233a1.28,1.28,0,1,0-1.28-1.28A1.28,1.28,0,0,0,40.41,233Z"/><path class="cls-4" d="M54.81,233a1.28,1.28,0,1,0-1.28-1.28A1.28,1.28,0,0,0,54.81,233Z"/><path class="cls-4" d="M69.21,233a1.28,1.28,0,1,0-1.28-1.28A1.28,1.28,0,0,0,69.21,233Z"/><path class="cls-4" d="M83.61,233a1.28,1.28,0,1,0-1.28-1.28A1.28,1.28,0,0,0,83.61,233Z"/><path class="cls-4" d="M98,233a1.28,1.28,0,1,0-1.28-1.28A1.28,1.28,0,0,0,98,233Z"/><path class="cls-4" d="M112.41,233a1.28,1.28,0,1,0-1.28-1.28,1.28,1.28,0,0,0,1.28,1.28Z"/><path class="cls-4" d="M126.81,233a1.28,1.28,0,1,0-1.28-1.28,1.28,1.28,0,0,0,1.28,1.28Z"/><path class="cls-4" d="M141.21,233a1.28,1.28,0,1,0-1.28-1.28,1.28,1.28,0,0,0,1.28,1.28Z"/><path class="cls-4" d="M155.61,233a1.28,1.28,0,1,0-1.28-1.28,1.28,1.28,0,0,0,1.28,1.28Z"/><path class="cls-4" d="M170,233a1.28,1.28,0,1,0-1.28-1.28A1.28,1.28,0,0,0,170,233Z"/><path class="cls-4" d="M184.41,233a1.28,1.28,0,1,0-1.28-1.28,1.28,1.28,0,0,0,1.28,1.28Z"/><path class="cls-4" d="M198.81,233a1.28,1.28,0,1,0-1.28-1.28,1.28,1.28,0,0,0,1.28,1.28Z"/><path class="cls-4" d="M213.21,233a1.28,1.28,0,1,0-1.28-1.28,1.28,1.28,0,0,0,1.28,1.28Z"/><path class="cls-4" d="M227.61,233a1.28,1.28,0,1,0-1.28-1.28,1.28,1.28,0,0,0,1.28,1.28Z"/><path class="cls-4" d="M242,233a1.28,1.28,0,1,0-1.28-1.28A1.28,1.28,0,0,0,242,233Z"/><path class="cls-4" d="M256.41,233a1.28,1.28,0,1,0-1.28-1.28,1.28,1.28,0,0,0,1.28,1.28Z"/><path class="cls-4" d="M270.81,233a1.28,1.28,0,1,0-1.28-1.28,1.28,1.28,0,0,0,1.28,1.28Z"/><path class="cls-4" d="M285.21,233a1.28,1.28,0,1,0-1.28-1.28,1.28,1.28,0,0,0,1.28,1.28Z"/><path class="cls-4" d="M4.41,247.36a1.28,1.28,0,1,0-1.28-1.28,1.28,1.28,0,0,0,1.28,1.28Z"/><path class="cls-4" d="M18.81,247.36a1.28,1.28,0,1,0-1.28-1.28,1.28,1.28,0,0,0,1.28,1.28Z"/><path class="cls-4" d="M33.21,247.36a1.28,1.28,0,1,0-1.28-1.28,1.28,1.28,0,0,0,1.28,1.28Z"/><path class="cls-4" d="M47.61,247.36a1.28,1.28,0,1,0-1.28-1.28,1.28,1.28,0,0,0,1.28,1.28Z"/><path class="cls-4" d="M62,247.36a1.28,1.28,0,1,0-1.28-1.28A1.28,1.28,0,0,0,62,247.36Z"/><path class="cls-4" d="M76.41,247.36a1.28,1.28,0,1,0-1.28-1.28,1.28,1.28,0,0,0,1.28,1.28Z"/><path class="cls-4" d="M90.81,247.36a1.28,1.28,0,1,0-1.28-1.28,1.28,1.28,0,0,0,1.28,1.28Z"/><path class="cls-4" d="M105.21,247.36a1.28,1.28,0,1,0-1.28-1.28,1.28,1.28,0,0,0,1.28,1.28Z"/><path class="cls-4" d="M119.61,247.36a1.28,1.28,0,1,0-1.28-1.28,1.28,1.28,0,0,0,1.28,1.28Z"/><path class="cls-4" d="M134,247.36a1.28,1.28,0,1,0-1.28-1.28,1.28,1.28,0,0,0,1.28,1.28Z"/><path class="cls-4" d="M148.41,247.36a1.28,1.28,0,1,0-1.28-1.28,1.28,1.28,0,0,0,1.28,1.28Z"/><path class="cls-4" d="M162.81,247.36a1.28,1.28,0,1,0-1.28-1.28,1.28,1.28,0,0,0,1.28,1.28Z"/><path class="cls-4" d="M177.21,247.36a1.28,1.28,0,1,0-1.28-1.28,1.28,1.28,0,0,0,1.28,1.28Z"/><path class="cls-4" d="M191.61,247.36a1.28,1.28,0,1,0-1.28-1.28,1.28,1.28,0,0,0,1.28,1.28Z"/><path class="cls-4" d="M206,247.36a1.28,1.28,0,1,0-1.28-1.28,1.28,1.28,0,0,0,1.28,1.28Z"/><path class="cls-4" d="M220.41,247.36a1.28,1.28,0,1,0-1.28-1.28,1.28,1.28,0,0,0,1.28,1.28Z"/><path class="cls-4" d="M234.81,247.36a1.28,1.28,0,1,0-1.28-1.28,1.28,1.28,0,0,0,1.28,1.28Z"/><path class="cls-4" d="M249.21,247.36a1.28,1.28,0,1,0-1.28-1.28,1.28,1.28,0,0,0,1.28,1.28Z"/><path class="cls-4" d="M263.61,247.36a1.28,1.28,0,1,0-1.28-1.28,1.28,1.28,0,0,0,1.28,1.28Z"/><path class="cls-4" d="M278,247.36a1.28,1.28,0,1,0-1.28-1.28,1.28,1.28,0,0,0,1.28,1.28Z"/><path class="cls-4" d="M11.61,261.76a1.28,1.28,0,1,0-1.28-1.28,1.28,1.28,0,0,0,1.28,1.28Z"/><path class="cls-4" d="M26,261.76a1.28,1.28,0,1,0-1.28-1.28A1.28,1.28,0,0,0,26,261.76Z"/><path class="cls-4" d="M40.41,261.76a1.28,1.28,0,1,0-1.28-1.28,1.28,1.28,0,0,0,1.28,1.28Z"/><path class="cls-4" d="M54.81,261.76a1.28,1.28,0,1,0-1.28-1.28,1.28,1.28,0,0,0,1.28,1.28Z"/><path class="cls-4" d="M69.21,261.76a1.28,1.28,0,1,0-1.28-1.28,1.28,1.28,0,0,0,1.28,1.28Z"/><path class="cls-4" d="M83.61,261.76a1.28,1.28,0,1,0-1.28-1.28,1.28,1.28,0,0,0,1.28,1.28Z"/><path class="cls-4" d="M98,261.76a1.28,1.28,0,1,0-1.28-1.28A1.28,1.28,0,0,0,98,261.76Z"/><path class="cls-4" d="M112.41,261.76a1.28,1.28,0,1,0-1.28-1.28,1.28,1.28,0,0,0,1.28,1.28Z"/><path class="cls-4" d="M126.81,261.76a1.28,1.28,0,1,0-1.28-1.28,1.28,1.28,0,0,0,1.28,1.28Z"/><path class="cls-4" d="M141.21,261.76a1.28,1.28,0,1,0-1.28-1.28,1.28,1.28,0,0,0,1.28,1.28Z"/><path class="cls-4" d="M155.61,261.76a1.28,1.28,0,1,0-1.28-1.28,1.28,1.28,0,0,0,1.28,1.28Z"/><path class="cls-4" d="M170,261.76a1.28,1.28,0,1,0-1.28-1.28,1.28,1.28,0,0,0,1.28,1.28Z"/><path class="cls-4" d="M184.41,261.76a1.28,1.28,0,1,0-1.28-1.28,1.28,1.28,0,0,0,1.28,1.28Z"/><path class="cls-4" d="M198.81,261.76a1.28,1.28,0,1,0-1.28-1.28,1.28,1.28,0,0,0,1.28,1.28Z"/><path class="cls-4" d="M213.21,261.76a1.28,1.28,0,1,0-1.28-1.28,1.28,1.28,0,0,0,1.28,1.28Z"/><path class="cls-4" d="M227.61,261.76a1.28,1.28,0,1,0-1.28-1.28,1.28,1.28,0,0,0,1.28,1.28Z"/><path class="cls-4" d="M242,261.76a1.28,1.28,0,1,0-1.28-1.28,1.28,1.28,0,0,0,1.28,1.28Z"/><path class="cls-4" d="M256.41,261.76a1.28,1.28,0,1,0-1.28-1.28,1.28,1.28,0,0,0,1.28,1.28Z"/><path class="cls-4" d="M270.81,261.76a1.28,1.28,0,1,0-1.28-1.28,1.28,1.28,0,0,0,1.28,1.28Z"/><path class="cls-4" d="M285.21,261.76a1.28,1.28,0,1,0-1.28-1.28,1.28,1.28,0,0,0,1.28,1.28Z"/><path class="cls-4" d="M4.41,276.16a1.28,1.28,0,1,0-1.28-1.28,1.28,1.28,0,0,0,1.28,1.28Z"/><path class="cls-4" d="M18.81,276.16a1.28,1.28,0,1,0-1.28-1.28,1.28,1.28,0,0,0,1.28,1.28Z"/><path class="cls-4" d="M33.21,276.16a1.28,1.28,0,1,0-1.28-1.28,1.28,1.28,0,0,0,1.28,1.28Z"/><path class="cls-4" d="M47.61,276.16a1.28,1.28,0,1,0-1.28-1.28,1.28,1.28,0,0,0,1.28,1.28Z"/><path class="cls-4" d="M62,276.16a1.28,1.28,0,1,0-1.28-1.28A1.28,1.28,0,0,0,62,276.16Z"/><path class="cls-4" d="M76.41,276.16a1.28,1.28,0,1,0-1.28-1.28,1.28,1.28,0,0,0,1.28,1.28Z"/><path class="cls-4" d="M90.81,276.16a1.28,1.28,0,1,0-1.28-1.28,1.28,1.28,0,0,0,1.28,1.28Z"/><path class="cls-4" d="M105.21,276.16a1.28,1.28,0,1,0-1.28-1.28,1.28,1.28,0,0,0,1.28,1.28Z"/><path class="cls-4" d="M119.61,276.16a1.28,1.28,0,1,0-1.28-1.28,1.28,1.28,0,0,0,1.28,1.28Z"/><path class="cls-4" d="M134,276.16a1.28,1.28,0,1,0-1.28-1.28,1.28,1.28,0,0,0,1.28,1.28Z"/><path class="cls-4" d="M148.41,276.16a1.28,1.28,0,1,0-1.28-1.28,1.28,1.28,0,0,0,1.28,1.28Z"/><path class="cls-4" d="M162.81,276.16a1.28,1.28,0,1,0-1.28-1.28,1.28,1.28,0,0,0,1.28,1.28Z"/><path class="cls-4" d="M177.21,276.16a1.28,1.28,0,1,0-1.28-1.28,1.28,1.28,0,0,0,1.28,1.28Z"/><path class="cls-4" d="M191.61,276.16a1.28,1.28,0,1,0-1.28-1.28,1.28,1.28,0,0,0,1.28,1.28Z"/><path class="cls-4" d="M206,276.16a1.28,1.28,0,1,0-1.28-1.28,1.28,1.28,0,0,0,1.28,1.28Z"/><path class="cls-4" d="M220.41,276.16a1.28,1.28,0,1,0-1.28-1.28,1.28,1.28,0,0,0,1.28,1.28Z"/><path class="cls-4" d="M234.81,276.16a1.28,1.28,0,1,0-1.28-1.28,1.28,1.28,0,0,0,1.28,1.28Z"/><path class="cls-4" d="M249.21,276.16a1.28,1.28,0,1,0-1.28-1.28,1.28,1.28,0,0,0,1.28,1.28Z"/><path class="cls-4" d="M263.61,276.16a1.28,1.28,0,1,0-1.28-1.28,1.28,1.28,0,0,0,1.28,1.28Z"/></g></g></svg>