<svg xmlns="http://www.w3.org/2000/svg" viewBox="0 0 200 200"><defs><style>.cls-1{fill:#f2a1a6;}.cls-2{fill:#9c9a92;}.cls-3{fill:#ddb514;}.cls-4{fill:#b1dddf;}</style></defs><title>アセット 69</title><g id="レイヤー_2" data-name="レイヤー 2"><g id="レイヤー_1-2" data-name="レイヤー 1"><path class="cls-1" d="M84.58,5.86a5.13,5.13,0,0,0-3,2.64c-.71,1.45-.61,2.93.18,3.27s2.2-.75,3.1-.59,2,1.05,3.14.7.39-3.26-.39-4.44-1.64-1.88-3-1.58Z"/><path class="cls-1" d="M90.32,4.82c-.45-.4-1.25-.18-1.77.48a1.44,1.44,0,0,0-.15,1.91c.45.4,1.24.19,1.77-.47a1.45,1.45,0,0,0,.15-1.92Z"/><path class="cls-1" d="M83.62,5.24c.75-.19,1.15-1.23.84-2.31s-1.13-1.8-1.87-1.61-1.11,1.23-.82,2.31,1.1,1.8,1.85,1.61Z"/><path class="cls-1" d="M81.43,5.16c-.5-.67-1.31-.9-1.76-.53a1.4,1.4,0,0,0,.08,1.87c.5.67,1.28.91,1.74.54a1.39,1.39,0,0,0-.06-1.88Z"/><path class="cls-1" d="M88.23,3.72c.25-1.09-.15-2.15-.9-2.36S85.77,1.87,85.51,3s.12,2.13.86,2.34S88,4.81,88.23,3.72Z"/><path class="cls-1" d="M122.48,89.51a5.2,5.2,0,0,0,3.91.87c1.61-.28,2.77-1.22,2.59-2s-1.9-1.33-2.3-2.15-.32-2.25-1.25-2.93-2.9,1.58-3.42,2.9-.59,2.41.47,3.36Z"/><path class="cls-1" d="M118.29,85.5c-.07.6.57,1.11,1.42,1.15s1.59-.41,1.66-1-.57-1.11-1.42-1.15-1.6.41-1.66,1Z"/><path class="cls-1" d="M122.53,90.65c-.59-.5-1.68-.21-2.39.66s-.82,2-.23,2.44,1.66.18,2.37-.68.84-1.93.25-2.42Z"/><path class="cls-1" d="M123.74,92.45c-.26.79,0,1.58.59,1.73s1.24-.36,1.49-1.15,0-1.57-.57-1.73-1.25.36-1.51,1.15Z"/><path class="cls-1" d="M118.6,87.83c-1,.42-1.68,1.36-1.42,2.09s1.33,1,2.37.54,1.68-1.34,1.43-2.06-1.32-1-2.38-.57Z"/><path class="cls-1" d="M191.39,43.17a5,5,0,0,0,1.46,3.7c1.12,1.16,2.56,1.58,3.15,1s.06-2.3.53-3.08,1.7-1.52,1.76-2.66-2.95-1.5-4.35-1.2-2.34.87-2.55,2.27Z"/><path class="cls-1" d="M192.41,37.49c-.54.28-.61,1.09-.17,1.81s1.23,1.08,1.76.8.62-1.08.17-1.8a1.49,1.49,0,0,0-1.76-.81Z"/><path class="cls-1" d="M190.46,43.85c.09-.77-.76-1.5-1.89-1.59s-2.1.42-2.17,1.17.77,1.46,1.89,1.57,2.09-.39,2.17-1.15Z"/><path class="cls-1" d="M189.63,45.85c-.81.22-1.32.9-1.12,1.44a1.45,1.45,0,0,0,1.8.59c.8-.23,1.31-.87,1.12-1.43s-1-.83-1.8-.6Z"/><path class="cls-1" d="M190.63,39a2,2,0,0,0-2.54,0c-.46.62-.07,1.63.87,2.24s2,.64,2.52,0,.09-1.63-.85-2.28Z"/><path class="cls-1" d="M155.66,6.06a5.14,5.14,0,0,0-3.44,2c-1,1.3-1.14,2.77-.43,3.25s2.3-.34,3.16,0,1.81,1.41,3,1.26,1-3.12.45-4.43-1.26-2.14-2.69-2.1Z"/><path class="cls-1" d="M161.49,6.08c-.37-.47-1.19-.4-1.83.15a1.43,1.43,0,0,0-.5,1.85c.37.47,1.18.41,1.83-.14a1.47,1.47,0,0,0,.5-1.86Z"/><path class="cls-1" d="M154.83,5.27c.77,0,1.35-1,1.26-2.12s-.78-2-1.55-1.92-1.31,1-1.23,2.12.74,2,1.52,1.92Z"/><path class="cls-1" d="M152.69,4.79c-.36-.74-1.12-1.12-1.63-.84a1.41,1.41,0,0,0-.28,1.85c.37.75,1.1,1.13,1.62.86a1.42,1.42,0,0,0,.29-1.87Z"/><path class="cls-1" d="M159.64,4.61c.45-1,.26-2.13-.44-2.47s-1.63.21-2.09,1.22-.28,2.12.4,2.47,1.65-.2,2.13-1.22Z"/><path class="cls-1" d="M75.63,131.55a5.13,5.13,0,0,0-3.52,1.88c-1,1.26-1.27,2.72-.59,3.23s2.32-.24,3.16.12,1.74,1.49,2.89,1.4,1.14-3.08.66-4.41-1.17-2.19-2.6-2.22Z"/><path class="cls-1" d="M81.46,131.84c-.35-.49-1.17-.46-1.84.06a1.44,1.44,0,0,0-.58,1.83c.34.49,1.16.47,1.83-.06a1.46,1.46,0,0,0,.59-1.83Z"/><path class="cls-1" d="M74.84,130.72c.78,0,1.41-.93,1.36-2.06s-.68-2-1.45-2-1.36.94-1.33,2.06.65,2,1.42,2Z"/><path class="cls-1" d="M72.73,130.15c-.33-.77-1.07-1.18-1.59-.92a1.4,1.4,0,0,0-.36,1.84c.33.76,1,1.18,1.57.93a1.41,1.41,0,0,0,.38-1.85Z"/><path class="cls-1" d="M79.68,130.29a1.89,1.89,0,0,0-.32-2.49c-.68-.38-1.64.13-2.14,1.12s-.39,2.1.28,2.48,1.65-.11,2.18-1.11Z"/><path class="cls-1" d="M6.23,194.53a5.09,5.09,0,0,0,1.67-3.61C8,189.31,7.26,188,6.4,188s-1.71,1.56-2.6,1.78-2.29-.15-3.15.61,1,3.13,2.16,3.91,2.26,1.06,3.42.23Z"/><path class="cls-1" d="M1.41,197.76c.57.19,1.21-.33,1.42-1.14a1.45,1.45,0,0,0-.64-1.81c-.58-.18-1.22.32-1.43,1.14a1.44,1.44,0,0,0,.65,1.81Z"/><path class="cls-1" d="M7.37,194.71a1.79,1.79,0,0,0,.16,2.46c.71.87,1.77,1.19,2.37.72s.52-1.57-.19-2.44-1.73-1.21-2.34-.74Z"/><path class="cls-1" d="M9.4,193.91c.73.42,1.57.31,1.83-.21s-.1-1.27-.83-1.68-1.55-.33-1.82.19.09,1.29.82,1.7Z"/><path class="cls-1" d="M3.77,197.94c.21,1.1,1,1.91,1.77,1.8s1.23-1.09,1-2.18-1-1.9-1.74-1.8-1.25,1.07-1.06,2.18Z"/><path class="cls-1" d="M5.92,99a5.17,5.17,0,0,0-3.25,2.33c-.85,1.38-.9,2.86-.15,3.27s2.27-.53,3.15-.28,1.92,1.25,3.05,1,.72-3.2.06-4.46-1.44-2-2.86-1.87Z"/><path class="cls-1" d="M11.73,98.56c-.41-.44-1.22-.3-1.81.31a1.45,1.45,0,0,0-.34,1.89c.41.43,1.22.3,1.81-.3a1.46,1.46,0,0,0,.34-1.9Z"/><path class="cls-1" d="M5,98.32c.77-.12,1.27-1.11,1.08-2.22s-.95-1.9-1.71-1.78-1.22,1.12-1,2.22S4.26,98.43,5,98.32Z"/><path class="cls-1" d="M2.85,98c-.42-.72-1.21-1-1.69-.71A1.41,1.41,0,0,0,1,99.19c.43.71,1.19,1,1.69.72A1.4,1.4,0,0,0,2.85,98Z"/><path class="cls-1" d="M9.76,97.26a1.89,1.89,0,0,0-.65-2.43c-.73-.28-1.61.35-2,1.4s-.1,2.13.61,2.42,1.62-.33,2-1.39Z"/><path class="cls-1" d="M35.08,78.64a5.08,5.08,0,0,0-1.71-3.59c-1.21-1.08-2.67-1.4-3.22-.76s.1,2.31-.31,3.11S28.25,79,28.27,80.18s3,1.3,4.42.9,2.28-1,2.39-2.44Z"/><path class="cls-1" d="M34.46,84.37c.51-.31.52-1.12,0-1.81a1.48,1.48,0,0,0-1.81-.68c-.51.31-.53,1.12,0,1.81a1.48,1.48,0,0,0,1.82.68Z"/><path class="cls-1" d="M36,77.9c0,.77.87,1.44,2,1.46S40,78.8,40,78s-.88-1.4-2-1.43S36,77.14,36,77.9Z"/><path class="cls-1" d="M36.65,75.85c.79-.28,1.25-1,1-1.51a1.45,1.45,0,0,0-1.84-.47c-.79.29-1.25,1-1,1.51a1.43,1.43,0,0,0,1.84.47Z"/><path class="cls-1" d="M36.12,82.71c1,.55,2.12.47,2.53-.18s0-1.63-1-2.18-2.09-.49-2.51.14,0,1.64,1,2.22Z"/><path class="cls-1" d="M192.67,113.83a5.13,5.13,0,0,0-3.72-1.46c-1.64,0-2.92.78-2.88,1.62s1.67,1.61,1.93,2.48,0,2.27.77,3.09,3.12-1.11,3.84-2.33,1-2.3.06-3.4Z"/><path class="cls-1" d="M196.19,118.43c.15-.57-.4-1.17-1.23-1.35a1.49,1.49,0,0,0-1.8.73c-.15.58.39,1.19,1.23,1.36a1.49,1.49,0,0,0,1.8-.74Z"/><path class="cls-1" d="M192.8,112.7a1.82,1.82,0,0,0,2.47-.29c.85-.74,1.12-1.81.61-2.37s-1.61-.43-2.45.31-1.13,1.77-.63,2.35Z"/><path class="cls-1" d="M191.89,110.73c.38-.74.23-1.56-.3-1.79a1.43,1.43,0,0,0-1.66.9c-.38.74-.25,1.55.29,1.79s1.29-.16,1.67-.9Z"/><path class="cls-1" d="M196.25,116.09c1.09-.26,1.87-1.09,1.72-1.84s-1.16-1.16-2.25-.9-1.87,1.05-1.74,1.8,1.15,1.18,2.27.94Z"/><path class="cls-1" d="M9.49,162a5.11,5.11,0,0,0-3.78-1.32c-1.63.08-2.89.89-2.81,1.73s1.73,1.54,2,2.4.05,2.27.89,3.06,3.07-1.23,3.75-2.48.86-2.33-.08-3.39Z"/><path class="cls-1" d="M13.18,166.46c.14-.58-.44-1.16-1.28-1.3s-1.63.22-1.76.8.43,1.16,1.27,1.3,1.64-.22,1.77-.8Z"/><path class="cls-1" d="M9.58,160.86c.53.56,1.64.4,2.45-.38s1.05-1.85.52-2.4-1.62-.36-2.44.41-1.06,1.81-.53,2.37Z"/><path class="cls-1" d="M8.59,158.93a1.28,1.28,0,0,0-.37-1.78,1.45,1.45,0,0,0-1.63,1c-.34.76-.18,1.56.37,1.78s1.28-.21,1.63-1Z"/><path class="cls-1" d="M13.15,164.12c1.09-.3,1.83-1.16,1.65-1.91s-1.2-1.11-2.28-.81-1.83,1.13-1.67,1.87,1.2,1.13,2.3.85Z"/><path class="cls-2" d="M115.58,125.64a5,5,0,0,0,.49,3.94c.8,1.41,2.08,2.16,2.81,1.72s.63-2.22,1.28-2.86,2-1.06,2.37-2.15-2.48-2.18-3.91-2.22-2.49.27-3,1.57Z"/><path class="cls-2" d="M118,120.39c-.59.14-.86.91-.61,1.71s.92,1.35,1.51,1.21.86-.9.61-1.71-.93-1.35-1.51-1.21Z"/><path class="cls-2" d="M114.51,126.07c.27-.72-.37-1.63-1.44-2s-2.14-.11-2.4.61.39,1.6,1.45,2,2.12.13,2.39-.59Z"/><path class="cls-2" d="M113.2,127.81c-.84,0-1.5.55-1.45,1.12a1.45,1.45,0,0,0,1.6,1c.84,0,1.49-.52,1.45-1.11s-.76-1.05-1.6-1Z"/><path class="cls-2" d="M115.87,121.46a1.93,1.93,0,0,0-2.46-.61c-.6.49-.47,1.55.28,2.38s1.83,1.12,2.43.64.5-1.56-.25-2.41Z"/><path class="cls-2" d="M127.12,160.87a5.11,5.11,0,0,0,2.5,3.11c1.42.78,2.92.76,3.3,0s-.63-2.22-.42-3.1,1.18-1.95.89-3.06-3.26-.57-4.5.13-2,1.51-1.77,2.91Z"/><path class="cls-2" d="M126.4,155.15c-.43.42-.25,1.22.38,1.77a1.49,1.49,0,0,0,1.92.26c.43-.42.26-1.22-.37-1.78a1.5,1.5,0,0,0-1.93-.25Z"/><path class="cls-2" d="M126.44,161.79c-.15-.76-1.18-1.21-2.29-1s-1.88,1-1.72,1.76,1.18,1.16,2.28.94,1.88-1,1.73-1.73Z"/><path class="cls-2" d="M126.24,163.94c-.71.45-1,1.25-.64,1.71a1.44,1.44,0,0,0,1.89,0c.7-.45,1-1.21.65-1.69a1.44,1.44,0,0,0-1.9-.05Z"/><path class="cls-2" d="M125.17,157.15c-1.09-.31-2.18,0-2.43.75s.42,1.57,1.5,1.89,2.15,0,2.41-.71-.4-1.59-1.48-1.93Z"/><path class="cls-2" d="M10.47,132.53a5.15,5.15,0,0,0,3.75-1.39c1.2-1.1,1.64-2.51,1-3.11s-2.32-.09-3.11-.56-1.51-1.71-2.67-1.78S7.92,128.58,8.21,130s.84,2.33,2.26,2.56Z"/><path class="cls-2" d="M4.74,131.44c.27.54,1.09.62,1.83.19s1.1-1.2.83-1.73-1.09-.62-1.82-.19a1.45,1.45,0,0,0-.84,1.73Z"/><path class="cls-2" d="M11.14,133.45c-.78-.09-1.52.74-1.64,1.86s.4,2.08,1.16,2.16,1.48-.75,1.61-1.86-.36-2.06-1.13-2.16Z"/><path class="cls-2" d="M13.15,134.31c.21.8.89,1.31,1.44,1.13a1.42,1.42,0,0,0,.62-1.77c-.23-.81-.86-1.32-1.43-1.14a1.41,1.41,0,0,0-.63,1.78Z"/><path class="cls-2" d="M6.28,133.22c-.63.92-.65,2.05,0,2.51s1.64.09,2.27-.82.67-2,.07-2.49-1.66-.12-2.32.8Z"/><path class="cls-2" d="M157.08,134.36a5.16,5.16,0,0,0-4,.36c-1.44.75-2.25,2-1.82,2.74s2.22.68,2.85,1.34,1,2,2.11,2.41,2.27-2.39,2.35-3.8-.19-2.47-1.5-3Z"/><path class="cls-2" d="M162.32,136.89c-.12-.58-.89-.87-1.71-.65s-1.39.87-1.27,1.45.89.88,1.71.66,1.39-.88,1.27-1.46Z"/><path class="cls-2" d="M156.68,133.29c.72.29,1.66-.31,2.07-1.36s.17-2.12-.55-2.39-1.62.34-2,1.37-.2,2.09.52,2.38Z"/><path class="cls-2" d="M155,131.94c0-.83-.52-1.49-1.1-1.46a1.43,1.43,0,0,0-1.06,1.55c0,.83.48,1.49,1.08,1.47s1.08-.72,1.08-1.56Z"/><path class="cls-2" d="M161.3,134.77c.86-.72,1.17-1.81.7-2.41s-1.56-.52-2.42.2-1.19,1.78-.72,2.39,1.56.54,2.44-.18Z"/><path class="cls-2" d="M44.92,112.57a5.09,5.09,0,0,0-2.46,3.13c-.43,1.56-.06,3,.77,3.18s2-1.13,3-1.14,2.2.67,3.21.13-.21-3.27-1.19-4.3-2-1.54-3.28-1Z"/><path class="cls-2" d="M50.37,110.52c-.52-.31-1.25,0-1.65.79a1.44,1.44,0,0,0,.2,1.9c.52.31,1.26,0,1.66-.78a1.46,1.46,0,0,0-.21-1.91Z"/><path class="cls-2" d="M43.86,112.13c.7-.32.9-1.42.41-2.43s-1.45-1.56-2.14-1.24-.86,1.41-.38,2.42,1.41,1.57,2.11,1.25Z"/><path class="cls-2" d="M41.69,112.45c-.61-.57-1.45-.66-1.82-.22a1.41,1.41,0,0,0,.41,1.83c.62.57,1.43.67,1.82.23a1.4,1.4,0,0,0-.41-1.84Z"/><path class="cls-2" d="M48.11,109.81c.06-1.12-.53-2.09-1.31-2.16s-1.44.78-1.5,1.89.51,2.07,1.27,2.15,1.47-.76,1.54-1.88Z"/><path class="cls-2" d="M155.69,70.37a5.17,5.17,0,0,0,3.15-2.45c.79-1.41.78-2.89,0-3.28s-2.24.62-3.13.41-2-1.17-3.09-.89-.6,3.22.11,4.45,1.52,2,2.94,1.76Z"/><path class="cls-2" d="M149.9,71.06c.42.43,1.23.26,1.8-.37a1.46,1.46,0,0,0,.26-1.9c-.43-.42-1.23-.26-1.8.37a1.44,1.44,0,0,0-.26,1.9Z"/><path class="cls-2" d="M156.61,71.05c-.76.14-1.22,1.16-1,2.26s1,1.86,1.77,1.71,1.19-1.16,1-2.25-1-1.87-1.74-1.72Z"/><path class="cls-2" d="M158.79,71.26c.45.7,1.25,1,1.72.64a1.42,1.42,0,0,0,0-1.88c-.46-.69-1.22-1-1.71-.65a1.41,1.41,0,0,0-.05,1.89Z"/><path class="cls-2" d="M151.91,72.29c-.32,1.07,0,2.15.75,2.4s1.59-.41,1.92-1.47,0-2.13-.71-2.39-1.61.39-2,1.46Z"/><path class="cls-2" d="M191.44,8.31a5.13,5.13,0,0,0,3.08,2.54c1.55.48,3,.16,3.24-.65s-1.07-2-1-2.95.75-2.15.24-3.18-3.31.09-4.39,1S190.94,7,191.44,8.31Z"/><path class="cls-2" d="M189.56,2.85c-.33.49,0,1.24.74,1.66a1.49,1.49,0,0,0,1.94-.14c.33-.5,0-1.24-.74-1.66a1.49,1.49,0,0,0-1.94.14Z"/><path class="cls-2" d="M191,9.34c-.3-.71-1.4-.95-2.44-.49s-1.63,1.37-1.33,2.07,1.4.9,2.43.46,1.64-1.33,1.34-2Z"/><path class="cls-2" d="M191.2,11.49c-.6.58-.71,1.42-.28,1.8a1.45,1.45,0,0,0,1.87-.35c.59-.58.72-1.39.29-1.79a1.45,1.45,0,0,0-1.88.34Z"/><path class="cls-2" d="M188.76,5.05c-1.12-.09-2.12.46-2.22,1.22s.73,1.46,1.85,1.55,2.12-.42,2.23-1.18-.72-1.47-1.86-1.59Z"/><path class="cls-2" d="M47.61,9a5.1,5.1,0,0,0,2.61-3c.5-1.54.19-3-.63-3.21s-2.08,1-3,1S44.43,3,43.39,3.54s.06,3.27,1,4.34S46.27,9.52,47.61,9Z"/><path class="cls-2" d="M42.07,10.84c.5.33,1.26,0,1.69-.72a1.43,1.43,0,0,0-.12-1.91c-.5-.33-1.25,0-1.69.71a1.46,1.46,0,0,0,.12,1.92Z"/><path class="cls-2" d="M48.65,9.52c-.72.29-1,1.37-.52,2.41s1.37,1.63,2.08,1.33.93-1.36.49-2.39-1.33-1.64-2.05-1.35Z"/><path class="cls-2" d="M50.83,9.3a1.33,1.33,0,0,0,1.82.3,1.42,1.42,0,0,0-.33-1.85c-.59-.59-1.4-.73-1.81-.3a1.39,1.39,0,0,0,.32,1.85Z"/><path class="cls-2" d="M44.29,11.65c-.1,1.11.44,2.1,1.21,2.21S47,13.15,47.09,12s-.41-2.09-1.17-2.2-1.5.69-1.63,1.81Z"/><path class="cls-2" d="M81.74,38.2a5.11,5.11,0,0,0,2.86-2.77c.64-1.49.47-3-.33-3.26s-2.16.85-3.07.74-2.09-1-3.17-.56-.24,3.27.6,4.42,1.73,1.79,3.11,1.43Z"/><path class="cls-2" d="M76.06,39.51c.47.37,1.25.12,1.75-.57a1.44,1.44,0,0,0,0-1.91c-.47-.38-1.25-.13-1.75.55a1.47,1.47,0,0,0,0,1.93Z"/><path class="cls-2" d="M82.73,38.78C82,39,81.64,40.06,82,41.13s1.21,1.74,1.94,1.51,1-1.28.71-2.34-1.18-1.75-1.92-1.52Z"/><path class="cls-2" d="M84.92,38.75a1.32,1.32,0,0,0,1.78.46,1.4,1.4,0,0,0-.16-1.87c-.53-.64-1.33-.85-1.77-.46a1.39,1.39,0,0,0,.15,1.87Z"/><path class="cls-2" d="M78.2,40.51c-.2,1.1.25,2.14,1,2.31s1.53-.58,1.74-1.67-.22-2.12-1-2.3-1.55.56-1.78,1.66Z"/><path class="cls-2" d="M111,192.36a5.09,5.09,0,0,0-2-3.45c-1.29-1-2.77-1.21-3.27-.52s.28,2.29-.07,3.13-1.47,1.74-1.36,2.88,3.13,1.07,4.47.57,2.2-1.19,2.2-2.61Z"/><path class="cls-2" d="M110.8,198.13c.48-.35.44-1.17-.11-1.82a1.47,1.47,0,0,0-1.85-.54c-.49.35-.45,1.16.09,1.81a1.5,1.5,0,0,0,1.87.55Z"/><path class="cls-2" d="M111.8,191.57c0,.76,1,1.37,2.11,1.3s2-.71,2-1.47-1-1.33-2.11-1.28-2,.68-2,1.45Z"/><path class="cls-2" d="M112.34,189.46c.77-.33,1.17-1.07.9-1.58a1.45,1.45,0,0,0-1.86-.33c-.77.35-1.18,1-.91,1.58a1.42,1.42,0,0,0,1.87.33Z"/><path class="cls-2" d="M112.33,196.34c1,.48,2.15.32,2.51-.37s-.17-1.61-1.18-2.09-2.13-.34-2.5.33.15,1.63,1.17,2.13Z"/><path class="cls-3" d="M46.06,153.91a5,5,0,0,0-.63,3.92c.38,1.57,1.41,2.65,2.23,2.42s1.22-2,2-2.41,2.25-.46,2.88-1.42-1.78-2.76-3.14-3.19-2.47-.42-3.36.68Z"/><path class="cls-3" d="M49.83,149.51c-.61,0-1.08.64-1.06,1.49s.51,1.54,1.11,1.57,1.08-.64,1.06-1.48-.51-1.55-1.11-1.58Z"/><path class="cls-3" d="M44.91,154c.46-.61.1-1.67-.83-2.31s-2-.69-2.47-.07-.07,1.65.84,2.3,2,.7,2.46.08Z"/><path class="cls-3" d="M43.17,155.35c-.81-.21-1.59.12-1.7.68s.44,1.21,1.25,1.41,1.58-.1,1.7-.68-.44-1.21-1.25-1.41Z"/><path class="cls-3" d="M47.5,150c-.49-1-1.48-1.57-2.2-1.26s-.88,1.37-.39,2.37,1.45,1.57,2.16,1.28S48,151,47.5,150Z"/><path class="cls-3" d="M72.66,192.21a5.13,5.13,0,0,0,3.5-1.92c1-1.26,1.25-2.72.56-3.22s-2.31.25-3.16-.1-1.75-1.47-2.9-1.37S69.55,188.68,70,190s1.19,2.19,2.62,2.2Z"/><path class="cls-3" d="M66.83,192c.35.48,1.17.44,1.83-.09a1.44,1.44,0,0,0,.57-1.83c-.35-.48-1.17-.45-1.83.07a1.47,1.47,0,0,0-.57,1.85Z"/><path class="cls-3" d="M73.46,193c-.78,0-1.4.95-1.34,2.07s.7,2,1.46,2,1.36-.95,1.32-2.07-.67-2-1.44-2Z"/><path class="cls-3" d="M75.57,193.58c.34.77,1.08,1.17,1.6.91a1.4,1.4,0,0,0,.34-1.84c-.34-.76-1-1.17-1.58-.92a1.42,1.42,0,0,0-.36,1.85Z"/><path class="cls-3" d="M68.62,193.51A1.89,1.89,0,0,0,69,196c.68.36,1.64-.15,2.13-1.15s.36-2.1-.31-2.48-1.65.13-2.17,1.14Z"/><path class="cls-3" d="M147.89,194.8a5.08,5.08,0,0,0,3,2.64c1.54.53,3,.25,3.26-.56s-1-2.07-.95-3,.82-2.12.34-3.16-3.31,0-4.41.89-1.69,1.83-1.23,3.17Z"/><path class="cls-3" d="M146.18,189.29c-.35.48,0,1.24.69,1.68a1.48,1.48,0,0,0,1.93-.08c.35-.48,0-1.24-.68-1.68a1.48,1.48,0,0,0-1.94.08Z"/><path class="cls-3" d="M147.37,195.82c-.28-.72-1.36-1-2.42-.56s-1.67,1.31-1.39,2,1.36.95,2.41.54,1.68-1.29,1.4-2Z"/><path class="cls-3" d="M147.55,198c-.62.56-.76,1.39-.34,1.79a1.47,1.47,0,0,0,1.88-.29c.61-.57.76-1.37.34-1.78a1.43,1.43,0,0,0-1.88.28Z"/><path class="cls-3" d="M145.31,191.47c-1.12-.13-2.14.39-2.26,1.15s.69,1.48,1.8,1.6,2.13-.36,2.26-1.11-.67-1.49-1.8-1.64Z"/><path class="cls-3" d="M156.53,38.29a5.18,5.18,0,0,0,4-.07c1.49-.64,2.39-1.83,2-2.59s-2.17-.85-2.75-1.56S159,32,157.9,31.52s-2.45,2.21-2.64,3.61,0,2.48,1.27,3.16Z"/><path class="cls-3" d="M151.49,35.38c.08.59.83.93,1.66.77s1.45-.76,1.37-1.35-.81-.95-1.65-.79-1.45.77-1.38,1.37Z"/><path class="cls-3" d="M156.85,39.38c-.7-.34-1.69.19-2.17,1.21s-.33,2.09.36,2.42,1.65-.22,2.14-1.22.36-2.07-.33-2.41Z"/><path class="cls-3" d="M158.45,40.85c-.06.83.4,1.53,1,1.54s1.12-.63,1.18-1.46-.37-1.52-1-1.55-1.13.64-1.2,1.47Z"/><path class="cls-3" d="M152.35,37.56c-.91.66-1.31,1.72-.87,2.36s1.51.63,2.42,0,1.32-1.68.9-2.33-1.52-.65-2.45,0Z"/><path class="cls-3" d="M156.17,103.4a5.12,5.12,0,0,0-3.31-2.23c-1.6-.32-3,.13-3.16,1S151,104.07,151,105s-.53,2.21.08,3.18,3.29-.41,4.26-1.45,1.44-2,.8-3.3Z"/><path class="cls-3" d="M158.59,108.65c.28-.53-.12-1.23-.9-1.58a1.48,1.48,0,0,0-1.91.33c-.28.52.12,1.23.89,1.58a1.49,1.49,0,0,0,1.92-.33Z"/><path class="cls-3" d="M156.55,102.33a1.81,1.81,0,0,0,2.47.24c1-.54,1.49-1.52,1.12-2.18s-1.48-.77-2.46-.23-1.5,1.49-1.13,2.17Z"/><path class="cls-3" d="M156.09,100.21c.54-.64.57-1.48.1-1.82a1.44,1.44,0,0,0-1.82.53c-.53.64-.58,1.45-.11,1.81a1.45,1.45,0,0,0,1.83-.52Z"/><path class="cls-3" d="M159.17,106.38c1.12,0,2.06-.66,2.08-1.43s-.87-1.38-2-1.36-2.06.63-2.1,1.39.87,1.39,2,1.4Z"/><path class="cls-3" d="M6.57,65.86A5,5,0,0,0,7.26,62c-.35-1.58-1.35-2.67-2.18-2.46S3.82,61.43,3,61.86s-2.26.42-2.9,1.37S1.84,66,3.19,66.48s2.46.46,3.38-.62Z"/><path class="cls-3" d="M2.72,70.19c.6,0,1.08-.62,1.08-1.47s-.48-1.55-1.08-1.59-1.09.62-1.09,1.46.48,1.56,1.09,1.6Z"/><path class="cls-3" d="M7.71,65.76c-.47.61-.13,1.66.79,2.33s2,.72,2.47.11.1-1.65-.8-2.31-2-.74-2.46-.13Z"/><path class="cls-3" d="M9.48,64.47c.81.23,1.59-.09,1.71-.65s-.41-1.21-1.23-1.43-1.58.07-1.71.65.42,1.21,1.23,1.43Z"/><path class="cls-3" d="M5.05,69.77c.48,1,1.45,1.6,2.17,1.3s.91-1.35.44-2.36-1.42-1.6-2.14-1.32-.94,1.35-.47,2.38Z"/><path class="cls-3" d="M119.62,8.82a5,5,0,0,0-1.26,3.77c.12,1.61,1,2.84,1.8,2.74s1.53-1.74,2.39-2.05,2.3-.09,3.07-.94-1.3-3-2.57-3.66-2.37-.8-3.43.14Z"/><path class="cls-3" d="M124.06,5.09c-.59-.13-1.17.46-1.29,1.29a1.46,1.46,0,0,0,.84,1.73c.59.12,1.17-.46,1.29-1.29a1.45,1.45,0,0,0-.84-1.73Z"/><path class="cls-3" d="M118.47,8.76c.55-.54.37-1.63-.44-2.42s-1.89-1-2.43-.46-.34,1.61.45,2.4,1.86,1,2.42.48Z"/><path class="cls-3" d="M116.53,9.78c-.77-.34-1.59-.14-1.79.4s.23,1.26,1,1.59,1.57.15,1.79-.4-.24-1.26-1-1.59Z"/><path class="cls-3" d="M121.69,5.16c-.33-1.06-1.21-1.78-2-1.59s-1.1,1.21-.78,2.27,1.18,1.79,1.92,1.61,1.13-1.2.82-2.29Z"/><path class="cls-3" d="M39.41,190.44a5,5,0,0,0-2.25-3.28c-1.36-.89-2.85-1-3.3-.26s.47,2.26.19,3.12-1.32,1.86-1.12,3,3.21.82,4.5.21,2.09-1.36,2-2.77Z"/><path class="cls-3" d="M39.7,196.2c.45-.39.34-1.19-.25-1.8a1.48,1.48,0,0,0-1.9-.39c-.45.38-.35,1.19.24,1.79a1.5,1.5,0,0,0,1.91.4Z"/><path class="cls-3" d="M40.16,189.58c.09.76,1.08,1.29,2.21,1.13s2-.87,1.85-1.62S43.14,187.84,42,188s-2,.84-1.86,1.6Z"/><path class="cls-3" d="M40.53,187.44c.74-.4,1.08-1.16.77-1.65a1.45,1.45,0,0,0-1.89-.18c-.73.41-1.08,1.14-.78,1.65a1.45,1.45,0,0,0,1.9.18Z"/><path class="cls-3" d="M41.08,194.3c1.06.39,2.17.14,2.47-.57s-.29-1.6-1.34-2-2.15-.17-2.47.52.28,1.62,1.34,2Z"/><path class="cls-3" d="M63.46,74.18a5,5,0,0,0,1.92,3.48c1.27,1,2.75,1.24,3.26.56s-.24-2.29.12-3.12,1.49-1.73,1.39-2.87S67,71.12,65.69,71.6s-2.21,1.16-2.23,2.58Z"/><path class="cls-3" d="M63.72,68.42c-.49.34-.46,1.15.08,1.81a1.47,1.47,0,0,0,1.85.57c.49-.34.46-1.15-.07-1.81a1.48,1.48,0,0,0-1.86-.57Z"/><path class="cls-3" d="M62.63,75c0-.77-1-1.39-2.09-1.34s-2,.69-2,1.45,1,1.34,2.09,1.3,2-.65,2-1.41Z"/><path class="cls-3" d="M62.06,77.06c-.77.33-1.19,1.06-.92,1.57A1.44,1.44,0,0,0,63,79c.77-.33,1.19-1,.93-1.56a1.44,1.44,0,0,0-1.87-.36Z"/><path class="cls-3" d="M62.16,70.18a1.94,1.94,0,0,0-2.52.34c-.37.67.15,1.62,1.16,2.11s2.12.36,2.5-.3-.13-1.63-1.14-2.15Z"/><path class="cls-3" d="M165.84,168.08a5,5,0,0,0,.89-3.87c-.27-1.59-1.22-2.73-2.06-2.56s-1.35,1.88-2.18,2.27-2.27.31-3,1.23,1.58,2.87,2.91,3.39,2.44.59,3.4-.46Z"/><path class="cls-3" d="M161.78,172.22c.6.07,1.12-.57,1.16-1.41a1.45,1.45,0,0,0-1-1.64c-.6-.06-1.12.56-1.16,1.4s.4,1.58,1,1.65Z"/><path class="cls-3" d="M167,168c-.5.58-.21,1.66.67,2.36s2,.82,2.47.24.18-1.64-.69-2.35-1.95-.84-2.45-.25Z"/><path class="cls-3" d="M168.82,166.84c.8.27,1.6,0,1.75-.57s-.36-1.23-1.16-1.48-1.58,0-1.74.56.35,1.24,1.15,1.49Z"/><path class="cls-3" d="M164.13,171.92c.43,1,1.38,1.66,2.11,1.4s1-1.3.55-2.33-1.34-1.67-2.07-1.42-1,1.3-.59,2.35Z"/><path class="cls-4" d="M85.5,102.58a5.17,5.17,0,0,0,4-.49c1.42-.79,2.19-2.06,1.74-2.78s-2.24-.63-2.89-1.26-1.07-2-2.18-2.35-2.2,2.45-2.24,3.87.27,2.46,1.59,3Z"/><path class="cls-4" d="M80.19,100.2c.14.58.92.85,1.73.6s1.36-.91,1.22-1.49-.91-.85-1.73-.6-1.36.91-1.22,1.49Z"/><path class="cls-4" d="M85.94,103.63c-.73-.27-1.65.36-2,1.43s-.11,2.11.62,2.37,1.62-.39,2-1.44.13-2.09-.59-2.36Z"/><path class="cls-4" d="M87.69,104.93c0,.83.56,1.48,1.14,1.43a1.43,1.43,0,0,0,1-1.58c0-.83-.53-1.48-1.13-1.44s-1,.75-1,1.59Z"/><path class="cls-4" d="M81.27,102.29c-.83.75-1.11,1.84-.62,2.43s1.58.47,2.41-.27,1.13-1.82.65-2.41-1.58-.49-2.44.25Z"/><path class="cls-4" d="M191.35,77.43a5.13,5.13,0,0,0-3.5,1.92c-1,1.26-1.25,2.73-.56,3.23s2.32-.25,3.16.1,1.76,1.46,2.91,1.36,1.1-3.09.61-4.41-1.19-2.19-2.62-2.2Z"/><path class="cls-4" d="M197.18,77.66c-.35-.48-1.17-.44-1.84.09a1.44,1.44,0,0,0-.56,1.83c.35.48,1.17.45,1.83-.08a1.46,1.46,0,0,0,.57-1.84Z"/><path class="cls-4" d="M190.55,76.61c.78,0,1.4-1,1.34-2.07s-.7-2-1.47-2-1.35,1-1.31,2.07.67,2,1.44,2Z"/><path class="cls-4" d="M188.43,76.06c-.33-.76-1.07-1.17-1.59-.9a1.41,1.41,0,0,0-.35,1.84c.34.76,1,1.17,1.59.91a1.41,1.41,0,0,0,.35-1.85Z"/><path class="cls-4" d="M195.39,76.13a1.9,1.9,0,0,0-.35-2.49c-.69-.37-1.64.15-2.13,1.15s-.36,2.1.31,2.48,1.65-.14,2.17-1.14Z"/><path class="cls-4" d="M190.46,192.15A5.07,5.07,0,0,0,192,195.8c1.16,1.13,2.61,1.51,3.19.88s0-2.3.42-3.09,1.66-1.58,1.68-2.72-3-1.41-4.37-1.06-2.32.94-2.49,2.34Z"/><path class="cls-4" d="M191.3,186.45c-.52.29-.57,1.1-.1,1.81A1.48,1.48,0,0,0,193,189c.52-.3.58-1.1.12-1.81a1.49,1.49,0,0,0-1.8-.75Z"/><path class="cls-4" d="M189.56,192.86c.05-.77-.81-1.47-1.95-1.54s-2.08.49-2.13,1.24.82,1.44,1.94,1.51,2.08-.45,2.14-1.21Z"/><path class="cls-4" d="M188.78,194.88c-.8.25-1.28.94-1.08,1.48a1.45,1.45,0,0,0,1.82.53c.8-.26,1.29-.91,1.08-1.47s-1-.79-1.82-.54Z"/><path class="cls-4" d="M189.58,188.05a2,2,0,0,0-2.54.08c-.44.64,0,1.63.93,2.22s2.08.57,2.52,0,0-1.64-.91-2.25Z"/><path class="cls-4" d="M89.69,161.34a5.21,5.21,0,0,0,3.76,1.37c1.63-.06,2.91-.84,2.84-1.69s-1.71-1.57-2-2.43,0-2.27-.84-3.07-3.09,1.18-3.79,2.42-.9,2.31,0,3.4Z"/><path class="cls-4" d="M86.07,156.81c-.14.58.43,1.17,1.26,1.32a1.48,1.48,0,0,0,1.78-.77c.14-.57-.42-1.17-1.26-1.32a1.5,1.5,0,0,0-1.78.77Z"/><path class="cls-4" d="M89.59,162.47a1.81,1.81,0,0,0-2.46.35c-.83.76-1.08,1.83-.55,2.38s1.62.39,2.44-.36,1.09-1.81.57-2.37Z"/><path class="cls-4" d="M90.55,164.42c-.37.74-.19,1.57.35,1.78s1.27-.19,1.63-.94.22-1.55-.33-1.78-1.29.18-1.65.94Z"/><path class="cls-4" d="M86.07,159.16c-1.09.28-1.85,1.13-1.68,1.88s1.18,1.13,2.27.85,1.84-1.1,1.69-1.85-1.18-1.15-2.28-.88Z"/><path class="cls-4" d="M8.47,35.75A5.16,5.16,0,0,0,12.41,35c1.36-.89,2-2.21,1.53-2.9s-2.28-.47-3-1.06-1.21-1.93-2.33-2.19-2,2.6-2,4,.44,2.44,1.8,2.89Z"/><path class="cls-4" d="M3,33.75c.18.57,1,.78,1.77.48s1.3-1,1.12-1.57-1-.79-1.77-.49-1.3,1-1.12,1.58Z"/><path class="cls-4" d="M9,36.78c-.74-.22-1.62.47-1.92,1.56s0,2.11.78,2.32,1.59-.5,1.9-1.57,0-2.1-.76-2.31Z"/><path class="cls-4" d="M10.82,38c.08.83.66,1.44,1.23,1.35a1.42,1.42,0,0,0,.9-1.65c-.08-.82-.63-1.43-1.22-1.35s-1,.82-.91,1.65Z"/><path class="cls-4" d="M4.23,35.75c-.78.81-1,1.92-.45,2.48s1.6.35,2.38-.45,1-1.88.48-2.44S5,35,4.23,35.75Z"/><path class="cls-4" d="M42.5,42.68a5,5,0,0,0,.58,3.92c.84,1.39,2.14,2.11,2.86,1.65s.57-2.23,1.2-2.89,2-1.11,2.32-2.21S46.93,41,45.5,41s-2.48.33-3,1.65Z"/><path class="cls-4" d="M44.77,37.37c-.58.15-.83.92-.57,1.72s1,1.33,1.54,1.17.84-.92.57-1.72-1-1.33-1.54-1.17Z"/><path class="cls-4" d="M41.44,43.13c.25-.73-.4-1.62-1.49-2s-2.14,0-2.38.67.43,1.59,1.5,1.94,2.12.08,2.37-.64Z"/><path class="cls-4" d="M40.17,44.9c-.83,0-1.48.58-1.41,1.15s.78,1,1.62,1,1.47-.56,1.42-1.14-.79-1-1.63-1Z"/><path class="cls-4" d="M42.69,38.49a2,2,0,0,0-2.48-.56c-.59.51-.43,1.57.34,2.38s1.86,1.07,2.45.58.46-1.57-.31-2.4Z"/><path class="cls-4" d="M194.08,150.57a5.11,5.11,0,0,0-2.49,3.11c-.44,1.55-.08,3,.75,3.18s2-1.11,2.95-1.11,2.19.69,3.22.16-.18-3.27-1.16-4.31-1.94-1.56-3.27-1Z"/><path class="cls-4" d="M199.55,148.56c-.51-.31-1.25,0-1.66.78a1.46,1.46,0,0,0,.19,1.91c.51.31,1.26,0,1.66-.77a1.46,1.46,0,0,0-.19-1.92Z"/><path class="cls-4" d="M193,150.12c.71-.32.91-1.41.43-2.42s-1.43-1.58-2.13-1.26-.88,1.4-.4,2.41,1.39,1.58,2.1,1.27Z"/><path class="cls-4" d="M190.86,150.41a1.33,1.33,0,0,0-1.83-.22,1.42,1.42,0,0,0,.4,1.83c.61.57,1.42.68,1.82.24a1.42,1.42,0,0,0-.39-1.85Z"/><path class="cls-4" d="M197.3,147.83c.06-1.11-.51-2.08-1.29-2.16s-1.45.76-1.52,1.87.49,2.08,1.25,2.17,1.48-.75,1.56-1.88Z"/><path class="cls-4" d="M7.87,5.28a5,5,0,0,0-.54,3.93c.41,1.56,1.46,2.62,2.28,2.37s1.18-2,2-2.44,2.24-.52,2.85-1.49-1.84-2.72-3.21-3.13-2.48-.36-3.35.76Z"/><path class="cls-4" d="M11.55.8c-.6,0-1.06.67-1,1.51s.54,1.53,1.14,1.54,1.07-.65,1-1.49S12.15.82,11.55.8Z"/><path class="cls-4" d="M6.73,5.42c.45-.62.07-1.67-.87-2.3s-2.05-.64-2.48,0,0,1.65.89,2.28,2,.66,2.46,0Z"/><path class="cls-4" d="M5,6.77c-.82-.19-1.59.16-1.69.72s.46,1.2,1.28,1.38,1.58-.13,1.69-.71S5.84,7,5,6.77Z"/><path class="cls-4" d="M9.24,1.31C8.72.32,7.72-.23,7,.09s-.86,1.39-.34,2.38S8.15,4,8.86,3.7s.88-1.38.38-2.39Z"/><path class="cls-4" d="M97.74,67.12a5.1,5.1,0,0,0-3.64-1.66c-1.63-.07-2.95.62-2.95,1.46s1.57,1.7,1.78,2.58-.16,2.27.61,3.13,3.17-.95,4-2.13,1.08-2.23.24-3.38Z"/><path class="cls-4" d="M101,71.9c.19-.57-.33-1.2-1.15-1.41a1.47,1.47,0,0,0-1.83.63c-.19.56.32,1.2,1.14,1.42A1.5,1.5,0,0,0,101,71.9Z"/><path class="cls-4" d="M97.94,66a1.81,1.81,0,0,0,2.48-.15c.89-.7,1.21-1.75.73-2.34s-1.58-.51-2.46.18-1.23,1.71-.75,2.31Z"/><path class="cls-4" d="M97.13,64a1.28,1.28,0,0,0-.2-1.81,1.45,1.45,0,0,0-1.71.82c-.42.72-.33,1.53.2,1.8A1.43,1.43,0,0,0,97.13,64Z"/><path class="cls-4" d="M101.19,69.57c1.11-.21,1.93-1,1.82-1.76s-1.09-1.21-2.19-1-1.93,1-1.84,1.71,1.09,1.24,2.21,1.06Z"/><path class="cls-4" d="M121.83,44.67a5,5,0,0,0-1.63,3.62c0,1.61.67,2.92,1.53,2.91s1.69-1.59,2.58-1.81,2.29.12,3.15-.64-1-3.13-2.21-3.89-2.27-1-3.42-.19Z"/><path class="cls-4" d="M126.62,41.38c-.58-.18-1.21.34-1.42,1.16a1.46,1.46,0,0,0,.67,1.8c.57.18,1.21-.34,1.42-1.16a1.46,1.46,0,0,0-.67-1.8Z"/><path class="cls-4" d="M120.69,44.49c.61-.48.53-1.59-.2-2.45s-1.78-1.18-2.37-.69-.5,1.57.22,2.43,1.75,1.19,2.35.71Z"/><path class="cls-4" d="M118.66,45.32c-.73-.41-1.57-.29-1.82.23a1.41,1.41,0,0,0,.85,1.67c.73.4,1.55.31,1.82-.22s-.11-1.28-.85-1.68Z"/><path class="cls-4" d="M124.25,41.22c-.22-1.09-1-1.89-1.79-1.77s-1.22,1.09-1,2.18,1,1.9,1.76,1.79,1.23-1.09,1-2.2Z"/></g></g></svg>